%TF.GenerationSoftware,KiCad,Pcbnew,(5.1.10)-1*%
%TF.CreationDate,2022-01-09T00:33:18-08:00*%
%TF.ProjectId,LEDBoard,4c454442-6f61-4726-942e-6b696361645f,rev?*%
%TF.SameCoordinates,Original*%
%TF.FileFunction,Copper,L2,Bot*%
%TF.FilePolarity,Positive*%
%FSLAX46Y46*%
G04 Gerber Fmt 4.6, Leading zero omitted, Abs format (unit mm)*
G04 Created by KiCad (PCBNEW (5.1.10)-1) date 2022-01-09 00:33:18*
%MOMM*%
%LPD*%
G01*
G04 APERTURE LIST*
%TA.AperFunction,ComponentPad*%
%ADD10R,1.605000X1.605000*%
%TD*%
%TA.AperFunction,ComponentPad*%
%ADD11C,1.605000*%
%TD*%
%TA.AperFunction,ViaPad*%
%ADD12C,0.508000*%
%TD*%
%TA.AperFunction,Conductor*%
%ADD13C,0.152400*%
%TD*%
%TA.AperFunction,Conductor*%
%ADD14C,0.100000*%
%TD*%
G04 APERTURE END LIST*
D10*
%TO.P,CN2,1*%
%TO.N,+5V*%
X330106000Y-174443000D03*
D11*
%TO.P,CN2,2*%
%TO.N,/DATA_IN2*%
X330106000Y-177443000D03*
%TO.P,CN2,3*%
%TO.N,N/C*%
X330106000Y-180443000D03*
%TO.P,CN2,4*%
%TO.N,GND*%
X330106000Y-183443000D03*
%TD*%
D10*
%TO.P,CN1,1*%
%TO.N,+5V*%
X54958000Y-183062000D03*
D11*
%TO.P,CN1,2*%
%TO.N,/DATA_IN1*%
X54958000Y-180062000D03*
%TO.P,CN1,3*%
%TO.N,N/C*%
X54958000Y-177062000D03*
%TO.P,CN1,4*%
%TO.N,GND*%
X54958000Y-174062000D03*
%TD*%
D12*
%TO.N,GND*%
X339217000Y-172466000D03*
X337439000Y-171831000D03*
X335153000Y-171831000D03*
X333121000Y-171831000D03*
X53086000Y-184785000D03*
X51308000Y-185420000D03*
X49022000Y-185420000D03*
X46736000Y-185420000D03*
X336804000Y-52832000D03*
X336804000Y-60452000D03*
X336804000Y-68072000D03*
X336804000Y-75692000D03*
X336804000Y-83312000D03*
X336804000Y-90932000D03*
X336804000Y-98552000D03*
X336804000Y-106172000D03*
X336804000Y-113792000D03*
X336804000Y-121412000D03*
X336804000Y-129032000D03*
X336804000Y-136652000D03*
X336804000Y-144272000D03*
X336804000Y-151892000D03*
X336804000Y-159512000D03*
X341757000Y-57531000D03*
X44577000Y-57531000D03*
X39624000Y-52832000D03*
X47244000Y-52832000D03*
X54864000Y-52832000D03*
X62484000Y-52832000D03*
X70104000Y-52832000D03*
X77724000Y-52832000D03*
X85344000Y-52832000D03*
X92964000Y-52832000D03*
X100584000Y-52832000D03*
X108204000Y-52832000D03*
X115824000Y-52832000D03*
X123444000Y-52832000D03*
X131064000Y-52832000D03*
X138684000Y-52832000D03*
X146304000Y-52832000D03*
X153924000Y-52832000D03*
X161544000Y-52832000D03*
X169164000Y-52832000D03*
X176784000Y-52832000D03*
X184404000Y-52832000D03*
X192024000Y-52832000D03*
X199644000Y-52832000D03*
X207264000Y-52832000D03*
X214884000Y-52832000D03*
X222504000Y-52832000D03*
X230124000Y-52832000D03*
X237744000Y-52832000D03*
X245364000Y-52832000D03*
X252984000Y-52832000D03*
X260604000Y-52832000D03*
X268224000Y-52832000D03*
X275844000Y-52832000D03*
X283464000Y-52832000D03*
X291084000Y-52832000D03*
X298704000Y-52832000D03*
X306324000Y-52832000D03*
X313944000Y-52832000D03*
X321564000Y-52832000D03*
X329184000Y-52832000D03*
X39624000Y-60452000D03*
X47244000Y-60452000D03*
X54864000Y-60452000D03*
X62484000Y-60452000D03*
X70104000Y-60452000D03*
X77724000Y-60452000D03*
X85344000Y-60452000D03*
X92964000Y-60452000D03*
X100584000Y-60452000D03*
X108204000Y-60452000D03*
X115824000Y-60452000D03*
X123444000Y-60452000D03*
X131064000Y-60452000D03*
X138684000Y-60452000D03*
X146304000Y-60452000D03*
X153924000Y-60452000D03*
X161544000Y-60452000D03*
X169164000Y-60452000D03*
X176784000Y-60452000D03*
X184404000Y-60452000D03*
X192024000Y-60452000D03*
X199644000Y-60452000D03*
X207264000Y-60452000D03*
X214884000Y-60452000D03*
X222504000Y-60452000D03*
X230124000Y-60452000D03*
X237744000Y-60452000D03*
X245364000Y-60452000D03*
X252984000Y-60452000D03*
X260604000Y-60452000D03*
X268224000Y-60452000D03*
X275844000Y-60452000D03*
X283464000Y-60452000D03*
X291084000Y-60452000D03*
X298704000Y-60452000D03*
X306324000Y-60452000D03*
X313944000Y-60452000D03*
X321564000Y-60452000D03*
X329184000Y-60452000D03*
X39624000Y-68072000D03*
X47244000Y-68072000D03*
X54864000Y-68072000D03*
X62484000Y-68072000D03*
X70104000Y-68072000D03*
X77724000Y-68072000D03*
X85344000Y-68072000D03*
X92964000Y-68072000D03*
X100584000Y-68072000D03*
X108204000Y-68072000D03*
X115824000Y-68072000D03*
X123444000Y-68072000D03*
X131064000Y-68072000D03*
X138684000Y-68072000D03*
X146304000Y-68072000D03*
X153924000Y-68072000D03*
X161544000Y-68072000D03*
X169164000Y-68072000D03*
X176784000Y-68072000D03*
X184404000Y-68072000D03*
X192024000Y-68072000D03*
X199644000Y-68072000D03*
X207264000Y-68072000D03*
X214884000Y-68072000D03*
X222504000Y-68072000D03*
X230124000Y-68072000D03*
X237744000Y-68072000D03*
X245364000Y-68072000D03*
X252984000Y-68072000D03*
X260604000Y-68072000D03*
X268224000Y-68072000D03*
X275844000Y-68072000D03*
X283464000Y-68072000D03*
X291084000Y-68072000D03*
X298704000Y-68072000D03*
X306324000Y-68072000D03*
X313944000Y-68072000D03*
X321564000Y-68072000D03*
X329184000Y-68072000D03*
X39624000Y-75692000D03*
X47244000Y-75692000D03*
X54864000Y-75692000D03*
X62484000Y-75692000D03*
X70104000Y-75692000D03*
X77724000Y-75692000D03*
X85344000Y-75692000D03*
X92964000Y-75692000D03*
X100584000Y-75692000D03*
X108204000Y-75692000D03*
X115824000Y-75692000D03*
X123444000Y-75692000D03*
X131064000Y-75692000D03*
X138684000Y-75692000D03*
X146304000Y-75692000D03*
X153924000Y-75692000D03*
X161544000Y-75692000D03*
X169164000Y-75692000D03*
X176784000Y-75692000D03*
X184404000Y-75692000D03*
X192024000Y-75692000D03*
X199644000Y-75692000D03*
X207264000Y-75692000D03*
X214884000Y-75692000D03*
X222504000Y-75692000D03*
X230124000Y-75692000D03*
X237744000Y-75692000D03*
X245364000Y-75692000D03*
X252984000Y-75692000D03*
X260604000Y-75692000D03*
X268224000Y-75692000D03*
X275844000Y-75692000D03*
X283464000Y-75692000D03*
X291084000Y-75692000D03*
X298704000Y-75692000D03*
X306324000Y-75692000D03*
X313944000Y-75692000D03*
X321564000Y-75692000D03*
X329184000Y-75692000D03*
X39624000Y-83312000D03*
X47244000Y-83312000D03*
X54864000Y-83312000D03*
X62484000Y-83312000D03*
X70104000Y-83312000D03*
X77724000Y-83312000D03*
X85344000Y-83312000D03*
X92964000Y-83312000D03*
X100584000Y-83312000D03*
X108204000Y-83312000D03*
X115824000Y-83312000D03*
X123444000Y-83312000D03*
X131064000Y-83312000D03*
X138684000Y-83312000D03*
X146304000Y-83312000D03*
X153924000Y-83312000D03*
X161544000Y-83312000D03*
X169164000Y-83312000D03*
X176784000Y-83312000D03*
X184404000Y-83312000D03*
X192024000Y-83312000D03*
X199644000Y-83312000D03*
X207264000Y-83312000D03*
X214884000Y-83312000D03*
X222504000Y-83312000D03*
X230124000Y-83312000D03*
X237744000Y-83312000D03*
X245364000Y-83312000D03*
X252984000Y-83312000D03*
X260604000Y-83312000D03*
X268224000Y-83312000D03*
X275844000Y-83312000D03*
X283464000Y-83312000D03*
X291084000Y-83312000D03*
X298704000Y-83312000D03*
X306324000Y-83312000D03*
X313944000Y-83312000D03*
X321564000Y-83312000D03*
X329184000Y-83312000D03*
X39624000Y-90932000D03*
X47244000Y-90932000D03*
X54864000Y-90932000D03*
X62484000Y-90932000D03*
X70104000Y-90932000D03*
X77724000Y-90932000D03*
X85344000Y-90932000D03*
X92964000Y-90932000D03*
X100584000Y-90932000D03*
X108204000Y-90932000D03*
X115824000Y-90932000D03*
X123444000Y-90932000D03*
X131064000Y-90932000D03*
X138684000Y-90932000D03*
X146304000Y-90932000D03*
X153924000Y-90932000D03*
X161544000Y-90932000D03*
X169164000Y-90932000D03*
X176784000Y-90932000D03*
X184404000Y-90932000D03*
X192024000Y-90932000D03*
X199644000Y-90932000D03*
X207264000Y-90932000D03*
X214884000Y-90932000D03*
X222504000Y-90932000D03*
X230124000Y-90932000D03*
X237744000Y-90932000D03*
X245364000Y-90932000D03*
X252984000Y-90932000D03*
X260604000Y-90932000D03*
X268224000Y-90932000D03*
X275844000Y-90932000D03*
X283464000Y-90932000D03*
X291084000Y-90932000D03*
X298704000Y-90932000D03*
X306324000Y-90932000D03*
X313944000Y-90932000D03*
X321564000Y-90932000D03*
X329184000Y-90932000D03*
X39624000Y-98552000D03*
X47244000Y-98552000D03*
X54864000Y-98552000D03*
X62484000Y-98552000D03*
X70104000Y-98552000D03*
X77724000Y-98552000D03*
X85344000Y-98552000D03*
X92964000Y-98552000D03*
X100584000Y-98552000D03*
X108204000Y-98552000D03*
X115824000Y-98552000D03*
X123444000Y-98552000D03*
X131064000Y-98552000D03*
X138684000Y-98552000D03*
X146304000Y-98552000D03*
X153924000Y-98552000D03*
X161544000Y-98552000D03*
X169164000Y-98552000D03*
X176784000Y-98552000D03*
X184404000Y-98552000D03*
X192024000Y-98552000D03*
X199644000Y-98552000D03*
X207264000Y-98552000D03*
X214884000Y-98552000D03*
X222504000Y-98552000D03*
X230124000Y-98552000D03*
X237744000Y-98552000D03*
X245364000Y-98552000D03*
X252984000Y-98552000D03*
X260604000Y-98552000D03*
X268224000Y-98552000D03*
X275844000Y-98552000D03*
X283464000Y-98552000D03*
X291084000Y-98552000D03*
X298704000Y-98552000D03*
X306324000Y-98552000D03*
X313944000Y-98552000D03*
X321564000Y-98552000D03*
X329184000Y-98552000D03*
X39624000Y-106172000D03*
X47244000Y-106172000D03*
X54864000Y-106172000D03*
X62484000Y-106172000D03*
X70104000Y-106172000D03*
X77724000Y-106172000D03*
X85344000Y-106172000D03*
X92964000Y-106172000D03*
X100584000Y-106172000D03*
X108204000Y-106172000D03*
X115824000Y-106172000D03*
X123444000Y-106172000D03*
X131064000Y-106172000D03*
X138684000Y-106172000D03*
X146304000Y-106172000D03*
X153924000Y-106172000D03*
X161544000Y-106172000D03*
X169164000Y-106172000D03*
X176784000Y-106172000D03*
X184404000Y-106172000D03*
X192024000Y-106172000D03*
X199644000Y-106172000D03*
X207264000Y-106172000D03*
X214884000Y-106172000D03*
X222504000Y-106172000D03*
X230124000Y-106172000D03*
X237744000Y-106172000D03*
X245364000Y-106172000D03*
X252984000Y-106172000D03*
X260604000Y-106172000D03*
X268224000Y-106172000D03*
X275844000Y-106172000D03*
X283464000Y-106172000D03*
X291084000Y-106172000D03*
X298704000Y-106172000D03*
X306324000Y-106172000D03*
X313944000Y-106172000D03*
X321564000Y-106172000D03*
X329184000Y-106172000D03*
X39624000Y-113792000D03*
X47244000Y-113792000D03*
X54864000Y-113792000D03*
X62484000Y-113792000D03*
X70104000Y-113792000D03*
X77724000Y-113792000D03*
X85344000Y-113792000D03*
X92964000Y-113792000D03*
X100584000Y-113792000D03*
X108204000Y-113792000D03*
X115824000Y-113792000D03*
X123444000Y-113792000D03*
X131064000Y-113792000D03*
X138684000Y-113792000D03*
X146304000Y-113792000D03*
X153924000Y-113792000D03*
X161544000Y-113792000D03*
X169164000Y-113792000D03*
X176784000Y-113792000D03*
X184404000Y-113792000D03*
X192024000Y-113792000D03*
X199644000Y-113792000D03*
X207264000Y-113792000D03*
X214884000Y-113792000D03*
X222504000Y-113792000D03*
X230124000Y-113792000D03*
X237744000Y-113792000D03*
X245364000Y-113792000D03*
X252984000Y-113792000D03*
X260604000Y-113792000D03*
X268224000Y-113792000D03*
X275844000Y-113792000D03*
X283464000Y-113792000D03*
X291084000Y-113792000D03*
X298704000Y-113792000D03*
X306324000Y-113792000D03*
X313944000Y-113792000D03*
X321564000Y-113792000D03*
X329184000Y-113792000D03*
X39624000Y-121412000D03*
X47244000Y-121412000D03*
X54864000Y-121412000D03*
X62484000Y-121412000D03*
X70104000Y-121412000D03*
X77724000Y-121412000D03*
X85344000Y-121412000D03*
X92964000Y-121412000D03*
X100584000Y-121412000D03*
X108204000Y-121412000D03*
X115824000Y-121412000D03*
X123444000Y-121412000D03*
X131064000Y-121412000D03*
X138684000Y-121412000D03*
X146304000Y-121412000D03*
X153924000Y-121412000D03*
X161544000Y-121412000D03*
X169164000Y-121412000D03*
X176784000Y-121412000D03*
X184404000Y-121412000D03*
X192024000Y-121412000D03*
X199644000Y-121412000D03*
X207264000Y-121412000D03*
X214884000Y-121412000D03*
X222504000Y-121412000D03*
X230124000Y-121412000D03*
X237744000Y-121412000D03*
X245364000Y-121412000D03*
X252984000Y-121412000D03*
X260604000Y-121412000D03*
X268224000Y-121412000D03*
X275844000Y-121412000D03*
X283464000Y-121412000D03*
X291084000Y-121412000D03*
X298704000Y-121412000D03*
X306324000Y-121412000D03*
X313944000Y-121412000D03*
X321564000Y-121412000D03*
X329184000Y-121412000D03*
X39624000Y-129032000D03*
X47244000Y-129032000D03*
X54864000Y-129032000D03*
X62484000Y-129032000D03*
X70104000Y-129032000D03*
X77724000Y-129032000D03*
X85344000Y-129032000D03*
X92964000Y-129032000D03*
X100584000Y-129032000D03*
X108204000Y-129032000D03*
X115824000Y-129032000D03*
X123444000Y-129032000D03*
X131064000Y-129032000D03*
X138684000Y-129032000D03*
X146304000Y-129032000D03*
X153924000Y-129032000D03*
X161544000Y-129032000D03*
X169164000Y-129032000D03*
X176784000Y-129032000D03*
X184404000Y-129032000D03*
X192024000Y-129032000D03*
X199644000Y-129032000D03*
X207264000Y-129032000D03*
X214884000Y-129032000D03*
X222504000Y-129032000D03*
X230124000Y-129032000D03*
X237744000Y-129032000D03*
X245364000Y-129032000D03*
X252984000Y-129032000D03*
X260604000Y-129032000D03*
X268224000Y-129032000D03*
X275844000Y-129032000D03*
X283464000Y-129032000D03*
X291084000Y-129032000D03*
X298704000Y-129032000D03*
X306324000Y-129032000D03*
X313944000Y-129032000D03*
X321564000Y-129032000D03*
X329184000Y-129032000D03*
X39624000Y-136652000D03*
X47244000Y-136652000D03*
X54864000Y-136652000D03*
X62484000Y-136652000D03*
X70104000Y-136652000D03*
X77724000Y-136652000D03*
X85344000Y-136652000D03*
X92964000Y-136652000D03*
X100584000Y-136652000D03*
X108204000Y-136652000D03*
X115824000Y-136652000D03*
X123444000Y-136652000D03*
X131064000Y-136652000D03*
X138684000Y-136652000D03*
X146304000Y-136652000D03*
X153924000Y-136652000D03*
X161544000Y-136652000D03*
X169164000Y-136652000D03*
X176784000Y-136652000D03*
X184404000Y-136652000D03*
X192024000Y-136652000D03*
X199644000Y-136652000D03*
X207264000Y-136652000D03*
X214884000Y-136652000D03*
X222504000Y-136652000D03*
X230124000Y-136652000D03*
X237744000Y-136652000D03*
X245364000Y-136652000D03*
X252984000Y-136652000D03*
X260604000Y-136652000D03*
X268224000Y-136652000D03*
X275844000Y-136652000D03*
X283464000Y-136652000D03*
X291084000Y-136652000D03*
X298704000Y-136652000D03*
X306324000Y-136652000D03*
X313944000Y-136652000D03*
X321564000Y-136652000D03*
X329184000Y-136652000D03*
X39624000Y-144272000D03*
X47244000Y-144272000D03*
X54864000Y-144272000D03*
X62484000Y-144272000D03*
X70104000Y-144272000D03*
X77724000Y-144272000D03*
X85344000Y-144272000D03*
X92964000Y-144272000D03*
X100584000Y-144272000D03*
X108204000Y-144272000D03*
X115824000Y-144272000D03*
X123444000Y-144272000D03*
X131064000Y-144272000D03*
X138684000Y-144272000D03*
X146304000Y-144272000D03*
X153924000Y-144272000D03*
X161544000Y-144272000D03*
X169164000Y-144272000D03*
X176784000Y-144272000D03*
X184404000Y-144272000D03*
X192024000Y-144272000D03*
X199644000Y-144272000D03*
X207264000Y-144272000D03*
X214884000Y-144272000D03*
X222504000Y-144272000D03*
X230124000Y-144272000D03*
X237744000Y-144272000D03*
X245364000Y-144272000D03*
X252984000Y-144272000D03*
X260604000Y-144272000D03*
X268224000Y-144272000D03*
X275844000Y-144272000D03*
X283464000Y-144272000D03*
X291084000Y-144272000D03*
X298704000Y-144272000D03*
X306324000Y-144272000D03*
X313944000Y-144272000D03*
X321564000Y-144272000D03*
X329184000Y-144272000D03*
X39624000Y-151892000D03*
X47244000Y-151892000D03*
X54864000Y-151892000D03*
X62484000Y-151892000D03*
X70104000Y-151892000D03*
X77724000Y-151892000D03*
X85344000Y-151892000D03*
X92964000Y-151892000D03*
X100584000Y-151892000D03*
X108204000Y-151892000D03*
X115824000Y-151892000D03*
X123444000Y-151892000D03*
X131064000Y-151892000D03*
X138684000Y-151892000D03*
X146304000Y-151892000D03*
X153924000Y-151892000D03*
X161544000Y-151892000D03*
X169164000Y-151892000D03*
X176784000Y-151892000D03*
X184404000Y-151892000D03*
X192024000Y-151892000D03*
X199644000Y-151892000D03*
X207264000Y-151892000D03*
X214884000Y-151892000D03*
X222504000Y-151892000D03*
X230124000Y-151892000D03*
X237744000Y-151892000D03*
X245364000Y-151892000D03*
X252984000Y-151892000D03*
X260604000Y-151892000D03*
X268224000Y-151892000D03*
X275844000Y-151892000D03*
X283464000Y-151892000D03*
X291084000Y-151892000D03*
X298704000Y-151892000D03*
X306324000Y-151892000D03*
X313944000Y-151892000D03*
X321564000Y-151892000D03*
X329184000Y-151892000D03*
X52197000Y-57531000D03*
X59817000Y-57531000D03*
X67437000Y-57531000D03*
X75057000Y-57531000D03*
X82677000Y-57531000D03*
X90297000Y-57531000D03*
X97917000Y-57531000D03*
X105537000Y-57531000D03*
X113157000Y-57531000D03*
X120777000Y-57531000D03*
X128397000Y-57531000D03*
X136017000Y-57531000D03*
X143637000Y-57531000D03*
X151257000Y-57531000D03*
X158877000Y-57531000D03*
X166497000Y-57531000D03*
X174117000Y-57531000D03*
X181737000Y-57531000D03*
X189357000Y-57531000D03*
X196977000Y-57531000D03*
X204597000Y-57531000D03*
X212217000Y-57531000D03*
X219837000Y-57531000D03*
X227457000Y-57531000D03*
X235077000Y-57531000D03*
X242697000Y-57531000D03*
X250317000Y-57531000D03*
X257937000Y-57531000D03*
X265557000Y-57531000D03*
X273177000Y-57531000D03*
X280797000Y-57531000D03*
X288417000Y-57531000D03*
X296037000Y-57531000D03*
X303657000Y-57531000D03*
X311277000Y-57531000D03*
X318897000Y-57531000D03*
X326517000Y-57531000D03*
X334137000Y-57531000D03*
X44577000Y-65151000D03*
X52197000Y-65151000D03*
X59817000Y-65151000D03*
X67437000Y-65151000D03*
X75057000Y-65151000D03*
X82677000Y-65151000D03*
X90297000Y-65151000D03*
X97917000Y-65151000D03*
X105537000Y-65151000D03*
X113157000Y-65151000D03*
X120777000Y-65151000D03*
X128397000Y-65151000D03*
X136017000Y-65151000D03*
X143637000Y-65151000D03*
X151257000Y-65151000D03*
X158877000Y-65151000D03*
X166497000Y-65151000D03*
X174117000Y-65151000D03*
X181737000Y-65151000D03*
X189357000Y-65151000D03*
X196977000Y-65151000D03*
X204597000Y-65151000D03*
X212217000Y-65151000D03*
X219837000Y-65151000D03*
X227457000Y-65151000D03*
X235077000Y-65151000D03*
X242697000Y-65151000D03*
X250317000Y-65151000D03*
X257937000Y-65151000D03*
X265557000Y-65151000D03*
X273177000Y-65151000D03*
X280797000Y-65151000D03*
X288417000Y-65151000D03*
X296037000Y-65151000D03*
X303657000Y-65151000D03*
X311277000Y-65151000D03*
X318897000Y-65151000D03*
X326517000Y-65151000D03*
X334137000Y-65151000D03*
X44577000Y-72771000D03*
X52197000Y-72771000D03*
X59817000Y-72771000D03*
X67437000Y-72771000D03*
X75057000Y-72771000D03*
X82677000Y-72771000D03*
X90297000Y-72771000D03*
X97917000Y-72771000D03*
X105537000Y-72771000D03*
X113157000Y-72771000D03*
X120777000Y-72771000D03*
X128397000Y-72771000D03*
X136017000Y-72771000D03*
X143637000Y-72771000D03*
X151257000Y-72771000D03*
X158877000Y-72771000D03*
X166497000Y-72771000D03*
X174117000Y-72771000D03*
X181737000Y-72771000D03*
X189357000Y-72771000D03*
X196977000Y-72771000D03*
X204597000Y-72771000D03*
X212217000Y-72771000D03*
X219837000Y-72771000D03*
X227457000Y-72771000D03*
X235077000Y-72771000D03*
X242697000Y-72771000D03*
X250317000Y-72771000D03*
X257937000Y-72771000D03*
X265557000Y-72771000D03*
X273177000Y-72771000D03*
X280797000Y-72771000D03*
X288417000Y-72771000D03*
X296037000Y-72771000D03*
X303657000Y-72771000D03*
X311277000Y-72771000D03*
X318897000Y-72771000D03*
X326517000Y-72771000D03*
X334137000Y-72771000D03*
X44577000Y-80391000D03*
X52197000Y-80391000D03*
X59817000Y-80391000D03*
X67437000Y-80391000D03*
X75057000Y-80391000D03*
X82677000Y-80391000D03*
X90297000Y-80391000D03*
X97917000Y-80391000D03*
X105537000Y-80391000D03*
X113157000Y-80391000D03*
X120777000Y-80391000D03*
X128397000Y-80391000D03*
X136017000Y-80391000D03*
X143637000Y-80391000D03*
X151257000Y-80391000D03*
X158877000Y-80391000D03*
X166497000Y-80391000D03*
X174117000Y-80391000D03*
X181737000Y-80391000D03*
X189357000Y-80391000D03*
X196977000Y-80391000D03*
X204597000Y-80391000D03*
X212217000Y-80391000D03*
X219837000Y-80391000D03*
X227457000Y-80391000D03*
X235077000Y-80391000D03*
X242697000Y-80391000D03*
X250317000Y-80391000D03*
X257937000Y-80391000D03*
X265557000Y-80391000D03*
X273177000Y-80391000D03*
X280797000Y-80391000D03*
X288417000Y-80391000D03*
X296037000Y-80391000D03*
X303657000Y-80391000D03*
X311277000Y-80391000D03*
X318897000Y-80391000D03*
X326517000Y-80391000D03*
X334137000Y-80391000D03*
X44577000Y-88011000D03*
X52197000Y-88011000D03*
X59817000Y-88011000D03*
X67437000Y-88011000D03*
X75057000Y-88011000D03*
X82677000Y-88011000D03*
X90297000Y-88011000D03*
X97917000Y-88011000D03*
X105537000Y-88011000D03*
X113157000Y-88011000D03*
X120777000Y-88011000D03*
X128397000Y-88011000D03*
X136017000Y-88011000D03*
X143637000Y-88011000D03*
X151257000Y-88011000D03*
X158877000Y-88011000D03*
X166497000Y-88011000D03*
X174117000Y-88011000D03*
X181737000Y-88011000D03*
X189357000Y-88011000D03*
X196977000Y-88011000D03*
X204597000Y-88011000D03*
X212217000Y-88011000D03*
X219837000Y-88011000D03*
X227457000Y-88011000D03*
X235077000Y-88011000D03*
X242697000Y-88011000D03*
X250317000Y-88011000D03*
X257937000Y-88011000D03*
X265557000Y-88011000D03*
X273177000Y-88011000D03*
X280797000Y-88011000D03*
X288417000Y-88011000D03*
X296037000Y-88011000D03*
X303657000Y-88011000D03*
X311277000Y-88011000D03*
X318897000Y-88011000D03*
X326517000Y-88011000D03*
X334137000Y-88011000D03*
X44577000Y-95631000D03*
X52197000Y-95631000D03*
X59817000Y-95631000D03*
X67437000Y-95631000D03*
X75057000Y-95631000D03*
X82677000Y-95631000D03*
X90297000Y-95631000D03*
X97917000Y-95631000D03*
X105537000Y-95631000D03*
X113157000Y-95631000D03*
X120777000Y-95631000D03*
X128397000Y-95631000D03*
X136017000Y-95631000D03*
X143637000Y-95631000D03*
X151257000Y-95631000D03*
X158877000Y-95631000D03*
X166497000Y-95631000D03*
X174117000Y-95631000D03*
X181737000Y-95631000D03*
X189357000Y-95631000D03*
X196977000Y-95631000D03*
X204597000Y-95631000D03*
X212217000Y-95631000D03*
X219837000Y-95631000D03*
X227457000Y-95631000D03*
X235077000Y-95631000D03*
X242697000Y-95631000D03*
X250317000Y-95631000D03*
X257937000Y-95631000D03*
X265557000Y-95631000D03*
X273177000Y-95631000D03*
X280797000Y-95631000D03*
X288417000Y-95631000D03*
X296037000Y-95631000D03*
X303657000Y-95631000D03*
X311277000Y-95631000D03*
X318897000Y-95631000D03*
X326517000Y-95631000D03*
X334137000Y-95631000D03*
X44577000Y-103251000D03*
X52197000Y-103251000D03*
X59817000Y-103251000D03*
X67437000Y-103251000D03*
X75057000Y-103251000D03*
X82677000Y-103251000D03*
X90297000Y-103251000D03*
X97917000Y-103251000D03*
X105537000Y-103251000D03*
X113157000Y-103251000D03*
X120777000Y-103251000D03*
X128397000Y-103251000D03*
X136017000Y-103251000D03*
X143637000Y-103251000D03*
X151257000Y-103251000D03*
X158877000Y-103251000D03*
X166497000Y-103251000D03*
X174117000Y-103251000D03*
X181737000Y-103251000D03*
X189357000Y-103251000D03*
X196977000Y-103251000D03*
X204597000Y-103251000D03*
X212217000Y-103251000D03*
X219837000Y-103251000D03*
X227457000Y-103251000D03*
X235077000Y-103251000D03*
X242697000Y-103251000D03*
X250317000Y-103251000D03*
X257937000Y-103251000D03*
X265557000Y-103251000D03*
X273177000Y-103251000D03*
X280797000Y-103251000D03*
X288417000Y-103251000D03*
X296037000Y-103251000D03*
X303657000Y-103251000D03*
X311277000Y-103251000D03*
X318897000Y-103251000D03*
X326517000Y-103251000D03*
X334137000Y-103251000D03*
X44577000Y-110871000D03*
X52197000Y-110871000D03*
X59817000Y-110871000D03*
X67437000Y-110871000D03*
X75057000Y-110871000D03*
X82677000Y-110871000D03*
X90297000Y-110871000D03*
X97917000Y-110871000D03*
X105537000Y-110871000D03*
X113157000Y-110871000D03*
X120777000Y-110871000D03*
X128397000Y-110871000D03*
X136017000Y-110871000D03*
X143637000Y-110871000D03*
X151257000Y-110871000D03*
X158877000Y-110871000D03*
X166497000Y-110871000D03*
X174117000Y-110871000D03*
X181737000Y-110871000D03*
X189357000Y-110871000D03*
X196977000Y-110871000D03*
X204597000Y-110871000D03*
X212217000Y-110871000D03*
X219837000Y-110871000D03*
X227457000Y-110871000D03*
X235077000Y-110871000D03*
X242697000Y-110871000D03*
X250317000Y-110871000D03*
X257937000Y-110871000D03*
X265557000Y-110871000D03*
X273177000Y-110871000D03*
X280797000Y-110871000D03*
X288417000Y-110871000D03*
X296037000Y-110871000D03*
X303657000Y-110871000D03*
X311277000Y-110871000D03*
X318897000Y-110871000D03*
X326517000Y-110871000D03*
X334137000Y-110871000D03*
X44577000Y-118491000D03*
X52197000Y-118491000D03*
X59817000Y-118491000D03*
X67437000Y-118491000D03*
X75057000Y-118491000D03*
X82677000Y-118491000D03*
X90297000Y-118491000D03*
X97917000Y-118491000D03*
X105537000Y-118491000D03*
X113157000Y-118491000D03*
X120777000Y-118491000D03*
X128397000Y-118491000D03*
X136017000Y-118491000D03*
X143637000Y-118491000D03*
X151257000Y-118491000D03*
X158877000Y-118491000D03*
X166497000Y-118491000D03*
X174117000Y-118491000D03*
X181737000Y-118491000D03*
X189357000Y-118491000D03*
X196977000Y-118491000D03*
X204597000Y-118491000D03*
X212217000Y-118491000D03*
X219837000Y-118491000D03*
X227457000Y-118491000D03*
X235077000Y-118491000D03*
X242697000Y-118491000D03*
X250317000Y-118491000D03*
X257937000Y-118491000D03*
X265557000Y-118491000D03*
X273177000Y-118491000D03*
X280797000Y-118491000D03*
X288417000Y-118491000D03*
X296037000Y-118491000D03*
X303657000Y-118491000D03*
X311277000Y-118491000D03*
X318897000Y-118491000D03*
X326517000Y-118491000D03*
X334137000Y-118491000D03*
X44577000Y-126111000D03*
X52197000Y-126111000D03*
X59817000Y-126111000D03*
X67437000Y-126111000D03*
X75057000Y-126111000D03*
X82677000Y-126111000D03*
X90297000Y-126111000D03*
X97917000Y-126111000D03*
X105537000Y-126111000D03*
X113157000Y-126111000D03*
X120777000Y-126111000D03*
X128397000Y-126111000D03*
X136017000Y-126111000D03*
X143637000Y-126111000D03*
X151257000Y-126111000D03*
X158877000Y-126111000D03*
X166497000Y-126111000D03*
X174117000Y-126111000D03*
X181737000Y-126111000D03*
X189357000Y-126111000D03*
X196977000Y-126111000D03*
X204597000Y-126111000D03*
X212217000Y-126111000D03*
X219837000Y-126111000D03*
X227457000Y-126111000D03*
X235077000Y-126111000D03*
X242697000Y-126111000D03*
X250317000Y-126111000D03*
X257937000Y-126111000D03*
X265557000Y-126111000D03*
X273177000Y-126111000D03*
X280797000Y-126111000D03*
X288417000Y-126111000D03*
X296037000Y-126111000D03*
X303657000Y-126111000D03*
X311277000Y-126111000D03*
X318897000Y-126111000D03*
X326517000Y-126111000D03*
X334137000Y-126111000D03*
X44577000Y-133731000D03*
X52197000Y-133731000D03*
X59817000Y-133731000D03*
X67437000Y-133731000D03*
X75057000Y-133731000D03*
X82677000Y-133731000D03*
X90297000Y-133731000D03*
X97917000Y-133731000D03*
X105537000Y-133731000D03*
X113157000Y-133731000D03*
X120777000Y-133731000D03*
X128397000Y-133731000D03*
X136017000Y-133731000D03*
X143637000Y-133731000D03*
X151257000Y-133731000D03*
X158877000Y-133731000D03*
X166497000Y-133731000D03*
X174117000Y-133731000D03*
X181737000Y-133731000D03*
X189357000Y-133731000D03*
X196977000Y-133731000D03*
X204597000Y-133731000D03*
X212217000Y-133731000D03*
X219837000Y-133731000D03*
X227457000Y-133731000D03*
X235077000Y-133731000D03*
X242697000Y-133731000D03*
X250317000Y-133731000D03*
X257937000Y-133731000D03*
X265557000Y-133731000D03*
X273177000Y-133731000D03*
X280797000Y-133731000D03*
X288417000Y-133731000D03*
X296037000Y-133731000D03*
X303657000Y-133731000D03*
X311277000Y-133731000D03*
X318897000Y-133731000D03*
X326517000Y-133731000D03*
X334137000Y-133731000D03*
X44577000Y-141351000D03*
X52197000Y-141351000D03*
X59817000Y-141351000D03*
X67437000Y-141351000D03*
X75057000Y-141351000D03*
X82677000Y-141351000D03*
X90297000Y-141351000D03*
X97917000Y-141351000D03*
X105537000Y-141351000D03*
X113157000Y-141351000D03*
X120777000Y-141351000D03*
X128397000Y-141351000D03*
X136017000Y-141351000D03*
X143637000Y-141351000D03*
X151257000Y-141351000D03*
X158877000Y-141351000D03*
X166497000Y-141351000D03*
X174117000Y-141351000D03*
X181737000Y-141351000D03*
X189357000Y-141351000D03*
X196977000Y-141351000D03*
X204597000Y-141351000D03*
X212217000Y-141351000D03*
X219837000Y-141351000D03*
X227457000Y-141351000D03*
X235077000Y-141351000D03*
X242697000Y-141351000D03*
X250317000Y-141351000D03*
X257937000Y-141351000D03*
X265557000Y-141351000D03*
X273177000Y-141351000D03*
X280797000Y-141351000D03*
X288417000Y-141351000D03*
X296037000Y-141351000D03*
X303657000Y-141351000D03*
X311277000Y-141351000D03*
X318897000Y-141351000D03*
X326517000Y-141351000D03*
X334137000Y-141351000D03*
X44577000Y-148971000D03*
X52197000Y-148971000D03*
X59817000Y-148971000D03*
X67437000Y-148971000D03*
X75057000Y-148971000D03*
X82677000Y-148971000D03*
X90297000Y-148971000D03*
X97917000Y-148971000D03*
X105537000Y-148971000D03*
X113157000Y-148971000D03*
X120777000Y-148971000D03*
X128397000Y-148971000D03*
X136017000Y-148971000D03*
X143637000Y-148971000D03*
X151257000Y-148971000D03*
X158877000Y-148971000D03*
X166497000Y-148971000D03*
X174117000Y-148971000D03*
X181737000Y-148971000D03*
X189357000Y-148971000D03*
X196977000Y-148971000D03*
X204597000Y-148971000D03*
X212217000Y-148971000D03*
X219837000Y-148971000D03*
X227457000Y-148971000D03*
X235077000Y-148971000D03*
X242697000Y-148971000D03*
X250317000Y-148971000D03*
X257937000Y-148971000D03*
X265557000Y-148971000D03*
X273177000Y-148971000D03*
X280797000Y-148971000D03*
X288417000Y-148971000D03*
X296037000Y-148971000D03*
X303657000Y-148971000D03*
X311277000Y-148971000D03*
X318897000Y-148971000D03*
X326517000Y-148971000D03*
X334137000Y-148971000D03*
X44577000Y-156591000D03*
X52197000Y-156591000D03*
X59817000Y-156591000D03*
X67437000Y-156591000D03*
X75057000Y-156591000D03*
X82677000Y-156591000D03*
X90297000Y-156591000D03*
X97917000Y-156591000D03*
X105537000Y-156591000D03*
X113157000Y-156591000D03*
X120777000Y-156591000D03*
X128397000Y-156591000D03*
X136017000Y-156591000D03*
X143637000Y-156591000D03*
X151257000Y-156591000D03*
X158877000Y-156591000D03*
X166497000Y-156591000D03*
X174117000Y-156591000D03*
X181737000Y-156591000D03*
X189357000Y-156591000D03*
X196977000Y-156591000D03*
X204597000Y-156591000D03*
X212217000Y-156591000D03*
X219837000Y-156591000D03*
X227457000Y-156591000D03*
X235077000Y-156591000D03*
X242697000Y-156591000D03*
X250317000Y-156591000D03*
X257937000Y-156591000D03*
X265557000Y-156591000D03*
X273177000Y-156591000D03*
X280797000Y-156591000D03*
X288417000Y-156591000D03*
X296037000Y-156591000D03*
X303657000Y-156591000D03*
X311277000Y-156591000D03*
X318897000Y-156591000D03*
X326517000Y-156591000D03*
X334137000Y-156591000D03*
X47244000Y-151892000D03*
X54864000Y-151892000D03*
X62484000Y-151892000D03*
X70104000Y-151892000D03*
X77724000Y-151892000D03*
X85344000Y-151892000D03*
X92964000Y-151892000D03*
X100584000Y-151892000D03*
X108204000Y-151892000D03*
X115824000Y-151892000D03*
X123444000Y-151892000D03*
X131064000Y-151892000D03*
X138684000Y-151892000D03*
X146304000Y-151892000D03*
X153924000Y-151892000D03*
X161544000Y-151892000D03*
X169164000Y-151892000D03*
X176784000Y-151892000D03*
X184404000Y-151892000D03*
X192024000Y-151892000D03*
X199644000Y-151892000D03*
X207264000Y-151892000D03*
X214884000Y-151892000D03*
X222504000Y-151892000D03*
X230124000Y-151892000D03*
X237744000Y-151892000D03*
X245364000Y-151892000D03*
X252984000Y-151892000D03*
X260604000Y-151892000D03*
X268224000Y-151892000D03*
X275844000Y-151892000D03*
X283464000Y-151892000D03*
X291084000Y-151892000D03*
X298704000Y-151892000D03*
X306324000Y-151892000D03*
X313944000Y-151892000D03*
X321564000Y-151892000D03*
X329184000Y-151892000D03*
X39624000Y-159512000D03*
X47244000Y-159512000D03*
X54864000Y-159512000D03*
X62484000Y-159512000D03*
X70104000Y-159512000D03*
X77724000Y-159512000D03*
X85344000Y-159512000D03*
X92964000Y-159512000D03*
X100584000Y-159512000D03*
X108204000Y-159512000D03*
X115824000Y-159512000D03*
X123444000Y-159512000D03*
X131064000Y-159512000D03*
X138684000Y-159512000D03*
X146304000Y-159512000D03*
X153924000Y-159512000D03*
X161544000Y-159512000D03*
X169164000Y-159512000D03*
X176784000Y-159512000D03*
X184404000Y-159512000D03*
X192024000Y-159512000D03*
X199644000Y-159512000D03*
X207264000Y-159512000D03*
X214884000Y-159512000D03*
X222504000Y-159512000D03*
X230124000Y-159512000D03*
X237744000Y-159512000D03*
X245364000Y-159512000D03*
X252984000Y-159512000D03*
X260604000Y-159512000D03*
X268224000Y-159512000D03*
X275844000Y-159512000D03*
X283464000Y-159512000D03*
X291084000Y-159512000D03*
X298704000Y-159512000D03*
X306324000Y-159512000D03*
X313944000Y-159512000D03*
X321564000Y-159512000D03*
X329184000Y-159512000D03*
X52197000Y-156591000D03*
X59817000Y-156591000D03*
X67437000Y-156591000D03*
X75057000Y-156591000D03*
X82677000Y-156591000D03*
X90297000Y-156591000D03*
X97917000Y-156591000D03*
X105537000Y-156591000D03*
X113157000Y-156591000D03*
X120777000Y-156591000D03*
X128397000Y-156591000D03*
X136017000Y-156591000D03*
X143637000Y-156591000D03*
X151257000Y-156591000D03*
X158877000Y-156591000D03*
X166497000Y-156591000D03*
X174117000Y-156591000D03*
X181737000Y-156591000D03*
X189357000Y-156591000D03*
X196977000Y-156591000D03*
X204597000Y-156591000D03*
X212217000Y-156591000D03*
X219837000Y-156591000D03*
X227457000Y-156591000D03*
X235077000Y-156591000D03*
X242697000Y-156591000D03*
X250317000Y-156591000D03*
X257937000Y-156591000D03*
X265557000Y-156591000D03*
X273177000Y-156591000D03*
X280797000Y-156591000D03*
X288417000Y-156591000D03*
X296037000Y-156591000D03*
X303657000Y-156591000D03*
X311277000Y-156591000D03*
X318897000Y-156591000D03*
X326517000Y-156591000D03*
X334137000Y-156591000D03*
X44577000Y-164211000D03*
X52197000Y-164211000D03*
X59817000Y-164211000D03*
X67437000Y-164211000D03*
X75057000Y-164211000D03*
X82677000Y-164211000D03*
X90297000Y-164211000D03*
X97917000Y-164211000D03*
X105537000Y-164211000D03*
X113157000Y-164211000D03*
X120777000Y-164211000D03*
X128397000Y-164211000D03*
X136017000Y-164211000D03*
X143637000Y-164211000D03*
X151257000Y-164211000D03*
X158877000Y-164211000D03*
X166497000Y-164211000D03*
X174117000Y-164211000D03*
X181737000Y-164211000D03*
X189357000Y-164211000D03*
X196977000Y-164211000D03*
X204597000Y-164211000D03*
X212217000Y-164211000D03*
X219837000Y-164211000D03*
X227457000Y-164211000D03*
X235077000Y-164211000D03*
X242697000Y-164211000D03*
X250317000Y-164211000D03*
X257937000Y-164211000D03*
X265557000Y-164211000D03*
X273177000Y-164211000D03*
X280797000Y-164211000D03*
X288417000Y-164211000D03*
X296037000Y-164211000D03*
X303657000Y-164211000D03*
X311277000Y-164211000D03*
X318897000Y-164211000D03*
X326517000Y-164211000D03*
X334137000Y-164211000D03*
X341757000Y-65151000D03*
X341757000Y-72771000D03*
X341757000Y-80391000D03*
X341757000Y-88011000D03*
X341757000Y-95631000D03*
X341757000Y-103251000D03*
X341757000Y-110871000D03*
X341757000Y-118491000D03*
X341757000Y-126111000D03*
X341757000Y-133731000D03*
X341757000Y-141351000D03*
X341757000Y-148971000D03*
X341757000Y-156591000D03*
X341757000Y-164211000D03*
%TO.N,/DATA_IN1*%
X44577000Y-54102000D03*
%TO.N,/DATA_IN2*%
X198755000Y-105283000D03*
%TD*%
D13*
%TO.N,/DATA_IN1*%
X41529000Y-54102000D02*
X44577000Y-54102000D01*
X38862000Y-56769000D02*
X41529000Y-54102000D01*
X38862000Y-174244000D02*
X38862000Y-56769000D01*
X44680000Y-180062000D02*
X38862000Y-174244000D01*
X54958000Y-180062000D02*
X44680000Y-180062000D01*
%TO.N,/DATA_IN2*%
X328606000Y-178943000D02*
X330106000Y-177443000D01*
X302768000Y-178943000D02*
X328606000Y-178943000D01*
X291719000Y-167894000D02*
X302768000Y-178943000D01*
X205105000Y-167894000D02*
X291719000Y-167894000D01*
X199161399Y-161950399D02*
X205105000Y-167894000D01*
X199161399Y-105689399D02*
X199161399Y-161950399D01*
X198755000Y-105283000D02*
X199161399Y-105689399D01*
%TD*%
%TO.N,GND*%
X343343864Y-51098338D02*
X343770813Y-51227241D01*
X344164599Y-51436620D01*
X344510220Y-51718501D01*
X344794501Y-52062139D01*
X345006626Y-52454455D01*
X345138509Y-52880497D01*
X345186385Y-53336008D01*
X345186401Y-53340601D01*
X345186400Y-195567594D01*
X345141662Y-196023863D01*
X345012759Y-196450813D01*
X344803377Y-196844602D01*
X344521497Y-197190222D01*
X344177861Y-197474501D01*
X343785546Y-197686626D01*
X343359498Y-197818509D01*
X342903993Y-197866385D01*
X342899685Y-197866400D01*
X317605045Y-197866400D01*
X310058544Y-190319899D01*
X330911400Y-190319899D01*
X330911400Y-190680101D01*
X330981672Y-191033383D01*
X331119516Y-191366167D01*
X331319633Y-191665665D01*
X331574335Y-191920367D01*
X331873833Y-192120484D01*
X332206617Y-192258328D01*
X332559899Y-192328600D01*
X332920101Y-192328600D01*
X333273383Y-192258328D01*
X333606167Y-192120484D01*
X333905665Y-191920367D01*
X334160367Y-191665665D01*
X334360484Y-191366167D01*
X334498328Y-191033383D01*
X334568600Y-190680101D01*
X334568600Y-190319899D01*
X334498328Y-189966617D01*
X334360484Y-189633833D01*
X334160367Y-189334335D01*
X333905665Y-189079633D01*
X333606167Y-188879516D01*
X333273383Y-188741672D01*
X332920101Y-188671400D01*
X332559899Y-188671400D01*
X332206617Y-188741672D01*
X331873833Y-188879516D01*
X331574335Y-189079633D01*
X331319633Y-189334335D01*
X331119516Y-189633833D01*
X330981672Y-189966617D01*
X330911400Y-190319899D01*
X310058544Y-190319899D01*
X303988070Y-184249425D01*
X329551022Y-184249425D01*
X329649880Y-184373287D01*
X329840134Y-184444397D01*
X330040605Y-184477023D01*
X330243590Y-184469913D01*
X330441287Y-184423338D01*
X330562120Y-184373287D01*
X330660978Y-184249425D01*
X330106000Y-183694447D01*
X329551022Y-184249425D01*
X303988070Y-184249425D01*
X303116250Y-183377605D01*
X329071977Y-183377605D01*
X329079087Y-183580590D01*
X329125662Y-183778287D01*
X329175713Y-183899120D01*
X329299575Y-183997978D01*
X329854553Y-183443000D01*
X330357447Y-183443000D01*
X330912425Y-183997978D01*
X331036287Y-183899120D01*
X331107397Y-183708866D01*
X331140023Y-183508395D01*
X331132913Y-183305410D01*
X331086338Y-183107713D01*
X331036287Y-182986880D01*
X330912425Y-182888022D01*
X330357447Y-183443000D01*
X329854553Y-183443000D01*
X329299575Y-182888022D01*
X329175713Y-182986880D01*
X329104603Y-183177134D01*
X329071977Y-183377605D01*
X303116250Y-183377605D01*
X300858930Y-181120285D01*
X324032400Y-181120285D01*
X324032400Y-181465715D01*
X324099790Y-181804506D01*
X324231980Y-182123641D01*
X324423890Y-182410855D01*
X324668145Y-182655110D01*
X324955359Y-182847020D01*
X325274494Y-182979210D01*
X325613285Y-183046600D01*
X325958715Y-183046600D01*
X326297506Y-182979210D01*
X326616641Y-182847020D01*
X326903855Y-182655110D01*
X326922390Y-182636575D01*
X329551022Y-182636575D01*
X330106000Y-183191553D01*
X330660978Y-182636575D01*
X330562120Y-182512713D01*
X330371866Y-182441603D01*
X330171395Y-182408977D01*
X329968410Y-182416087D01*
X329770713Y-182462662D01*
X329649880Y-182512713D01*
X329551022Y-182636575D01*
X326922390Y-182636575D01*
X327148110Y-182410855D01*
X327340020Y-182123641D01*
X327472210Y-181804506D01*
X327539600Y-181465715D01*
X327539600Y-181120285D01*
X327472210Y-180781494D01*
X327340020Y-180462359D01*
X327259229Y-180341446D01*
X329074900Y-180341446D01*
X329074900Y-180544554D01*
X329114525Y-180743761D01*
X329192251Y-180931409D01*
X329305092Y-181100288D01*
X329448712Y-181243908D01*
X329617591Y-181356749D01*
X329805239Y-181434475D01*
X330004446Y-181474100D01*
X330207554Y-181474100D01*
X330406761Y-181434475D01*
X330594409Y-181356749D01*
X330763288Y-181243908D01*
X330906908Y-181100288D01*
X331019749Y-180931409D01*
X331097475Y-180743761D01*
X331137100Y-180544554D01*
X331137100Y-180341446D01*
X331097475Y-180142239D01*
X331019749Y-179954591D01*
X330906908Y-179785712D01*
X330763288Y-179642092D01*
X330594409Y-179529251D01*
X330406761Y-179451525D01*
X330207554Y-179411900D01*
X330004446Y-179411900D01*
X329805239Y-179451525D01*
X329617591Y-179529251D01*
X329448712Y-179642092D01*
X329305092Y-179785712D01*
X329192251Y-179954591D01*
X329114525Y-180142239D01*
X329074900Y-180341446D01*
X327259229Y-180341446D01*
X327148110Y-180175145D01*
X326903855Y-179930890D01*
X326616641Y-179738980D01*
X326297506Y-179606790D01*
X325958715Y-179539400D01*
X325613285Y-179539400D01*
X325274494Y-179606790D01*
X324955359Y-179738980D01*
X324668145Y-179930890D01*
X324423890Y-180175145D01*
X324231980Y-180462359D01*
X324099790Y-180781494D01*
X324032400Y-181120285D01*
X300858930Y-181120285D01*
X289748134Y-170009490D01*
X289740190Y-169999810D01*
X289701574Y-169968119D01*
X289657518Y-169944571D01*
X289609714Y-169930069D01*
X289572459Y-169926400D01*
X289572456Y-169926400D01*
X289560000Y-169925173D01*
X289547544Y-169926400D01*
X91452456Y-169926400D01*
X91440000Y-169925173D01*
X91427543Y-169926400D01*
X91427541Y-169926400D01*
X91390286Y-169930069D01*
X91342482Y-169944571D01*
X91298425Y-169968119D01*
X91269487Y-169991868D01*
X91259810Y-169999810D01*
X91251870Y-170009485D01*
X63394956Y-197866400D01*
X40652406Y-197866400D01*
X40196137Y-197821662D01*
X39769187Y-197692759D01*
X39375398Y-197483377D01*
X39029778Y-197201497D01*
X38745499Y-196857861D01*
X38533374Y-196465546D01*
X38401491Y-196039498D01*
X38353615Y-195583993D01*
X38353600Y-195579685D01*
X38353600Y-190319899D01*
X48971400Y-190319899D01*
X48971400Y-190680101D01*
X49041672Y-191033383D01*
X49179516Y-191366167D01*
X49379633Y-191665665D01*
X49634335Y-191920367D01*
X49933833Y-192120484D01*
X50266617Y-192258328D01*
X50619899Y-192328600D01*
X50980101Y-192328600D01*
X51333383Y-192258328D01*
X51666167Y-192120484D01*
X51965665Y-191920367D01*
X52220367Y-191665665D01*
X52420484Y-191366167D01*
X52558328Y-191033383D01*
X52628600Y-190680101D01*
X52628600Y-190319899D01*
X52558328Y-189966617D01*
X52420484Y-189633833D01*
X52220367Y-189334335D01*
X51965665Y-189079633D01*
X51666167Y-188879516D01*
X51333383Y-188741672D01*
X50980101Y-188671400D01*
X50619899Y-188671400D01*
X50266617Y-188741672D01*
X49933833Y-188879516D01*
X49634335Y-189079633D01*
X49379633Y-189334335D01*
X49179516Y-189633833D01*
X49041672Y-189966617D01*
X48971400Y-190319899D01*
X38353600Y-190319899D01*
X38353600Y-182259500D01*
X53925794Y-182259500D01*
X53925794Y-183864500D01*
X53930208Y-183909313D01*
X53943279Y-183952405D01*
X53964506Y-183992118D01*
X53993073Y-184026927D01*
X54027882Y-184055494D01*
X54067595Y-184076721D01*
X54110687Y-184089792D01*
X54155500Y-184094206D01*
X55760500Y-184094206D01*
X55805313Y-184089792D01*
X55848405Y-184076721D01*
X55888118Y-184055494D01*
X55922927Y-184026927D01*
X55951494Y-183992118D01*
X55972721Y-183952405D01*
X55985792Y-183909313D01*
X55990206Y-183864500D01*
X55990206Y-182259500D01*
X55985792Y-182214687D01*
X55972721Y-182171595D01*
X55951494Y-182131882D01*
X55922927Y-182097073D01*
X55888118Y-182068506D01*
X55848405Y-182047279D01*
X55805313Y-182034208D01*
X55760500Y-182029794D01*
X54155500Y-182029794D01*
X54110687Y-182034208D01*
X54067595Y-182047279D01*
X54027882Y-182068506D01*
X53993073Y-182097073D01*
X53964506Y-182131882D01*
X53943279Y-182171595D01*
X53930208Y-182214687D01*
X53925794Y-182259500D01*
X38353600Y-182259500D01*
X38353600Y-56769000D01*
X38555727Y-56769000D01*
X38557201Y-56783968D01*
X38557200Y-174229042D01*
X38555727Y-174244000D01*
X38557200Y-174258958D01*
X38557200Y-174258965D01*
X38561055Y-174298110D01*
X38561611Y-174303751D01*
X38579040Y-174361205D01*
X38607342Y-174414156D01*
X38645432Y-174460568D01*
X38657061Y-174470112D01*
X44453897Y-180266950D01*
X44463432Y-180278568D01*
X44475050Y-180288103D01*
X44475056Y-180288109D01*
X44492955Y-180302798D01*
X44509843Y-180316658D01*
X44562794Y-180344960D01*
X44620249Y-180362389D01*
X44665034Y-180366800D01*
X44665042Y-180366800D01*
X44680000Y-180368273D01*
X44694958Y-180366800D01*
X53968198Y-180366800D01*
X54044251Y-180550409D01*
X54157092Y-180719288D01*
X54300712Y-180862908D01*
X54469591Y-180975749D01*
X54657239Y-181053475D01*
X54856446Y-181093100D01*
X55059554Y-181093100D01*
X55258761Y-181053475D01*
X55446409Y-180975749D01*
X55615288Y-180862908D01*
X55738911Y-180739285D01*
X57524400Y-180739285D01*
X57524400Y-181084715D01*
X57591790Y-181423506D01*
X57723980Y-181742641D01*
X57915890Y-182029855D01*
X58160145Y-182274110D01*
X58447359Y-182466020D01*
X58766494Y-182598210D01*
X59105285Y-182665600D01*
X59450715Y-182665600D01*
X59789506Y-182598210D01*
X60108641Y-182466020D01*
X60395855Y-182274110D01*
X60640110Y-182029855D01*
X60832020Y-181742641D01*
X60964210Y-181423506D01*
X61031600Y-181084715D01*
X61031600Y-180739285D01*
X60964210Y-180400494D01*
X60832020Y-180081359D01*
X60640110Y-179794145D01*
X60395855Y-179549890D01*
X60108641Y-179357980D01*
X59789506Y-179225790D01*
X59450715Y-179158400D01*
X59105285Y-179158400D01*
X58766494Y-179225790D01*
X58447359Y-179357980D01*
X58160145Y-179549890D01*
X57915890Y-179794145D01*
X57723980Y-180081359D01*
X57591790Y-180400494D01*
X57524400Y-180739285D01*
X55738911Y-180739285D01*
X55758908Y-180719288D01*
X55871749Y-180550409D01*
X55949475Y-180362761D01*
X55989100Y-180163554D01*
X55989100Y-179960446D01*
X55949475Y-179761239D01*
X55871749Y-179573591D01*
X55758908Y-179404712D01*
X55615288Y-179261092D01*
X55446409Y-179148251D01*
X55258761Y-179070525D01*
X55059554Y-179030900D01*
X54856446Y-179030900D01*
X54657239Y-179070525D01*
X54469591Y-179148251D01*
X54300712Y-179261092D01*
X54157092Y-179404712D01*
X54044251Y-179573591D01*
X53968198Y-179757200D01*
X44806253Y-179757200D01*
X42009499Y-176960446D01*
X53926900Y-176960446D01*
X53926900Y-177163554D01*
X53966525Y-177362761D01*
X54044251Y-177550409D01*
X54157092Y-177719288D01*
X54300712Y-177862908D01*
X54469591Y-177975749D01*
X54657239Y-178053475D01*
X54856446Y-178093100D01*
X55059554Y-178093100D01*
X55258761Y-178053475D01*
X55446409Y-177975749D01*
X55615288Y-177862908D01*
X55758908Y-177719288D01*
X55871749Y-177550409D01*
X55949475Y-177362761D01*
X55989100Y-177163554D01*
X55989100Y-176960446D01*
X55949475Y-176761239D01*
X55871749Y-176573591D01*
X55758908Y-176404712D01*
X55615288Y-176261092D01*
X55446409Y-176148251D01*
X55258761Y-176070525D01*
X55101708Y-176039285D01*
X57524400Y-176039285D01*
X57524400Y-176384715D01*
X57591790Y-176723506D01*
X57723980Y-177042641D01*
X57915890Y-177329855D01*
X58160145Y-177574110D01*
X58447359Y-177766020D01*
X58766494Y-177898210D01*
X59105285Y-177965600D01*
X59450715Y-177965600D01*
X59789506Y-177898210D01*
X60108641Y-177766020D01*
X60395855Y-177574110D01*
X60640110Y-177329855D01*
X60832020Y-177042641D01*
X60964210Y-176723506D01*
X61031600Y-176384715D01*
X61031600Y-176039285D01*
X60964210Y-175700494D01*
X60832020Y-175381359D01*
X60640110Y-175094145D01*
X60395855Y-174849890D01*
X60108641Y-174657980D01*
X59789506Y-174525790D01*
X59450715Y-174458400D01*
X59105285Y-174458400D01*
X58766494Y-174525790D01*
X58447359Y-174657980D01*
X58160145Y-174849890D01*
X57915890Y-175094145D01*
X57723980Y-175381359D01*
X57591790Y-175700494D01*
X57524400Y-176039285D01*
X55101708Y-176039285D01*
X55059554Y-176030900D01*
X54856446Y-176030900D01*
X54657239Y-176070525D01*
X54469591Y-176148251D01*
X54300712Y-176261092D01*
X54157092Y-176404712D01*
X54044251Y-176573591D01*
X53966525Y-176761239D01*
X53926900Y-176960446D01*
X42009499Y-176960446D01*
X39917477Y-174868425D01*
X54403022Y-174868425D01*
X54501880Y-174992287D01*
X54692134Y-175063397D01*
X54892605Y-175096023D01*
X55095590Y-175088913D01*
X55293287Y-175042338D01*
X55414120Y-174992287D01*
X55512978Y-174868425D01*
X54958000Y-174313447D01*
X54403022Y-174868425D01*
X39917477Y-174868425D01*
X39166800Y-174117749D01*
X39166800Y-173996605D01*
X53923977Y-173996605D01*
X53931087Y-174199590D01*
X53977662Y-174397287D01*
X54027713Y-174518120D01*
X54151575Y-174616978D01*
X54706553Y-174062000D01*
X55209447Y-174062000D01*
X55764425Y-174616978D01*
X55888287Y-174518120D01*
X55959397Y-174327866D01*
X55992023Y-174127395D01*
X55984913Y-173924410D01*
X55938338Y-173726713D01*
X55888287Y-173605880D01*
X55764425Y-173507022D01*
X55209447Y-174062000D01*
X54706553Y-174062000D01*
X54151575Y-173507022D01*
X54027713Y-173605880D01*
X53956603Y-173796134D01*
X53923977Y-173996605D01*
X39166800Y-173996605D01*
X39166800Y-173255575D01*
X54403022Y-173255575D01*
X54958000Y-173810553D01*
X55512978Y-173255575D01*
X55414120Y-173131713D01*
X55223866Y-173060603D01*
X55023395Y-173027977D01*
X54820410Y-173035087D01*
X54622713Y-173081662D01*
X54501880Y-173131713D01*
X54403022Y-173255575D01*
X39166800Y-173255575D01*
X39166800Y-105235468D01*
X198272400Y-105235468D01*
X198272400Y-105330532D01*
X198290946Y-105423769D01*
X198327326Y-105511597D01*
X198380140Y-105590640D01*
X198447360Y-105657860D01*
X198526403Y-105710674D01*
X198614231Y-105747054D01*
X198707468Y-105765600D01*
X198802532Y-105765600D01*
X198805882Y-105764934D01*
X198856599Y-105815651D01*
X198856600Y-161935431D01*
X198855126Y-161950399D01*
X198861010Y-162010150D01*
X198878439Y-162067604D01*
X198878440Y-162067605D01*
X198906742Y-162120556D01*
X198944832Y-162166967D01*
X198956456Y-162176507D01*
X204878891Y-168098943D01*
X204888432Y-168110568D01*
X204934843Y-168148658D01*
X204987794Y-168176960D01*
X205031876Y-168190332D01*
X205045248Y-168194389D01*
X205050889Y-168194945D01*
X205090034Y-168198800D01*
X205090041Y-168198800D01*
X205104999Y-168200273D01*
X205119957Y-168198800D01*
X291592749Y-168198800D01*
X302541892Y-179147944D01*
X302551432Y-179159568D01*
X302597843Y-179197658D01*
X302650794Y-179225960D01*
X302708249Y-179243389D01*
X302753034Y-179247800D01*
X302753042Y-179247800D01*
X302768000Y-179249273D01*
X302782958Y-179247800D01*
X328591042Y-179247800D01*
X328606000Y-179249273D01*
X328620958Y-179247800D01*
X328620966Y-179247800D01*
X328665751Y-179243389D01*
X328723206Y-179225960D01*
X328776157Y-179197658D01*
X328822568Y-179159568D01*
X328832112Y-179147939D01*
X329621630Y-178358422D01*
X329805239Y-178434475D01*
X330004446Y-178474100D01*
X330207554Y-178474100D01*
X330406761Y-178434475D01*
X330594409Y-178356749D01*
X330763288Y-178243908D01*
X330906908Y-178100288D01*
X331019749Y-177931409D01*
X331097475Y-177743761D01*
X331137100Y-177544554D01*
X331137100Y-177341446D01*
X331097475Y-177142239D01*
X331019749Y-176954591D01*
X330906908Y-176785712D01*
X330763288Y-176642092D01*
X330594409Y-176529251D01*
X330406761Y-176451525D01*
X330207554Y-176411900D01*
X330004446Y-176411900D01*
X329805239Y-176451525D01*
X329617591Y-176529251D01*
X329448712Y-176642092D01*
X329305092Y-176785712D01*
X329192251Y-176954591D01*
X329114525Y-177142239D01*
X329074900Y-177341446D01*
X329074900Y-177544554D01*
X329114525Y-177743761D01*
X329190578Y-177927370D01*
X328479749Y-178638200D01*
X302894252Y-178638200D01*
X300676337Y-176420285D01*
X324032400Y-176420285D01*
X324032400Y-176765715D01*
X324099790Y-177104506D01*
X324231980Y-177423641D01*
X324423890Y-177710855D01*
X324668145Y-177955110D01*
X324955359Y-178147020D01*
X325274494Y-178279210D01*
X325613285Y-178346600D01*
X325958715Y-178346600D01*
X326297506Y-178279210D01*
X326616641Y-178147020D01*
X326903855Y-177955110D01*
X327148110Y-177710855D01*
X327340020Y-177423641D01*
X327472210Y-177104506D01*
X327539600Y-176765715D01*
X327539600Y-176420285D01*
X327472210Y-176081494D01*
X327340020Y-175762359D01*
X327148110Y-175475145D01*
X326903855Y-175230890D01*
X326616641Y-175038980D01*
X326297506Y-174906790D01*
X325958715Y-174839400D01*
X325613285Y-174839400D01*
X325274494Y-174906790D01*
X324955359Y-175038980D01*
X324668145Y-175230890D01*
X324423890Y-175475145D01*
X324231980Y-175762359D01*
X324099790Y-176081494D01*
X324032400Y-176420285D01*
X300676337Y-176420285D01*
X297896552Y-173640500D01*
X329073794Y-173640500D01*
X329073794Y-175245500D01*
X329078208Y-175290313D01*
X329091279Y-175333405D01*
X329112506Y-175373118D01*
X329141073Y-175407927D01*
X329175882Y-175436494D01*
X329215595Y-175457721D01*
X329258687Y-175470792D01*
X329303500Y-175475206D01*
X330908500Y-175475206D01*
X330953313Y-175470792D01*
X330996405Y-175457721D01*
X331036118Y-175436494D01*
X331070927Y-175407927D01*
X331099494Y-175373118D01*
X331120721Y-175333405D01*
X331133792Y-175290313D01*
X331138206Y-175245500D01*
X331138206Y-173640500D01*
X331133792Y-173595687D01*
X331120721Y-173552595D01*
X331099494Y-173512882D01*
X331070927Y-173478073D01*
X331036118Y-173449506D01*
X330996405Y-173428279D01*
X330953313Y-173415208D01*
X330908500Y-173410794D01*
X329303500Y-173410794D01*
X329258687Y-173415208D01*
X329215595Y-173428279D01*
X329175882Y-173449506D01*
X329141073Y-173478073D01*
X329112506Y-173512882D01*
X329091279Y-173552595D01*
X329078208Y-173595687D01*
X329073794Y-173640500D01*
X297896552Y-173640500D01*
X291945112Y-167689061D01*
X291935568Y-167677432D01*
X291889157Y-167639342D01*
X291836206Y-167611040D01*
X291778751Y-167593611D01*
X291733966Y-167589200D01*
X291733958Y-167589200D01*
X291719000Y-167587727D01*
X291704042Y-167589200D01*
X205231252Y-167589200D01*
X199466199Y-161824148D01*
X199466199Y-105704357D01*
X199467672Y-105689399D01*
X199466199Y-105674441D01*
X199466199Y-105674433D01*
X199461788Y-105629648D01*
X199444359Y-105572193D01*
X199416057Y-105519242D01*
X199377967Y-105472831D01*
X199366344Y-105463292D01*
X199236934Y-105333882D01*
X199237600Y-105330532D01*
X199237600Y-105235468D01*
X199219054Y-105142231D01*
X199182674Y-105054403D01*
X199129860Y-104975360D01*
X199062640Y-104908140D01*
X198983597Y-104855326D01*
X198895769Y-104818946D01*
X198802532Y-104800400D01*
X198707468Y-104800400D01*
X198614231Y-104818946D01*
X198526403Y-104855326D01*
X198447360Y-104908140D01*
X198380140Y-104975360D01*
X198327326Y-105054403D01*
X198290946Y-105142231D01*
X198272400Y-105235468D01*
X39166800Y-105235468D01*
X39166800Y-56895251D01*
X41655253Y-54406800D01*
X44200242Y-54406800D01*
X44202140Y-54409640D01*
X44269360Y-54476860D01*
X44348403Y-54529674D01*
X44436231Y-54566054D01*
X44529468Y-54584600D01*
X44624532Y-54584600D01*
X44717769Y-54566054D01*
X44805597Y-54529674D01*
X44884640Y-54476860D01*
X44951860Y-54409640D01*
X45004674Y-54330597D01*
X45041054Y-54242769D01*
X45059600Y-54149532D01*
X45059600Y-54054468D01*
X45041054Y-53961231D01*
X45004674Y-53873403D01*
X44951860Y-53794360D01*
X44884640Y-53727140D01*
X44805597Y-53674326D01*
X44717769Y-53637946D01*
X44624532Y-53619400D01*
X44529468Y-53619400D01*
X44436231Y-53637946D01*
X44348403Y-53674326D01*
X44269360Y-53727140D01*
X44202140Y-53794360D01*
X44200242Y-53797200D01*
X41543958Y-53797200D01*
X41529000Y-53795727D01*
X41514042Y-53797200D01*
X41514034Y-53797200D01*
X41469249Y-53801611D01*
X41411794Y-53819040D01*
X41358843Y-53847342D01*
X41341955Y-53861202D01*
X41324056Y-53875891D01*
X41324050Y-53875897D01*
X41312432Y-53885432D01*
X41302897Y-53897050D01*
X38657057Y-56542892D01*
X38645433Y-56552432D01*
X38607343Y-56598843D01*
X38592215Y-56627146D01*
X38579040Y-56651795D01*
X38561611Y-56709249D01*
X38555727Y-56769000D01*
X38353600Y-56769000D01*
X38353600Y-53352406D01*
X38398338Y-52896136D01*
X38527241Y-52469187D01*
X38736620Y-52075401D01*
X39018501Y-51729780D01*
X39362139Y-51445499D01*
X39754455Y-51233374D01*
X40180497Y-51101491D01*
X40636008Y-51053615D01*
X40640315Y-51053600D01*
X342887594Y-51053600D01*
X343343864Y-51098338D01*
%TA.AperFunction,Conductor*%
D14*
G36*
X343343864Y-51098338D02*
G01*
X343770813Y-51227241D01*
X344164599Y-51436620D01*
X344510220Y-51718501D01*
X344794501Y-52062139D01*
X345006626Y-52454455D01*
X345138509Y-52880497D01*
X345186385Y-53336008D01*
X345186401Y-53340601D01*
X345186400Y-195567594D01*
X345141662Y-196023863D01*
X345012759Y-196450813D01*
X344803377Y-196844602D01*
X344521497Y-197190222D01*
X344177861Y-197474501D01*
X343785546Y-197686626D01*
X343359498Y-197818509D01*
X342903993Y-197866385D01*
X342899685Y-197866400D01*
X317605045Y-197866400D01*
X310058544Y-190319899D01*
X330911400Y-190319899D01*
X330911400Y-190680101D01*
X330981672Y-191033383D01*
X331119516Y-191366167D01*
X331319633Y-191665665D01*
X331574335Y-191920367D01*
X331873833Y-192120484D01*
X332206617Y-192258328D01*
X332559899Y-192328600D01*
X332920101Y-192328600D01*
X333273383Y-192258328D01*
X333606167Y-192120484D01*
X333905665Y-191920367D01*
X334160367Y-191665665D01*
X334360484Y-191366167D01*
X334498328Y-191033383D01*
X334568600Y-190680101D01*
X334568600Y-190319899D01*
X334498328Y-189966617D01*
X334360484Y-189633833D01*
X334160367Y-189334335D01*
X333905665Y-189079633D01*
X333606167Y-188879516D01*
X333273383Y-188741672D01*
X332920101Y-188671400D01*
X332559899Y-188671400D01*
X332206617Y-188741672D01*
X331873833Y-188879516D01*
X331574335Y-189079633D01*
X331319633Y-189334335D01*
X331119516Y-189633833D01*
X330981672Y-189966617D01*
X330911400Y-190319899D01*
X310058544Y-190319899D01*
X303988070Y-184249425D01*
X329551022Y-184249425D01*
X329649880Y-184373287D01*
X329840134Y-184444397D01*
X330040605Y-184477023D01*
X330243590Y-184469913D01*
X330441287Y-184423338D01*
X330562120Y-184373287D01*
X330660978Y-184249425D01*
X330106000Y-183694447D01*
X329551022Y-184249425D01*
X303988070Y-184249425D01*
X303116250Y-183377605D01*
X329071977Y-183377605D01*
X329079087Y-183580590D01*
X329125662Y-183778287D01*
X329175713Y-183899120D01*
X329299575Y-183997978D01*
X329854553Y-183443000D01*
X330357447Y-183443000D01*
X330912425Y-183997978D01*
X331036287Y-183899120D01*
X331107397Y-183708866D01*
X331140023Y-183508395D01*
X331132913Y-183305410D01*
X331086338Y-183107713D01*
X331036287Y-182986880D01*
X330912425Y-182888022D01*
X330357447Y-183443000D01*
X329854553Y-183443000D01*
X329299575Y-182888022D01*
X329175713Y-182986880D01*
X329104603Y-183177134D01*
X329071977Y-183377605D01*
X303116250Y-183377605D01*
X300858930Y-181120285D01*
X324032400Y-181120285D01*
X324032400Y-181465715D01*
X324099790Y-181804506D01*
X324231980Y-182123641D01*
X324423890Y-182410855D01*
X324668145Y-182655110D01*
X324955359Y-182847020D01*
X325274494Y-182979210D01*
X325613285Y-183046600D01*
X325958715Y-183046600D01*
X326297506Y-182979210D01*
X326616641Y-182847020D01*
X326903855Y-182655110D01*
X326922390Y-182636575D01*
X329551022Y-182636575D01*
X330106000Y-183191553D01*
X330660978Y-182636575D01*
X330562120Y-182512713D01*
X330371866Y-182441603D01*
X330171395Y-182408977D01*
X329968410Y-182416087D01*
X329770713Y-182462662D01*
X329649880Y-182512713D01*
X329551022Y-182636575D01*
X326922390Y-182636575D01*
X327148110Y-182410855D01*
X327340020Y-182123641D01*
X327472210Y-181804506D01*
X327539600Y-181465715D01*
X327539600Y-181120285D01*
X327472210Y-180781494D01*
X327340020Y-180462359D01*
X327259229Y-180341446D01*
X329074900Y-180341446D01*
X329074900Y-180544554D01*
X329114525Y-180743761D01*
X329192251Y-180931409D01*
X329305092Y-181100288D01*
X329448712Y-181243908D01*
X329617591Y-181356749D01*
X329805239Y-181434475D01*
X330004446Y-181474100D01*
X330207554Y-181474100D01*
X330406761Y-181434475D01*
X330594409Y-181356749D01*
X330763288Y-181243908D01*
X330906908Y-181100288D01*
X331019749Y-180931409D01*
X331097475Y-180743761D01*
X331137100Y-180544554D01*
X331137100Y-180341446D01*
X331097475Y-180142239D01*
X331019749Y-179954591D01*
X330906908Y-179785712D01*
X330763288Y-179642092D01*
X330594409Y-179529251D01*
X330406761Y-179451525D01*
X330207554Y-179411900D01*
X330004446Y-179411900D01*
X329805239Y-179451525D01*
X329617591Y-179529251D01*
X329448712Y-179642092D01*
X329305092Y-179785712D01*
X329192251Y-179954591D01*
X329114525Y-180142239D01*
X329074900Y-180341446D01*
X327259229Y-180341446D01*
X327148110Y-180175145D01*
X326903855Y-179930890D01*
X326616641Y-179738980D01*
X326297506Y-179606790D01*
X325958715Y-179539400D01*
X325613285Y-179539400D01*
X325274494Y-179606790D01*
X324955359Y-179738980D01*
X324668145Y-179930890D01*
X324423890Y-180175145D01*
X324231980Y-180462359D01*
X324099790Y-180781494D01*
X324032400Y-181120285D01*
X300858930Y-181120285D01*
X289748134Y-170009490D01*
X289740190Y-169999810D01*
X289701574Y-169968119D01*
X289657518Y-169944571D01*
X289609714Y-169930069D01*
X289572459Y-169926400D01*
X289572456Y-169926400D01*
X289560000Y-169925173D01*
X289547544Y-169926400D01*
X91452456Y-169926400D01*
X91440000Y-169925173D01*
X91427543Y-169926400D01*
X91427541Y-169926400D01*
X91390286Y-169930069D01*
X91342482Y-169944571D01*
X91298425Y-169968119D01*
X91269487Y-169991868D01*
X91259810Y-169999810D01*
X91251870Y-170009485D01*
X63394956Y-197866400D01*
X40652406Y-197866400D01*
X40196137Y-197821662D01*
X39769187Y-197692759D01*
X39375398Y-197483377D01*
X39029778Y-197201497D01*
X38745499Y-196857861D01*
X38533374Y-196465546D01*
X38401491Y-196039498D01*
X38353615Y-195583993D01*
X38353600Y-195579685D01*
X38353600Y-190319899D01*
X48971400Y-190319899D01*
X48971400Y-190680101D01*
X49041672Y-191033383D01*
X49179516Y-191366167D01*
X49379633Y-191665665D01*
X49634335Y-191920367D01*
X49933833Y-192120484D01*
X50266617Y-192258328D01*
X50619899Y-192328600D01*
X50980101Y-192328600D01*
X51333383Y-192258328D01*
X51666167Y-192120484D01*
X51965665Y-191920367D01*
X52220367Y-191665665D01*
X52420484Y-191366167D01*
X52558328Y-191033383D01*
X52628600Y-190680101D01*
X52628600Y-190319899D01*
X52558328Y-189966617D01*
X52420484Y-189633833D01*
X52220367Y-189334335D01*
X51965665Y-189079633D01*
X51666167Y-188879516D01*
X51333383Y-188741672D01*
X50980101Y-188671400D01*
X50619899Y-188671400D01*
X50266617Y-188741672D01*
X49933833Y-188879516D01*
X49634335Y-189079633D01*
X49379633Y-189334335D01*
X49179516Y-189633833D01*
X49041672Y-189966617D01*
X48971400Y-190319899D01*
X38353600Y-190319899D01*
X38353600Y-182259500D01*
X53925794Y-182259500D01*
X53925794Y-183864500D01*
X53930208Y-183909313D01*
X53943279Y-183952405D01*
X53964506Y-183992118D01*
X53993073Y-184026927D01*
X54027882Y-184055494D01*
X54067595Y-184076721D01*
X54110687Y-184089792D01*
X54155500Y-184094206D01*
X55760500Y-184094206D01*
X55805313Y-184089792D01*
X55848405Y-184076721D01*
X55888118Y-184055494D01*
X55922927Y-184026927D01*
X55951494Y-183992118D01*
X55972721Y-183952405D01*
X55985792Y-183909313D01*
X55990206Y-183864500D01*
X55990206Y-182259500D01*
X55985792Y-182214687D01*
X55972721Y-182171595D01*
X55951494Y-182131882D01*
X55922927Y-182097073D01*
X55888118Y-182068506D01*
X55848405Y-182047279D01*
X55805313Y-182034208D01*
X55760500Y-182029794D01*
X54155500Y-182029794D01*
X54110687Y-182034208D01*
X54067595Y-182047279D01*
X54027882Y-182068506D01*
X53993073Y-182097073D01*
X53964506Y-182131882D01*
X53943279Y-182171595D01*
X53930208Y-182214687D01*
X53925794Y-182259500D01*
X38353600Y-182259500D01*
X38353600Y-56769000D01*
X38555727Y-56769000D01*
X38557201Y-56783968D01*
X38557200Y-174229042D01*
X38555727Y-174244000D01*
X38557200Y-174258958D01*
X38557200Y-174258965D01*
X38561055Y-174298110D01*
X38561611Y-174303751D01*
X38579040Y-174361205D01*
X38607342Y-174414156D01*
X38645432Y-174460568D01*
X38657061Y-174470112D01*
X44453897Y-180266950D01*
X44463432Y-180278568D01*
X44475050Y-180288103D01*
X44475056Y-180288109D01*
X44492955Y-180302798D01*
X44509843Y-180316658D01*
X44562794Y-180344960D01*
X44620249Y-180362389D01*
X44665034Y-180366800D01*
X44665042Y-180366800D01*
X44680000Y-180368273D01*
X44694958Y-180366800D01*
X53968198Y-180366800D01*
X54044251Y-180550409D01*
X54157092Y-180719288D01*
X54300712Y-180862908D01*
X54469591Y-180975749D01*
X54657239Y-181053475D01*
X54856446Y-181093100D01*
X55059554Y-181093100D01*
X55258761Y-181053475D01*
X55446409Y-180975749D01*
X55615288Y-180862908D01*
X55738911Y-180739285D01*
X57524400Y-180739285D01*
X57524400Y-181084715D01*
X57591790Y-181423506D01*
X57723980Y-181742641D01*
X57915890Y-182029855D01*
X58160145Y-182274110D01*
X58447359Y-182466020D01*
X58766494Y-182598210D01*
X59105285Y-182665600D01*
X59450715Y-182665600D01*
X59789506Y-182598210D01*
X60108641Y-182466020D01*
X60395855Y-182274110D01*
X60640110Y-182029855D01*
X60832020Y-181742641D01*
X60964210Y-181423506D01*
X61031600Y-181084715D01*
X61031600Y-180739285D01*
X60964210Y-180400494D01*
X60832020Y-180081359D01*
X60640110Y-179794145D01*
X60395855Y-179549890D01*
X60108641Y-179357980D01*
X59789506Y-179225790D01*
X59450715Y-179158400D01*
X59105285Y-179158400D01*
X58766494Y-179225790D01*
X58447359Y-179357980D01*
X58160145Y-179549890D01*
X57915890Y-179794145D01*
X57723980Y-180081359D01*
X57591790Y-180400494D01*
X57524400Y-180739285D01*
X55738911Y-180739285D01*
X55758908Y-180719288D01*
X55871749Y-180550409D01*
X55949475Y-180362761D01*
X55989100Y-180163554D01*
X55989100Y-179960446D01*
X55949475Y-179761239D01*
X55871749Y-179573591D01*
X55758908Y-179404712D01*
X55615288Y-179261092D01*
X55446409Y-179148251D01*
X55258761Y-179070525D01*
X55059554Y-179030900D01*
X54856446Y-179030900D01*
X54657239Y-179070525D01*
X54469591Y-179148251D01*
X54300712Y-179261092D01*
X54157092Y-179404712D01*
X54044251Y-179573591D01*
X53968198Y-179757200D01*
X44806253Y-179757200D01*
X42009499Y-176960446D01*
X53926900Y-176960446D01*
X53926900Y-177163554D01*
X53966525Y-177362761D01*
X54044251Y-177550409D01*
X54157092Y-177719288D01*
X54300712Y-177862908D01*
X54469591Y-177975749D01*
X54657239Y-178053475D01*
X54856446Y-178093100D01*
X55059554Y-178093100D01*
X55258761Y-178053475D01*
X55446409Y-177975749D01*
X55615288Y-177862908D01*
X55758908Y-177719288D01*
X55871749Y-177550409D01*
X55949475Y-177362761D01*
X55989100Y-177163554D01*
X55989100Y-176960446D01*
X55949475Y-176761239D01*
X55871749Y-176573591D01*
X55758908Y-176404712D01*
X55615288Y-176261092D01*
X55446409Y-176148251D01*
X55258761Y-176070525D01*
X55101708Y-176039285D01*
X57524400Y-176039285D01*
X57524400Y-176384715D01*
X57591790Y-176723506D01*
X57723980Y-177042641D01*
X57915890Y-177329855D01*
X58160145Y-177574110D01*
X58447359Y-177766020D01*
X58766494Y-177898210D01*
X59105285Y-177965600D01*
X59450715Y-177965600D01*
X59789506Y-177898210D01*
X60108641Y-177766020D01*
X60395855Y-177574110D01*
X60640110Y-177329855D01*
X60832020Y-177042641D01*
X60964210Y-176723506D01*
X61031600Y-176384715D01*
X61031600Y-176039285D01*
X60964210Y-175700494D01*
X60832020Y-175381359D01*
X60640110Y-175094145D01*
X60395855Y-174849890D01*
X60108641Y-174657980D01*
X59789506Y-174525790D01*
X59450715Y-174458400D01*
X59105285Y-174458400D01*
X58766494Y-174525790D01*
X58447359Y-174657980D01*
X58160145Y-174849890D01*
X57915890Y-175094145D01*
X57723980Y-175381359D01*
X57591790Y-175700494D01*
X57524400Y-176039285D01*
X55101708Y-176039285D01*
X55059554Y-176030900D01*
X54856446Y-176030900D01*
X54657239Y-176070525D01*
X54469591Y-176148251D01*
X54300712Y-176261092D01*
X54157092Y-176404712D01*
X54044251Y-176573591D01*
X53966525Y-176761239D01*
X53926900Y-176960446D01*
X42009499Y-176960446D01*
X39917477Y-174868425D01*
X54403022Y-174868425D01*
X54501880Y-174992287D01*
X54692134Y-175063397D01*
X54892605Y-175096023D01*
X55095590Y-175088913D01*
X55293287Y-175042338D01*
X55414120Y-174992287D01*
X55512978Y-174868425D01*
X54958000Y-174313447D01*
X54403022Y-174868425D01*
X39917477Y-174868425D01*
X39166800Y-174117749D01*
X39166800Y-173996605D01*
X53923977Y-173996605D01*
X53931087Y-174199590D01*
X53977662Y-174397287D01*
X54027713Y-174518120D01*
X54151575Y-174616978D01*
X54706553Y-174062000D01*
X55209447Y-174062000D01*
X55764425Y-174616978D01*
X55888287Y-174518120D01*
X55959397Y-174327866D01*
X55992023Y-174127395D01*
X55984913Y-173924410D01*
X55938338Y-173726713D01*
X55888287Y-173605880D01*
X55764425Y-173507022D01*
X55209447Y-174062000D01*
X54706553Y-174062000D01*
X54151575Y-173507022D01*
X54027713Y-173605880D01*
X53956603Y-173796134D01*
X53923977Y-173996605D01*
X39166800Y-173996605D01*
X39166800Y-173255575D01*
X54403022Y-173255575D01*
X54958000Y-173810553D01*
X55512978Y-173255575D01*
X55414120Y-173131713D01*
X55223866Y-173060603D01*
X55023395Y-173027977D01*
X54820410Y-173035087D01*
X54622713Y-173081662D01*
X54501880Y-173131713D01*
X54403022Y-173255575D01*
X39166800Y-173255575D01*
X39166800Y-105235468D01*
X198272400Y-105235468D01*
X198272400Y-105330532D01*
X198290946Y-105423769D01*
X198327326Y-105511597D01*
X198380140Y-105590640D01*
X198447360Y-105657860D01*
X198526403Y-105710674D01*
X198614231Y-105747054D01*
X198707468Y-105765600D01*
X198802532Y-105765600D01*
X198805882Y-105764934D01*
X198856599Y-105815651D01*
X198856600Y-161935431D01*
X198855126Y-161950399D01*
X198861010Y-162010150D01*
X198878439Y-162067604D01*
X198878440Y-162067605D01*
X198906742Y-162120556D01*
X198944832Y-162166967D01*
X198956456Y-162176507D01*
X204878891Y-168098943D01*
X204888432Y-168110568D01*
X204934843Y-168148658D01*
X204987794Y-168176960D01*
X205031876Y-168190332D01*
X205045248Y-168194389D01*
X205050889Y-168194945D01*
X205090034Y-168198800D01*
X205090041Y-168198800D01*
X205104999Y-168200273D01*
X205119957Y-168198800D01*
X291592749Y-168198800D01*
X302541892Y-179147944D01*
X302551432Y-179159568D01*
X302597843Y-179197658D01*
X302650794Y-179225960D01*
X302708249Y-179243389D01*
X302753034Y-179247800D01*
X302753042Y-179247800D01*
X302768000Y-179249273D01*
X302782958Y-179247800D01*
X328591042Y-179247800D01*
X328606000Y-179249273D01*
X328620958Y-179247800D01*
X328620966Y-179247800D01*
X328665751Y-179243389D01*
X328723206Y-179225960D01*
X328776157Y-179197658D01*
X328822568Y-179159568D01*
X328832112Y-179147939D01*
X329621630Y-178358422D01*
X329805239Y-178434475D01*
X330004446Y-178474100D01*
X330207554Y-178474100D01*
X330406761Y-178434475D01*
X330594409Y-178356749D01*
X330763288Y-178243908D01*
X330906908Y-178100288D01*
X331019749Y-177931409D01*
X331097475Y-177743761D01*
X331137100Y-177544554D01*
X331137100Y-177341446D01*
X331097475Y-177142239D01*
X331019749Y-176954591D01*
X330906908Y-176785712D01*
X330763288Y-176642092D01*
X330594409Y-176529251D01*
X330406761Y-176451525D01*
X330207554Y-176411900D01*
X330004446Y-176411900D01*
X329805239Y-176451525D01*
X329617591Y-176529251D01*
X329448712Y-176642092D01*
X329305092Y-176785712D01*
X329192251Y-176954591D01*
X329114525Y-177142239D01*
X329074900Y-177341446D01*
X329074900Y-177544554D01*
X329114525Y-177743761D01*
X329190578Y-177927370D01*
X328479749Y-178638200D01*
X302894252Y-178638200D01*
X300676337Y-176420285D01*
X324032400Y-176420285D01*
X324032400Y-176765715D01*
X324099790Y-177104506D01*
X324231980Y-177423641D01*
X324423890Y-177710855D01*
X324668145Y-177955110D01*
X324955359Y-178147020D01*
X325274494Y-178279210D01*
X325613285Y-178346600D01*
X325958715Y-178346600D01*
X326297506Y-178279210D01*
X326616641Y-178147020D01*
X326903855Y-177955110D01*
X327148110Y-177710855D01*
X327340020Y-177423641D01*
X327472210Y-177104506D01*
X327539600Y-176765715D01*
X327539600Y-176420285D01*
X327472210Y-176081494D01*
X327340020Y-175762359D01*
X327148110Y-175475145D01*
X326903855Y-175230890D01*
X326616641Y-175038980D01*
X326297506Y-174906790D01*
X325958715Y-174839400D01*
X325613285Y-174839400D01*
X325274494Y-174906790D01*
X324955359Y-175038980D01*
X324668145Y-175230890D01*
X324423890Y-175475145D01*
X324231980Y-175762359D01*
X324099790Y-176081494D01*
X324032400Y-176420285D01*
X300676337Y-176420285D01*
X297896552Y-173640500D01*
X329073794Y-173640500D01*
X329073794Y-175245500D01*
X329078208Y-175290313D01*
X329091279Y-175333405D01*
X329112506Y-175373118D01*
X329141073Y-175407927D01*
X329175882Y-175436494D01*
X329215595Y-175457721D01*
X329258687Y-175470792D01*
X329303500Y-175475206D01*
X330908500Y-175475206D01*
X330953313Y-175470792D01*
X330996405Y-175457721D01*
X331036118Y-175436494D01*
X331070927Y-175407927D01*
X331099494Y-175373118D01*
X331120721Y-175333405D01*
X331133792Y-175290313D01*
X331138206Y-175245500D01*
X331138206Y-173640500D01*
X331133792Y-173595687D01*
X331120721Y-173552595D01*
X331099494Y-173512882D01*
X331070927Y-173478073D01*
X331036118Y-173449506D01*
X330996405Y-173428279D01*
X330953313Y-173415208D01*
X330908500Y-173410794D01*
X329303500Y-173410794D01*
X329258687Y-173415208D01*
X329215595Y-173428279D01*
X329175882Y-173449506D01*
X329141073Y-173478073D01*
X329112506Y-173512882D01*
X329091279Y-173552595D01*
X329078208Y-173595687D01*
X329073794Y-173640500D01*
X297896552Y-173640500D01*
X291945112Y-167689061D01*
X291935568Y-167677432D01*
X291889157Y-167639342D01*
X291836206Y-167611040D01*
X291778751Y-167593611D01*
X291733966Y-167589200D01*
X291733958Y-167589200D01*
X291719000Y-167587727D01*
X291704042Y-167589200D01*
X205231252Y-167589200D01*
X199466199Y-161824148D01*
X199466199Y-105704357D01*
X199467672Y-105689399D01*
X199466199Y-105674441D01*
X199466199Y-105674433D01*
X199461788Y-105629648D01*
X199444359Y-105572193D01*
X199416057Y-105519242D01*
X199377967Y-105472831D01*
X199366344Y-105463292D01*
X199236934Y-105333882D01*
X199237600Y-105330532D01*
X199237600Y-105235468D01*
X199219054Y-105142231D01*
X199182674Y-105054403D01*
X199129860Y-104975360D01*
X199062640Y-104908140D01*
X198983597Y-104855326D01*
X198895769Y-104818946D01*
X198802532Y-104800400D01*
X198707468Y-104800400D01*
X198614231Y-104818946D01*
X198526403Y-104855326D01*
X198447360Y-104908140D01*
X198380140Y-104975360D01*
X198327326Y-105054403D01*
X198290946Y-105142231D01*
X198272400Y-105235468D01*
X39166800Y-105235468D01*
X39166800Y-56895251D01*
X41655253Y-54406800D01*
X44200242Y-54406800D01*
X44202140Y-54409640D01*
X44269360Y-54476860D01*
X44348403Y-54529674D01*
X44436231Y-54566054D01*
X44529468Y-54584600D01*
X44624532Y-54584600D01*
X44717769Y-54566054D01*
X44805597Y-54529674D01*
X44884640Y-54476860D01*
X44951860Y-54409640D01*
X45004674Y-54330597D01*
X45041054Y-54242769D01*
X45059600Y-54149532D01*
X45059600Y-54054468D01*
X45041054Y-53961231D01*
X45004674Y-53873403D01*
X44951860Y-53794360D01*
X44884640Y-53727140D01*
X44805597Y-53674326D01*
X44717769Y-53637946D01*
X44624532Y-53619400D01*
X44529468Y-53619400D01*
X44436231Y-53637946D01*
X44348403Y-53674326D01*
X44269360Y-53727140D01*
X44202140Y-53794360D01*
X44200242Y-53797200D01*
X41543958Y-53797200D01*
X41529000Y-53795727D01*
X41514042Y-53797200D01*
X41514034Y-53797200D01*
X41469249Y-53801611D01*
X41411794Y-53819040D01*
X41358843Y-53847342D01*
X41341955Y-53861202D01*
X41324056Y-53875891D01*
X41324050Y-53875897D01*
X41312432Y-53885432D01*
X41302897Y-53897050D01*
X38657057Y-56542892D01*
X38645433Y-56552432D01*
X38607343Y-56598843D01*
X38592215Y-56627146D01*
X38579040Y-56651795D01*
X38561611Y-56709249D01*
X38555727Y-56769000D01*
X38353600Y-56769000D01*
X38353600Y-53352406D01*
X38398338Y-52896136D01*
X38527241Y-52469187D01*
X38736620Y-52075401D01*
X39018501Y-51729780D01*
X39362139Y-51445499D01*
X39754455Y-51233374D01*
X40180497Y-51101491D01*
X40636008Y-51053615D01*
X40640315Y-51053600D01*
X342887594Y-51053600D01*
X343343864Y-51098338D01*
G37*
%TD.AperFunction*%
%TD*%
M02*
