M48
; DRILL file {KiCad (5.1.10)-1} date 01/09/22 00:33:21
; FORMAT={-:-/ absolute / metric / decimal}
; #@! TF.CreationDate,2022-01-09T00:33:21-08:00
; #@! TF.GenerationSoftware,Kicad,Pcbnew,(5.1.10)-1
; #@! TF.FileFunction,Plated,1,2,PTH
FMAT,2
METRIC
T1C0.305
T2C1.070
%
G90
G05
T1
X39.624Y-52.832
X39.624Y-60.452
X39.624Y-68.072
X39.624Y-75.692
X39.624Y-83.312
X39.624Y-90.932
X39.624Y-98.552
X39.624Y-106.172
X39.624Y-113.792
X39.624Y-121.412
X39.624Y-129.032
X39.624Y-136.652
X39.624Y-144.272
X39.624Y-151.892
X39.624Y-159.512
X44.577Y-54.102
X44.577Y-57.531
X44.577Y-65.151
X44.577Y-72.771
X44.577Y-80.391
X44.577Y-88.011
X44.577Y-95.631
X44.577Y-103.251
X44.577Y-110.871
X44.577Y-118.491
X44.577Y-126.111
X44.577Y-133.731
X44.577Y-141.351
X44.577Y-148.971
X44.577Y-156.591
X44.577Y-164.211
X46.736Y-185.42
X47.244Y-52.832
X47.244Y-60.452
X47.244Y-68.072
X47.244Y-75.692
X47.244Y-83.312
X47.244Y-90.932
X47.244Y-98.552
X47.244Y-106.172
X47.244Y-113.792
X47.244Y-121.412
X47.244Y-129.032
X47.244Y-136.652
X47.244Y-144.272
X47.244Y-151.892
X47.244Y-151.892
X47.244Y-159.512
X49.022Y-185.42
X51.308Y-185.42
X52.197Y-57.531
X52.197Y-65.151
X52.197Y-72.771
X52.197Y-80.391
X52.197Y-88.011
X52.197Y-95.631
X52.197Y-103.251
X52.197Y-110.871
X52.197Y-118.491
X52.197Y-126.111
X52.197Y-133.731
X52.197Y-141.351
X52.197Y-148.971
X52.197Y-156.591
X52.197Y-156.591
X52.197Y-164.211
X53.086Y-184.785
X54.864Y-52.832
X54.864Y-60.452
X54.864Y-68.072
X54.864Y-75.692
X54.864Y-83.312
X54.864Y-90.932
X54.864Y-98.552
X54.864Y-106.172
X54.864Y-113.792
X54.864Y-121.412
X54.864Y-129.032
X54.864Y-136.652
X54.864Y-144.272
X54.864Y-151.892
X54.864Y-151.892
X54.864Y-159.512
X59.817Y-57.531
X59.817Y-65.151
X59.817Y-72.771
X59.817Y-80.391
X59.817Y-88.011
X59.817Y-95.631
X59.817Y-103.251
X59.817Y-110.871
X59.817Y-118.491
X59.817Y-126.111
X59.817Y-133.731
X59.817Y-141.351
X59.817Y-148.971
X59.817Y-156.591
X59.817Y-156.591
X59.817Y-164.211
X62.484Y-52.832
X62.484Y-60.452
X62.484Y-68.072
X62.484Y-75.692
X62.484Y-83.312
X62.484Y-90.932
X62.484Y-98.552
X62.484Y-106.172
X62.484Y-113.792
X62.484Y-121.412
X62.484Y-129.032
X62.484Y-136.652
X62.484Y-144.272
X62.484Y-151.892
X62.484Y-151.892
X62.484Y-159.512
X67.437Y-57.531
X67.437Y-65.151
X67.437Y-72.771
X67.437Y-80.391
X67.437Y-88.011
X67.437Y-95.631
X67.437Y-103.251
X67.437Y-110.871
X67.437Y-118.491
X67.437Y-126.111
X67.437Y-133.731
X67.437Y-141.351
X67.437Y-148.971
X67.437Y-156.591
X67.437Y-156.591
X67.437Y-164.211
X70.104Y-52.832
X70.104Y-60.452
X70.104Y-68.072
X70.104Y-75.692
X70.104Y-83.312
X70.104Y-90.932
X70.104Y-98.552
X70.104Y-106.172
X70.104Y-113.792
X70.104Y-121.412
X70.104Y-129.032
X70.104Y-136.652
X70.104Y-144.272
X70.104Y-151.892
X70.104Y-151.892
X70.104Y-159.512
X75.057Y-57.531
X75.057Y-65.151
X75.057Y-72.771
X75.057Y-80.391
X75.057Y-88.011
X75.057Y-95.631
X75.057Y-103.251
X75.057Y-110.871
X75.057Y-118.491
X75.057Y-126.111
X75.057Y-133.731
X75.057Y-141.351
X75.057Y-148.971
X75.057Y-156.591
X75.057Y-156.591
X75.057Y-164.211
X77.724Y-52.832
X77.724Y-60.452
X77.724Y-68.072
X77.724Y-75.692
X77.724Y-83.312
X77.724Y-90.932
X77.724Y-98.552
X77.724Y-106.172
X77.724Y-113.792
X77.724Y-121.412
X77.724Y-129.032
X77.724Y-136.652
X77.724Y-144.272
X77.724Y-151.892
X77.724Y-151.892
X77.724Y-159.512
X82.677Y-57.531
X82.677Y-65.151
X82.677Y-72.771
X82.677Y-80.391
X82.677Y-88.011
X82.677Y-95.631
X82.677Y-103.251
X82.677Y-110.871
X82.677Y-118.491
X82.677Y-126.111
X82.677Y-133.731
X82.677Y-141.351
X82.677Y-148.971
X82.677Y-156.591
X82.677Y-156.591
X82.677Y-164.211
X85.344Y-52.832
X85.344Y-60.452
X85.344Y-68.072
X85.344Y-75.692
X85.344Y-83.312
X85.344Y-90.932
X85.344Y-98.552
X85.344Y-106.172
X85.344Y-113.792
X85.344Y-121.412
X85.344Y-129.032
X85.344Y-136.652
X85.344Y-144.272
X85.344Y-151.892
X85.344Y-151.892
X85.344Y-159.512
X90.297Y-57.531
X90.297Y-65.151
X90.297Y-72.771
X90.297Y-80.391
X90.297Y-88.011
X90.297Y-95.631
X90.297Y-103.251
X90.297Y-110.871
X90.297Y-118.491
X90.297Y-126.111
X90.297Y-133.731
X90.297Y-141.351
X90.297Y-148.971
X90.297Y-156.591
X90.297Y-156.591
X90.297Y-164.211
X92.964Y-52.832
X92.964Y-60.452
X92.964Y-68.072
X92.964Y-75.692
X92.964Y-83.312
X92.964Y-90.932
X92.964Y-98.552
X92.964Y-106.172
X92.964Y-113.792
X92.964Y-121.412
X92.964Y-129.032
X92.964Y-136.652
X92.964Y-144.272
X92.964Y-151.892
X92.964Y-151.892
X92.964Y-159.512
X97.917Y-57.531
X97.917Y-65.151
X97.917Y-72.771
X97.917Y-80.391
X97.917Y-88.011
X97.917Y-95.631
X97.917Y-103.251
X97.917Y-110.871
X97.917Y-118.491
X97.917Y-126.111
X97.917Y-133.731
X97.917Y-141.351
X97.917Y-148.971
X97.917Y-156.591
X97.917Y-156.591
X97.917Y-164.211
X100.584Y-52.832
X100.584Y-60.452
X100.584Y-68.072
X100.584Y-75.692
X100.584Y-83.312
X100.584Y-90.932
X100.584Y-98.552
X100.584Y-106.172
X100.584Y-113.792
X100.584Y-121.412
X100.584Y-129.032
X100.584Y-136.652
X100.584Y-144.272
X100.584Y-151.892
X100.584Y-151.892
X100.584Y-159.512
X105.537Y-57.531
X105.537Y-65.151
X105.537Y-72.771
X105.537Y-80.391
X105.537Y-88.011
X105.537Y-95.631
X105.537Y-103.251
X105.537Y-110.871
X105.537Y-118.491
X105.537Y-126.111
X105.537Y-133.731
X105.537Y-141.351
X105.537Y-148.971
X105.537Y-156.591
X105.537Y-156.591
X105.537Y-164.211
X108.204Y-52.832
X108.204Y-60.452
X108.204Y-68.072
X108.204Y-75.692
X108.204Y-83.312
X108.204Y-90.932
X108.204Y-98.552
X108.204Y-106.172
X108.204Y-113.792
X108.204Y-121.412
X108.204Y-129.032
X108.204Y-136.652
X108.204Y-144.272
X108.204Y-151.892
X108.204Y-151.892
X108.204Y-159.512
X113.157Y-57.531
X113.157Y-65.151
X113.157Y-72.771
X113.157Y-80.391
X113.157Y-88.011
X113.157Y-95.631
X113.157Y-103.251
X113.157Y-110.871
X113.157Y-118.491
X113.157Y-126.111
X113.157Y-133.731
X113.157Y-141.351
X113.157Y-148.971
X113.157Y-156.591
X113.157Y-156.591
X113.157Y-164.211
X115.824Y-52.832
X115.824Y-60.452
X115.824Y-68.072
X115.824Y-75.692
X115.824Y-83.312
X115.824Y-90.932
X115.824Y-98.552
X115.824Y-106.172
X115.824Y-113.792
X115.824Y-121.412
X115.824Y-129.032
X115.824Y-136.652
X115.824Y-144.272
X115.824Y-151.892
X115.824Y-151.892
X115.824Y-159.512
X120.777Y-57.531
X120.777Y-65.151
X120.777Y-72.771
X120.777Y-80.391
X120.777Y-88.011
X120.777Y-95.631
X120.777Y-103.251
X120.777Y-110.871
X120.777Y-118.491
X120.777Y-126.111
X120.777Y-133.731
X120.777Y-141.351
X120.777Y-148.971
X120.777Y-156.591
X120.777Y-156.591
X120.777Y-164.211
X123.444Y-52.832
X123.444Y-60.452
X123.444Y-68.072
X123.444Y-75.692
X123.444Y-83.312
X123.444Y-90.932
X123.444Y-98.552
X123.444Y-106.172
X123.444Y-113.792
X123.444Y-121.412
X123.444Y-129.032
X123.444Y-136.652
X123.444Y-144.272
X123.444Y-151.892
X123.444Y-151.892
X123.444Y-159.512
X128.397Y-57.531
X128.397Y-65.151
X128.397Y-72.771
X128.397Y-80.391
X128.397Y-88.011
X128.397Y-95.631
X128.397Y-103.251
X128.397Y-110.871
X128.397Y-118.491
X128.397Y-126.111
X128.397Y-133.731
X128.397Y-141.351
X128.397Y-148.971
X128.397Y-156.591
X128.397Y-156.591
X128.397Y-164.211
X131.064Y-52.832
X131.064Y-60.452
X131.064Y-68.072
X131.064Y-75.692
X131.064Y-83.312
X131.064Y-90.932
X131.064Y-98.552
X131.064Y-106.172
X131.064Y-113.792
X131.064Y-121.412
X131.064Y-129.032
X131.064Y-136.652
X131.064Y-144.272
X131.064Y-151.892
X131.064Y-151.892
X131.064Y-159.512
X136.017Y-57.531
X136.017Y-65.151
X136.017Y-72.771
X136.017Y-80.391
X136.017Y-88.011
X136.017Y-95.631
X136.017Y-103.251
X136.017Y-110.871
X136.017Y-118.491
X136.017Y-126.111
X136.017Y-133.731
X136.017Y-141.351
X136.017Y-148.971
X136.017Y-156.591
X136.017Y-156.591
X136.017Y-164.211
X138.684Y-52.832
X138.684Y-60.452
X138.684Y-68.072
X138.684Y-75.692
X138.684Y-83.312
X138.684Y-90.932
X138.684Y-98.552
X138.684Y-106.172
X138.684Y-113.792
X138.684Y-121.412
X138.684Y-129.032
X138.684Y-136.652
X138.684Y-144.272
X138.684Y-151.892
X138.684Y-151.892
X138.684Y-159.512
X143.637Y-57.531
X143.637Y-65.151
X143.637Y-72.771
X143.637Y-80.391
X143.637Y-88.011
X143.637Y-95.631
X143.637Y-103.251
X143.637Y-110.871
X143.637Y-118.491
X143.637Y-126.111
X143.637Y-133.731
X143.637Y-141.351
X143.637Y-148.971
X143.637Y-156.591
X143.637Y-156.591
X143.637Y-164.211
X146.304Y-52.832
X146.304Y-60.452
X146.304Y-68.072
X146.304Y-75.692
X146.304Y-83.312
X146.304Y-90.932
X146.304Y-98.552
X146.304Y-106.172
X146.304Y-113.792
X146.304Y-121.412
X146.304Y-129.032
X146.304Y-136.652
X146.304Y-144.272
X146.304Y-151.892
X146.304Y-151.892
X146.304Y-159.512
X151.257Y-57.531
X151.257Y-65.151
X151.257Y-72.771
X151.257Y-80.391
X151.257Y-88.011
X151.257Y-95.631
X151.257Y-103.251
X151.257Y-110.871
X151.257Y-118.491
X151.257Y-126.111
X151.257Y-133.731
X151.257Y-141.351
X151.257Y-148.971
X151.257Y-156.591
X151.257Y-156.591
X151.257Y-164.211
X153.924Y-52.832
X153.924Y-60.452
X153.924Y-68.072
X153.924Y-75.692
X153.924Y-83.312
X153.924Y-90.932
X153.924Y-98.552
X153.924Y-106.172
X153.924Y-113.792
X153.924Y-121.412
X153.924Y-129.032
X153.924Y-136.652
X153.924Y-144.272
X153.924Y-151.892
X153.924Y-151.892
X153.924Y-159.512
X158.877Y-57.531
X158.877Y-65.151
X158.877Y-72.771
X158.877Y-80.391
X158.877Y-88.011
X158.877Y-95.631
X158.877Y-103.251
X158.877Y-110.871
X158.877Y-118.491
X158.877Y-126.111
X158.877Y-133.731
X158.877Y-141.351
X158.877Y-148.971
X158.877Y-156.591
X158.877Y-156.591
X158.877Y-164.211
X161.544Y-52.832
X161.544Y-60.452
X161.544Y-68.072
X161.544Y-75.692
X161.544Y-83.312
X161.544Y-90.932
X161.544Y-98.552
X161.544Y-106.172
X161.544Y-113.792
X161.544Y-121.412
X161.544Y-129.032
X161.544Y-136.652
X161.544Y-144.272
X161.544Y-151.892
X161.544Y-151.892
X161.544Y-159.512
X166.497Y-57.531
X166.497Y-65.151
X166.497Y-72.771
X166.497Y-80.391
X166.497Y-88.011
X166.497Y-95.631
X166.497Y-103.251
X166.497Y-110.871
X166.497Y-118.491
X166.497Y-126.111
X166.497Y-133.731
X166.497Y-141.351
X166.497Y-148.971
X166.497Y-156.591
X166.497Y-156.591
X166.497Y-164.211
X169.164Y-52.832
X169.164Y-60.452
X169.164Y-68.072
X169.164Y-75.692
X169.164Y-83.312
X169.164Y-90.932
X169.164Y-98.552
X169.164Y-106.172
X169.164Y-113.792
X169.164Y-121.412
X169.164Y-129.032
X169.164Y-136.652
X169.164Y-144.272
X169.164Y-151.892
X169.164Y-151.892
X169.164Y-159.512
X174.117Y-57.531
X174.117Y-65.151
X174.117Y-72.771
X174.117Y-80.391
X174.117Y-88.011
X174.117Y-95.631
X174.117Y-103.251
X174.117Y-110.871
X174.117Y-118.491
X174.117Y-126.111
X174.117Y-133.731
X174.117Y-141.351
X174.117Y-148.971
X174.117Y-156.591
X174.117Y-156.591
X174.117Y-164.211
X176.784Y-52.832
X176.784Y-60.452
X176.784Y-68.072
X176.784Y-75.692
X176.784Y-83.312
X176.784Y-90.932
X176.784Y-98.552
X176.784Y-106.172
X176.784Y-113.792
X176.784Y-121.412
X176.784Y-129.032
X176.784Y-136.652
X176.784Y-144.272
X176.784Y-151.892
X176.784Y-151.892
X176.784Y-159.512
X181.737Y-57.531
X181.737Y-65.151
X181.737Y-72.771
X181.737Y-80.391
X181.737Y-88.011
X181.737Y-95.631
X181.737Y-103.251
X181.737Y-110.871
X181.737Y-118.491
X181.737Y-126.111
X181.737Y-133.731
X181.737Y-141.351
X181.737Y-148.971
X181.737Y-156.591
X181.737Y-156.591
X181.737Y-164.211
X184.404Y-52.832
X184.404Y-60.452
X184.404Y-68.072
X184.404Y-75.692
X184.404Y-83.312
X184.404Y-90.932
X184.404Y-98.552
X184.404Y-106.172
X184.404Y-113.792
X184.404Y-121.412
X184.404Y-129.032
X184.404Y-136.652
X184.404Y-144.272
X184.404Y-151.892
X184.404Y-151.892
X184.404Y-159.512
X189.357Y-57.531
X189.357Y-65.151
X189.357Y-72.771
X189.357Y-80.391
X189.357Y-88.011
X189.357Y-95.631
X189.357Y-103.251
X189.357Y-110.871
X189.357Y-118.491
X189.357Y-126.111
X189.357Y-133.731
X189.357Y-141.351
X189.357Y-148.971
X189.357Y-156.591
X189.357Y-156.591
X189.357Y-164.211
X192.024Y-52.832
X192.024Y-60.452
X192.024Y-68.072
X192.024Y-75.692
X192.024Y-83.312
X192.024Y-90.932
X192.024Y-98.552
X192.024Y-106.172
X192.024Y-113.792
X192.024Y-121.412
X192.024Y-129.032
X192.024Y-136.652
X192.024Y-144.272
X192.024Y-151.892
X192.024Y-151.892
X192.024Y-159.512
X196.977Y-57.531
X196.977Y-65.151
X196.977Y-72.771
X196.977Y-80.391
X196.977Y-88.011
X196.977Y-95.631
X196.977Y-103.251
X196.977Y-110.871
X196.977Y-118.491
X196.977Y-126.111
X196.977Y-133.731
X196.977Y-141.351
X196.977Y-148.971
X196.977Y-156.591
X196.977Y-156.591
X196.977Y-164.211
X198.755Y-105.283
X199.644Y-52.832
X199.644Y-60.452
X199.644Y-68.072
X199.644Y-75.692
X199.644Y-83.312
X199.644Y-90.932
X199.644Y-98.552
X199.644Y-106.172
X199.644Y-113.792
X199.644Y-121.412
X199.644Y-129.032
X199.644Y-136.652
X199.644Y-144.272
X199.644Y-151.892
X199.644Y-151.892
X199.644Y-159.512
X204.597Y-57.531
X204.597Y-65.151
X204.597Y-72.771
X204.597Y-80.391
X204.597Y-88.011
X204.597Y-95.631
X204.597Y-103.251
X204.597Y-110.871
X204.597Y-118.491
X204.597Y-126.111
X204.597Y-133.731
X204.597Y-141.351
X204.597Y-148.971
X204.597Y-156.591
X204.597Y-156.591
X204.597Y-164.211
X207.264Y-52.832
X207.264Y-60.452
X207.264Y-68.072
X207.264Y-75.692
X207.264Y-83.312
X207.264Y-90.932
X207.264Y-98.552
X207.264Y-106.172
X207.264Y-113.792
X207.264Y-121.412
X207.264Y-129.032
X207.264Y-136.652
X207.264Y-144.272
X207.264Y-151.892
X207.264Y-151.892
X207.264Y-159.512
X212.217Y-57.531
X212.217Y-65.151
X212.217Y-72.771
X212.217Y-80.391
X212.217Y-88.011
X212.217Y-95.631
X212.217Y-103.251
X212.217Y-110.871
X212.217Y-118.491
X212.217Y-126.111
X212.217Y-133.731
X212.217Y-141.351
X212.217Y-148.971
X212.217Y-156.591
X212.217Y-156.591
X212.217Y-164.211
X214.884Y-52.832
X214.884Y-60.452
X214.884Y-68.072
X214.884Y-75.692
X214.884Y-83.312
X214.884Y-90.932
X214.884Y-98.552
X214.884Y-106.172
X214.884Y-113.792
X214.884Y-121.412
X214.884Y-129.032
X214.884Y-136.652
X214.884Y-144.272
X214.884Y-151.892
X214.884Y-151.892
X214.884Y-159.512
X219.837Y-57.531
X219.837Y-65.151
X219.837Y-72.771
X219.837Y-80.391
X219.837Y-88.011
X219.837Y-95.631
X219.837Y-103.251
X219.837Y-110.871
X219.837Y-118.491
X219.837Y-126.111
X219.837Y-133.731
X219.837Y-141.351
X219.837Y-148.971
X219.837Y-156.591
X219.837Y-156.591
X219.837Y-164.211
X222.504Y-52.832
X222.504Y-60.452
X222.504Y-68.072
X222.504Y-75.692
X222.504Y-83.312
X222.504Y-90.932
X222.504Y-98.552
X222.504Y-106.172
X222.504Y-113.792
X222.504Y-121.412
X222.504Y-129.032
X222.504Y-136.652
X222.504Y-144.272
X222.504Y-151.892
X222.504Y-151.892
X222.504Y-159.512
X227.457Y-57.531
X227.457Y-65.151
X227.457Y-72.771
X227.457Y-80.391
X227.457Y-88.011
X227.457Y-95.631
X227.457Y-103.251
X227.457Y-110.871
X227.457Y-118.491
X227.457Y-126.111
X227.457Y-133.731
X227.457Y-141.351
X227.457Y-148.971
X227.457Y-156.591
X227.457Y-156.591
X227.457Y-164.211
X230.124Y-52.832
X230.124Y-60.452
X230.124Y-68.072
X230.124Y-75.692
X230.124Y-83.312
X230.124Y-90.932
X230.124Y-98.552
X230.124Y-106.172
X230.124Y-113.792
X230.124Y-121.412
X230.124Y-129.032
X230.124Y-136.652
X230.124Y-144.272
X230.124Y-151.892
X230.124Y-151.892
X230.124Y-159.512
X235.077Y-57.531
X235.077Y-65.151
X235.077Y-72.771
X235.077Y-80.391
X235.077Y-88.011
X235.077Y-95.631
X235.077Y-103.251
X235.077Y-110.871
X235.077Y-118.491
X235.077Y-126.111
X235.077Y-133.731
X235.077Y-141.351
X235.077Y-148.971
X235.077Y-156.591
X235.077Y-156.591
X235.077Y-164.211
X237.744Y-52.832
X237.744Y-60.452
X237.744Y-68.072
X237.744Y-75.692
X237.744Y-83.312
X237.744Y-90.932
X237.744Y-98.552
X237.744Y-106.172
X237.744Y-113.792
X237.744Y-121.412
X237.744Y-129.032
X237.744Y-136.652
X237.744Y-144.272
X237.744Y-151.892
X237.744Y-151.892
X237.744Y-159.512
X242.697Y-57.531
X242.697Y-65.151
X242.697Y-72.771
X242.697Y-80.391
X242.697Y-88.011
X242.697Y-95.631
X242.697Y-103.251
X242.697Y-110.871
X242.697Y-118.491
X242.697Y-126.111
X242.697Y-133.731
X242.697Y-141.351
X242.697Y-148.971
X242.697Y-156.591
X242.697Y-156.591
X242.697Y-164.211
X245.364Y-52.832
X245.364Y-60.452
X245.364Y-68.072
X245.364Y-75.692
X245.364Y-83.312
X245.364Y-90.932
X245.364Y-98.552
X245.364Y-106.172
X245.364Y-113.792
X245.364Y-121.412
X245.364Y-129.032
X245.364Y-136.652
X245.364Y-144.272
X245.364Y-151.892
X245.364Y-151.892
X245.364Y-159.512
X250.317Y-57.531
X250.317Y-65.151
X250.317Y-72.771
X250.317Y-80.391
X250.317Y-88.011
X250.317Y-95.631
X250.317Y-103.251
X250.317Y-110.871
X250.317Y-118.491
X250.317Y-126.111
X250.317Y-133.731
X250.317Y-141.351
X250.317Y-148.971
X250.317Y-156.591
X250.317Y-156.591
X250.317Y-164.211
X252.984Y-52.832
X252.984Y-60.452
X252.984Y-68.072
X252.984Y-75.692
X252.984Y-83.312
X252.984Y-90.932
X252.984Y-98.552
X252.984Y-106.172
X252.984Y-113.792
X252.984Y-121.412
X252.984Y-129.032
X252.984Y-136.652
X252.984Y-144.272
X252.984Y-151.892
X252.984Y-151.892
X252.984Y-159.512
X257.937Y-57.531
X257.937Y-65.151
X257.937Y-72.771
X257.937Y-80.391
X257.937Y-88.011
X257.937Y-95.631
X257.937Y-103.251
X257.937Y-110.871
X257.937Y-118.491
X257.937Y-126.111
X257.937Y-133.731
X257.937Y-141.351
X257.937Y-148.971
X257.937Y-156.591
X257.937Y-156.591
X257.937Y-164.211
X260.604Y-52.832
X260.604Y-60.452
X260.604Y-68.072
X260.604Y-75.692
X260.604Y-83.312
X260.604Y-90.932
X260.604Y-98.552
X260.604Y-106.172
X260.604Y-113.792
X260.604Y-121.412
X260.604Y-129.032
X260.604Y-136.652
X260.604Y-144.272
X260.604Y-151.892
X260.604Y-151.892
X260.604Y-159.512
X265.557Y-57.531
X265.557Y-65.151
X265.557Y-72.771
X265.557Y-80.391
X265.557Y-88.011
X265.557Y-95.631
X265.557Y-103.251
X265.557Y-110.871
X265.557Y-118.491
X265.557Y-126.111
X265.557Y-133.731
X265.557Y-141.351
X265.557Y-148.971
X265.557Y-156.591
X265.557Y-156.591
X265.557Y-164.211
X268.224Y-52.832
X268.224Y-60.452
X268.224Y-68.072
X268.224Y-75.692
X268.224Y-83.312
X268.224Y-90.932
X268.224Y-98.552
X268.224Y-106.172
X268.224Y-113.792
X268.224Y-121.412
X268.224Y-129.032
X268.224Y-136.652
X268.224Y-144.272
X268.224Y-151.892
X268.224Y-151.892
X268.224Y-159.512
X273.177Y-57.531
X273.177Y-65.151
X273.177Y-72.771
X273.177Y-80.391
X273.177Y-88.011
X273.177Y-95.631
X273.177Y-103.251
X273.177Y-110.871
X273.177Y-118.491
X273.177Y-126.111
X273.177Y-133.731
X273.177Y-141.351
X273.177Y-148.971
X273.177Y-156.591
X273.177Y-156.591
X273.177Y-164.211
X275.844Y-52.832
X275.844Y-60.452
X275.844Y-68.072
X275.844Y-75.692
X275.844Y-83.312
X275.844Y-90.932
X275.844Y-98.552
X275.844Y-106.172
X275.844Y-113.792
X275.844Y-121.412
X275.844Y-129.032
X275.844Y-136.652
X275.844Y-144.272
X275.844Y-151.892
X275.844Y-151.892
X275.844Y-159.512
X280.797Y-57.531
X280.797Y-65.151
X280.797Y-72.771
X280.797Y-80.391
X280.797Y-88.011
X280.797Y-95.631
X280.797Y-103.251
X280.797Y-110.871
X280.797Y-118.491
X280.797Y-126.111
X280.797Y-133.731
X280.797Y-141.351
X280.797Y-148.971
X280.797Y-156.591
X280.797Y-156.591
X280.797Y-164.211
X283.464Y-52.832
X283.464Y-60.452
X283.464Y-68.072
X283.464Y-75.692
X283.464Y-83.312
X283.464Y-90.932
X283.464Y-98.552
X283.464Y-106.172
X283.464Y-113.792
X283.464Y-121.412
X283.464Y-129.032
X283.464Y-136.652
X283.464Y-144.272
X283.464Y-151.892
X283.464Y-151.892
X283.464Y-159.512
X288.417Y-57.531
X288.417Y-65.151
X288.417Y-72.771
X288.417Y-80.391
X288.417Y-88.011
X288.417Y-95.631
X288.417Y-103.251
X288.417Y-110.871
X288.417Y-118.491
X288.417Y-126.111
X288.417Y-133.731
X288.417Y-141.351
X288.417Y-148.971
X288.417Y-156.591
X288.417Y-156.591
X288.417Y-164.211
X291.084Y-52.832
X291.084Y-60.452
X291.084Y-68.072
X291.084Y-75.692
X291.084Y-83.312
X291.084Y-90.932
X291.084Y-98.552
X291.084Y-106.172
X291.084Y-113.792
X291.084Y-121.412
X291.084Y-129.032
X291.084Y-136.652
X291.084Y-144.272
X291.084Y-151.892
X291.084Y-151.892
X291.084Y-159.512
X296.037Y-57.531
X296.037Y-65.151
X296.037Y-72.771
X296.037Y-80.391
X296.037Y-88.011
X296.037Y-95.631
X296.037Y-103.251
X296.037Y-110.871
X296.037Y-118.491
X296.037Y-126.111
X296.037Y-133.731
X296.037Y-141.351
X296.037Y-148.971
X296.037Y-156.591
X296.037Y-156.591
X296.037Y-164.211
X298.704Y-52.832
X298.704Y-60.452
X298.704Y-68.072
X298.704Y-75.692
X298.704Y-83.312
X298.704Y-90.932
X298.704Y-98.552
X298.704Y-106.172
X298.704Y-113.792
X298.704Y-121.412
X298.704Y-129.032
X298.704Y-136.652
X298.704Y-144.272
X298.704Y-151.892
X298.704Y-151.892
X298.704Y-159.512
X303.657Y-57.531
X303.657Y-65.151
X303.657Y-72.771
X303.657Y-80.391
X303.657Y-88.011
X303.657Y-95.631
X303.657Y-103.251
X303.657Y-110.871
X303.657Y-118.491
X303.657Y-126.111
X303.657Y-133.731
X303.657Y-141.351
X303.657Y-148.971
X303.657Y-156.591
X303.657Y-156.591
X303.657Y-164.211
X306.324Y-52.832
X306.324Y-60.452
X306.324Y-68.072
X306.324Y-75.692
X306.324Y-83.312
X306.324Y-90.932
X306.324Y-98.552
X306.324Y-106.172
X306.324Y-113.792
X306.324Y-121.412
X306.324Y-129.032
X306.324Y-136.652
X306.324Y-144.272
X306.324Y-151.892
X306.324Y-151.892
X306.324Y-159.512
X311.277Y-57.531
X311.277Y-65.151
X311.277Y-72.771
X311.277Y-80.391
X311.277Y-88.011
X311.277Y-95.631
X311.277Y-103.251
X311.277Y-110.871
X311.277Y-118.491
X311.277Y-126.111
X311.277Y-133.731
X311.277Y-141.351
X311.277Y-148.971
X311.277Y-156.591
X311.277Y-156.591
X311.277Y-164.211
X313.944Y-52.832
X313.944Y-60.452
X313.944Y-68.072
X313.944Y-75.692
X313.944Y-83.312
X313.944Y-90.932
X313.944Y-98.552
X313.944Y-106.172
X313.944Y-113.792
X313.944Y-121.412
X313.944Y-129.032
X313.944Y-136.652
X313.944Y-144.272
X313.944Y-151.892
X313.944Y-151.892
X313.944Y-159.512
X318.897Y-57.531
X318.897Y-65.151
X318.897Y-72.771
X318.897Y-80.391
X318.897Y-88.011
X318.897Y-95.631
X318.897Y-103.251
X318.897Y-110.871
X318.897Y-118.491
X318.897Y-126.111
X318.897Y-133.731
X318.897Y-141.351
X318.897Y-148.971
X318.897Y-156.591
X318.897Y-156.591
X318.897Y-164.211
X321.564Y-52.832
X321.564Y-60.452
X321.564Y-68.072
X321.564Y-75.692
X321.564Y-83.312
X321.564Y-90.932
X321.564Y-98.552
X321.564Y-106.172
X321.564Y-113.792
X321.564Y-121.412
X321.564Y-129.032
X321.564Y-136.652
X321.564Y-144.272
X321.564Y-151.892
X321.564Y-151.892
X321.564Y-159.512
X326.517Y-57.531
X326.517Y-65.151
X326.517Y-72.771
X326.517Y-80.391
X326.517Y-88.011
X326.517Y-95.631
X326.517Y-103.251
X326.517Y-110.871
X326.517Y-118.491
X326.517Y-126.111
X326.517Y-133.731
X326.517Y-141.351
X326.517Y-148.971
X326.517Y-156.591
X326.517Y-156.591
X326.517Y-164.211
X329.184Y-52.832
X329.184Y-60.452
X329.184Y-68.072
X329.184Y-75.692
X329.184Y-83.312
X329.184Y-90.932
X329.184Y-98.552
X329.184Y-106.172
X329.184Y-113.792
X329.184Y-121.412
X329.184Y-129.032
X329.184Y-136.652
X329.184Y-144.272
X329.184Y-151.892
X329.184Y-151.892
X329.184Y-159.512
X333.121Y-171.831
X334.137Y-57.531
X334.137Y-65.151
X334.137Y-72.771
X334.137Y-80.391
X334.137Y-88.011
X334.137Y-95.631
X334.137Y-103.251
X334.137Y-110.871
X334.137Y-118.491
X334.137Y-126.111
X334.137Y-133.731
X334.137Y-141.351
X334.137Y-148.971
X334.137Y-156.591
X334.137Y-156.591
X334.137Y-164.211
X335.153Y-171.831
X336.804Y-52.832
X336.804Y-60.452
X336.804Y-68.072
X336.804Y-75.692
X336.804Y-83.312
X336.804Y-90.932
X336.804Y-98.552
X336.804Y-106.172
X336.804Y-113.792
X336.804Y-121.412
X336.804Y-129.032
X336.804Y-136.652
X336.804Y-144.272
X336.804Y-151.892
X336.804Y-159.512
X337.439Y-171.831
X339.217Y-172.466
X341.757Y-57.531
X341.757Y-65.151
X341.757Y-72.771
X341.757Y-80.391
X341.757Y-88.011
X341.757Y-95.631
X341.757Y-103.251
X341.757Y-110.871
X341.757Y-118.491
X341.757Y-126.111
X341.757Y-133.731
X341.757Y-141.351
X341.757Y-148.971
X341.757Y-156.591
X341.757Y-164.211
T2
X54.958Y-174.062
X54.958Y-177.062
X54.958Y-180.062
X54.958Y-183.062
X330.106Y-174.443
X330.106Y-177.443
X330.106Y-180.443
X330.106Y-183.443
T0
M30
