%TF.GenerationSoftware,KiCad,Pcbnew,(5.1.10)-1*%
%TF.CreationDate,2022-01-09T00:33:18-08:00*%
%TF.ProjectId,LEDBoard,4c454442-6f61-4726-942e-6b696361645f,rev?*%
%TF.SameCoordinates,Original*%
%TF.FileFunction,Legend,Bot*%
%TF.FilePolarity,Positive*%
%FSLAX46Y46*%
G04 Gerber Fmt 4.6, Leading zero omitted, Abs format (unit mm)*
G04 Created by KiCad (PCBNEW (5.1.10)-1) date 2022-01-09 00:33:18*
%MOMM*%
%LPD*%
G01*
G04 APERTURE LIST*
%ADD10C,0.200000*%
%ADD11C,0.127000*%
%ADD12C,0.150000*%
G04 APERTURE END LIST*
D10*
%TO.C,CN2*%
X330236000Y-170443000D02*
G75*
G03*
X330236000Y-170443000I-100000J0D01*
G01*
D11*
X331086000Y-186768000D02*
X322586000Y-186768000D01*
X322586000Y-186768000D02*
X321186000Y-185368000D01*
X321186000Y-185368000D02*
X321186000Y-172518000D01*
X321186000Y-172518000D02*
X322586000Y-171118000D01*
X322586000Y-171118000D02*
X331086000Y-171118000D01*
X331086000Y-186768000D02*
X331086000Y-184563000D01*
X331086000Y-173323000D02*
X331086000Y-171118000D01*
%TO.C,CN1*%
X53978000Y-184182000D02*
X53978000Y-186387000D01*
X53978000Y-170737000D02*
X53978000Y-172942000D01*
X62478000Y-186387000D02*
X53978000Y-186387000D01*
X63878000Y-184987000D02*
X62478000Y-186387000D01*
X63878000Y-172137000D02*
X63878000Y-184987000D01*
X62478000Y-170737000D02*
X63878000Y-172137000D01*
X53978000Y-170737000D02*
X62478000Y-170737000D01*
D10*
X55028000Y-187062000D02*
G75*
G03*
X55028000Y-187062000I-100000J0D01*
G01*
%TO.C,CN2*%
D12*
X332528142Y-182827523D02*
X332575761Y-182779904D01*
X332623380Y-182637047D01*
X332623380Y-182541809D01*
X332575761Y-182398952D01*
X332480523Y-182303714D01*
X332385285Y-182256095D01*
X332194809Y-182208476D01*
X332051952Y-182208476D01*
X331861476Y-182256095D01*
X331766238Y-182303714D01*
X331671000Y-182398952D01*
X331623380Y-182541809D01*
X331623380Y-182637047D01*
X331671000Y-182779904D01*
X331718619Y-182827523D01*
X332623380Y-183256095D02*
X331623380Y-183256095D01*
X332623380Y-183827523D01*
X331623380Y-183827523D01*
X331718619Y-184256095D02*
X331671000Y-184303714D01*
X331623380Y-184398952D01*
X331623380Y-184637047D01*
X331671000Y-184732285D01*
X331718619Y-184779904D01*
X331813857Y-184827523D01*
X331909095Y-184827523D01*
X332051952Y-184779904D01*
X332623380Y-184208476D01*
X332623380Y-184827523D01*
%TO.C,CN1*%
D11*
X53119785Y-173548547D02*
X53150023Y-173518309D01*
X53180261Y-173427595D01*
X53180261Y-173367119D01*
X53150023Y-173276404D01*
X53089547Y-173215928D01*
X53029071Y-173185690D01*
X52908119Y-173155452D01*
X52817404Y-173155452D01*
X52696452Y-173185690D01*
X52635976Y-173215928D01*
X52575500Y-173276404D01*
X52545261Y-173367119D01*
X52545261Y-173427595D01*
X52575500Y-173518309D01*
X52605738Y-173548547D01*
X53180261Y-173820690D02*
X52545261Y-173820690D01*
X53180261Y-174183547D01*
X52545261Y-174183547D01*
X53180261Y-174818547D02*
X53180261Y-174455690D01*
X53180261Y-174637119D02*
X52545261Y-174637119D01*
X52635976Y-174576642D01*
X52696452Y-174516166D01*
X52726690Y-174455690D01*
%TD*%
M02*
