%TF.GenerationSoftware,KiCad,Pcbnew,(5.1.10)-1*%
%TF.CreationDate,2022-01-09T00:26:40-08:00*%
%TF.ProjectId,RaquelSecretProject,52617175-656c-4536-9563-72657450726f,rev?*%
%TF.SameCoordinates,Original*%
%TF.FileFunction,Soldermask,Top*%
%TF.FilePolarity,Negative*%
%FSLAX46Y46*%
G04 Gerber Fmt 4.6, Leading zero omitted, Abs format (unit mm)*
G04 Created by KiCad (PCBNEW (5.1.10)-1) date 2022-01-09 00:26:40*
%MOMM*%
%LPD*%
G01*
G04 APERTURE LIST*
%ADD10R,5.300000X5.300000*%
%ADD11R,1.520000X1.520000*%
%ADD12C,1.520000*%
%ADD13C,2.909999*%
%ADD14R,2.200000X1.050000*%
%ADD15R,1.050000X1.000000*%
%ADD16R,1.000000X1.000000*%
%ADD17C,0.650000*%
%ADD18R,2.180000X2.000000*%
%ADD19R,0.300000X1.150000*%
%ADD20R,0.600000X1.150000*%
%ADD21C,3.200000*%
%ADD22R,2.200000X0.600000*%
%ADD23R,2.150000X3.450000*%
%ADD24R,13.370000X9.126000*%
%ADD25R,2.410000X0.860000*%
%ADD26R,1.750000X0.450000*%
%ADD27C,1.600200*%
%ADD28C,1.905000*%
%ADD29O,2.999999X6.000001*%
%ADD30O,3.000000X6.000000*%
%ADD31C,1.650000*%
%ADD32R,1.650000X1.650000*%
%ADD33R,2.100000X1.400000*%
%ADD34R,0.700000X0.450000*%
%ADD35R,1.220000X0.650000*%
%ADD36C,3.000000*%
%ADD37O,2.616000X1.308000*%
%ADD38O,1.508000X3.016001*%
%ADD39C,1.600000*%
%ADD40O,1.700000X1.700000*%
%ADD41R,1.700000X1.700000*%
%ADD42R,0.600000X0.450000*%
%ADD43R,0.360000X0.250000*%
%ADD44R,1.600000X3.500000*%
G04 APERTURE END LIST*
D10*
X167513000Y-92329000D03*
G36*
G01*
X164400500Y-95204000D02*
X163725500Y-95204000D01*
G75*
G02*
X163663000Y-95141500I0J62500D01*
G01*
X163663000Y-95016500D01*
G75*
G02*
X163725500Y-94954000I62500J0D01*
G01*
X164400500Y-94954000D01*
G75*
G02*
X164463000Y-95016500I0J-62500D01*
G01*
X164463000Y-95141500D01*
G75*
G02*
X164400500Y-95204000I-62500J0D01*
G01*
G37*
G36*
G01*
X164400500Y-94704000D02*
X163725500Y-94704000D01*
G75*
G02*
X163663000Y-94641500I0J62500D01*
G01*
X163663000Y-94516500D01*
G75*
G02*
X163725500Y-94454000I62500J0D01*
G01*
X164400500Y-94454000D01*
G75*
G02*
X164463000Y-94516500I0J-62500D01*
G01*
X164463000Y-94641500D01*
G75*
G02*
X164400500Y-94704000I-62500J0D01*
G01*
G37*
G36*
G01*
X164400500Y-94204000D02*
X163725500Y-94204000D01*
G75*
G02*
X163663000Y-94141500I0J62500D01*
G01*
X163663000Y-94016500D01*
G75*
G02*
X163725500Y-93954000I62500J0D01*
G01*
X164400500Y-93954000D01*
G75*
G02*
X164463000Y-94016500I0J-62500D01*
G01*
X164463000Y-94141500D01*
G75*
G02*
X164400500Y-94204000I-62500J0D01*
G01*
G37*
G36*
G01*
X164400500Y-93704000D02*
X163725500Y-93704000D01*
G75*
G02*
X163663000Y-93641500I0J62500D01*
G01*
X163663000Y-93516500D01*
G75*
G02*
X163725500Y-93454000I62500J0D01*
G01*
X164400500Y-93454000D01*
G75*
G02*
X164463000Y-93516500I0J-62500D01*
G01*
X164463000Y-93641500D01*
G75*
G02*
X164400500Y-93704000I-62500J0D01*
G01*
G37*
G36*
G01*
X164400500Y-93204000D02*
X163725500Y-93204000D01*
G75*
G02*
X163663000Y-93141500I0J62500D01*
G01*
X163663000Y-93016500D01*
G75*
G02*
X163725500Y-92954000I62500J0D01*
G01*
X164400500Y-92954000D01*
G75*
G02*
X164463000Y-93016500I0J-62500D01*
G01*
X164463000Y-93141500D01*
G75*
G02*
X164400500Y-93204000I-62500J0D01*
G01*
G37*
G36*
G01*
X164400500Y-92704000D02*
X163725500Y-92704000D01*
G75*
G02*
X163663000Y-92641500I0J62500D01*
G01*
X163663000Y-92516500D01*
G75*
G02*
X163725500Y-92454000I62500J0D01*
G01*
X164400500Y-92454000D01*
G75*
G02*
X164463000Y-92516500I0J-62500D01*
G01*
X164463000Y-92641500D01*
G75*
G02*
X164400500Y-92704000I-62500J0D01*
G01*
G37*
G36*
G01*
X164400500Y-92204000D02*
X163725500Y-92204000D01*
G75*
G02*
X163663000Y-92141500I0J62500D01*
G01*
X163663000Y-92016500D01*
G75*
G02*
X163725500Y-91954000I62500J0D01*
G01*
X164400500Y-91954000D01*
G75*
G02*
X164463000Y-92016500I0J-62500D01*
G01*
X164463000Y-92141500D01*
G75*
G02*
X164400500Y-92204000I-62500J0D01*
G01*
G37*
G36*
G01*
X164400500Y-91704000D02*
X163725500Y-91704000D01*
G75*
G02*
X163663000Y-91641500I0J62500D01*
G01*
X163663000Y-91516500D01*
G75*
G02*
X163725500Y-91454000I62500J0D01*
G01*
X164400500Y-91454000D01*
G75*
G02*
X164463000Y-91516500I0J-62500D01*
G01*
X164463000Y-91641500D01*
G75*
G02*
X164400500Y-91704000I-62500J0D01*
G01*
G37*
G36*
G01*
X164400500Y-91204000D02*
X163725500Y-91204000D01*
G75*
G02*
X163663000Y-91141500I0J62500D01*
G01*
X163663000Y-91016500D01*
G75*
G02*
X163725500Y-90954000I62500J0D01*
G01*
X164400500Y-90954000D01*
G75*
G02*
X164463000Y-91016500I0J-62500D01*
G01*
X164463000Y-91141500D01*
G75*
G02*
X164400500Y-91204000I-62500J0D01*
G01*
G37*
G36*
G01*
X164400500Y-90704000D02*
X163725500Y-90704000D01*
G75*
G02*
X163663000Y-90641500I0J62500D01*
G01*
X163663000Y-90516500D01*
G75*
G02*
X163725500Y-90454000I62500J0D01*
G01*
X164400500Y-90454000D01*
G75*
G02*
X164463000Y-90516500I0J-62500D01*
G01*
X164463000Y-90641500D01*
G75*
G02*
X164400500Y-90704000I-62500J0D01*
G01*
G37*
G36*
G01*
X164400500Y-90204000D02*
X163725500Y-90204000D01*
G75*
G02*
X163663000Y-90141500I0J62500D01*
G01*
X163663000Y-90016500D01*
G75*
G02*
X163725500Y-89954000I62500J0D01*
G01*
X164400500Y-89954000D01*
G75*
G02*
X164463000Y-90016500I0J-62500D01*
G01*
X164463000Y-90141500D01*
G75*
G02*
X164400500Y-90204000I-62500J0D01*
G01*
G37*
G36*
G01*
X164400500Y-89704000D02*
X163725500Y-89704000D01*
G75*
G02*
X163663000Y-89641500I0J62500D01*
G01*
X163663000Y-89516500D01*
G75*
G02*
X163725500Y-89454000I62500J0D01*
G01*
X164400500Y-89454000D01*
G75*
G02*
X164463000Y-89516500I0J-62500D01*
G01*
X164463000Y-89641500D01*
G75*
G02*
X164400500Y-89704000I-62500J0D01*
G01*
G37*
G36*
G01*
X164825500Y-89279000D02*
X164700500Y-89279000D01*
G75*
G02*
X164638000Y-89216500I0J62500D01*
G01*
X164638000Y-88541500D01*
G75*
G02*
X164700500Y-88479000I62500J0D01*
G01*
X164825500Y-88479000D01*
G75*
G02*
X164888000Y-88541500I0J-62500D01*
G01*
X164888000Y-89216500D01*
G75*
G02*
X164825500Y-89279000I-62500J0D01*
G01*
G37*
G36*
G01*
X165325500Y-89279000D02*
X165200500Y-89279000D01*
G75*
G02*
X165138000Y-89216500I0J62500D01*
G01*
X165138000Y-88541500D01*
G75*
G02*
X165200500Y-88479000I62500J0D01*
G01*
X165325500Y-88479000D01*
G75*
G02*
X165388000Y-88541500I0J-62500D01*
G01*
X165388000Y-89216500D01*
G75*
G02*
X165325500Y-89279000I-62500J0D01*
G01*
G37*
G36*
G01*
X165825500Y-89279000D02*
X165700500Y-89279000D01*
G75*
G02*
X165638000Y-89216500I0J62500D01*
G01*
X165638000Y-88541500D01*
G75*
G02*
X165700500Y-88479000I62500J0D01*
G01*
X165825500Y-88479000D01*
G75*
G02*
X165888000Y-88541500I0J-62500D01*
G01*
X165888000Y-89216500D01*
G75*
G02*
X165825500Y-89279000I-62500J0D01*
G01*
G37*
G36*
G01*
X166325500Y-89279000D02*
X166200500Y-89279000D01*
G75*
G02*
X166138000Y-89216500I0J62500D01*
G01*
X166138000Y-88541500D01*
G75*
G02*
X166200500Y-88479000I62500J0D01*
G01*
X166325500Y-88479000D01*
G75*
G02*
X166388000Y-88541500I0J-62500D01*
G01*
X166388000Y-89216500D01*
G75*
G02*
X166325500Y-89279000I-62500J0D01*
G01*
G37*
G36*
G01*
X166825500Y-89279000D02*
X166700500Y-89279000D01*
G75*
G02*
X166638000Y-89216500I0J62500D01*
G01*
X166638000Y-88541500D01*
G75*
G02*
X166700500Y-88479000I62500J0D01*
G01*
X166825500Y-88479000D01*
G75*
G02*
X166888000Y-88541500I0J-62500D01*
G01*
X166888000Y-89216500D01*
G75*
G02*
X166825500Y-89279000I-62500J0D01*
G01*
G37*
G36*
G01*
X167325500Y-89279000D02*
X167200500Y-89279000D01*
G75*
G02*
X167138000Y-89216500I0J62500D01*
G01*
X167138000Y-88541500D01*
G75*
G02*
X167200500Y-88479000I62500J0D01*
G01*
X167325500Y-88479000D01*
G75*
G02*
X167388000Y-88541500I0J-62500D01*
G01*
X167388000Y-89216500D01*
G75*
G02*
X167325500Y-89279000I-62500J0D01*
G01*
G37*
G36*
G01*
X167825500Y-89279000D02*
X167700500Y-89279000D01*
G75*
G02*
X167638000Y-89216500I0J62500D01*
G01*
X167638000Y-88541500D01*
G75*
G02*
X167700500Y-88479000I62500J0D01*
G01*
X167825500Y-88479000D01*
G75*
G02*
X167888000Y-88541500I0J-62500D01*
G01*
X167888000Y-89216500D01*
G75*
G02*
X167825500Y-89279000I-62500J0D01*
G01*
G37*
G36*
G01*
X168325500Y-89279000D02*
X168200500Y-89279000D01*
G75*
G02*
X168138000Y-89216500I0J62500D01*
G01*
X168138000Y-88541500D01*
G75*
G02*
X168200500Y-88479000I62500J0D01*
G01*
X168325500Y-88479000D01*
G75*
G02*
X168388000Y-88541500I0J-62500D01*
G01*
X168388000Y-89216500D01*
G75*
G02*
X168325500Y-89279000I-62500J0D01*
G01*
G37*
G36*
G01*
X168825500Y-89279000D02*
X168700500Y-89279000D01*
G75*
G02*
X168638000Y-89216500I0J62500D01*
G01*
X168638000Y-88541500D01*
G75*
G02*
X168700500Y-88479000I62500J0D01*
G01*
X168825500Y-88479000D01*
G75*
G02*
X168888000Y-88541500I0J-62500D01*
G01*
X168888000Y-89216500D01*
G75*
G02*
X168825500Y-89279000I-62500J0D01*
G01*
G37*
G36*
G01*
X169325500Y-89279000D02*
X169200500Y-89279000D01*
G75*
G02*
X169138000Y-89216500I0J62500D01*
G01*
X169138000Y-88541500D01*
G75*
G02*
X169200500Y-88479000I62500J0D01*
G01*
X169325500Y-88479000D01*
G75*
G02*
X169388000Y-88541500I0J-62500D01*
G01*
X169388000Y-89216500D01*
G75*
G02*
X169325500Y-89279000I-62500J0D01*
G01*
G37*
G36*
G01*
X169825500Y-89279000D02*
X169700500Y-89279000D01*
G75*
G02*
X169638000Y-89216500I0J62500D01*
G01*
X169638000Y-88541500D01*
G75*
G02*
X169700500Y-88479000I62500J0D01*
G01*
X169825500Y-88479000D01*
G75*
G02*
X169888000Y-88541500I0J-62500D01*
G01*
X169888000Y-89216500D01*
G75*
G02*
X169825500Y-89279000I-62500J0D01*
G01*
G37*
G36*
G01*
X170325500Y-89279000D02*
X170200500Y-89279000D01*
G75*
G02*
X170138000Y-89216500I0J62500D01*
G01*
X170138000Y-88541500D01*
G75*
G02*
X170200500Y-88479000I62500J0D01*
G01*
X170325500Y-88479000D01*
G75*
G02*
X170388000Y-88541500I0J-62500D01*
G01*
X170388000Y-89216500D01*
G75*
G02*
X170325500Y-89279000I-62500J0D01*
G01*
G37*
G36*
G01*
X171300500Y-89704000D02*
X170625500Y-89704000D01*
G75*
G02*
X170563000Y-89641500I0J62500D01*
G01*
X170563000Y-89516500D01*
G75*
G02*
X170625500Y-89454000I62500J0D01*
G01*
X171300500Y-89454000D01*
G75*
G02*
X171363000Y-89516500I0J-62500D01*
G01*
X171363000Y-89641500D01*
G75*
G02*
X171300500Y-89704000I-62500J0D01*
G01*
G37*
G36*
G01*
X171300500Y-90204000D02*
X170625500Y-90204000D01*
G75*
G02*
X170563000Y-90141500I0J62500D01*
G01*
X170563000Y-90016500D01*
G75*
G02*
X170625500Y-89954000I62500J0D01*
G01*
X171300500Y-89954000D01*
G75*
G02*
X171363000Y-90016500I0J-62500D01*
G01*
X171363000Y-90141500D01*
G75*
G02*
X171300500Y-90204000I-62500J0D01*
G01*
G37*
G36*
G01*
X171300500Y-90704000D02*
X170625500Y-90704000D01*
G75*
G02*
X170563000Y-90641500I0J62500D01*
G01*
X170563000Y-90516500D01*
G75*
G02*
X170625500Y-90454000I62500J0D01*
G01*
X171300500Y-90454000D01*
G75*
G02*
X171363000Y-90516500I0J-62500D01*
G01*
X171363000Y-90641500D01*
G75*
G02*
X171300500Y-90704000I-62500J0D01*
G01*
G37*
G36*
G01*
X171300500Y-91204000D02*
X170625500Y-91204000D01*
G75*
G02*
X170563000Y-91141500I0J62500D01*
G01*
X170563000Y-91016500D01*
G75*
G02*
X170625500Y-90954000I62500J0D01*
G01*
X171300500Y-90954000D01*
G75*
G02*
X171363000Y-91016500I0J-62500D01*
G01*
X171363000Y-91141500D01*
G75*
G02*
X171300500Y-91204000I-62500J0D01*
G01*
G37*
G36*
G01*
X171300500Y-91704000D02*
X170625500Y-91704000D01*
G75*
G02*
X170563000Y-91641500I0J62500D01*
G01*
X170563000Y-91516500D01*
G75*
G02*
X170625500Y-91454000I62500J0D01*
G01*
X171300500Y-91454000D01*
G75*
G02*
X171363000Y-91516500I0J-62500D01*
G01*
X171363000Y-91641500D01*
G75*
G02*
X171300500Y-91704000I-62500J0D01*
G01*
G37*
G36*
G01*
X171300500Y-92204000D02*
X170625500Y-92204000D01*
G75*
G02*
X170563000Y-92141500I0J62500D01*
G01*
X170563000Y-92016500D01*
G75*
G02*
X170625500Y-91954000I62500J0D01*
G01*
X171300500Y-91954000D01*
G75*
G02*
X171363000Y-92016500I0J-62500D01*
G01*
X171363000Y-92141500D01*
G75*
G02*
X171300500Y-92204000I-62500J0D01*
G01*
G37*
G36*
G01*
X171300500Y-92704000D02*
X170625500Y-92704000D01*
G75*
G02*
X170563000Y-92641500I0J62500D01*
G01*
X170563000Y-92516500D01*
G75*
G02*
X170625500Y-92454000I62500J0D01*
G01*
X171300500Y-92454000D01*
G75*
G02*
X171363000Y-92516500I0J-62500D01*
G01*
X171363000Y-92641500D01*
G75*
G02*
X171300500Y-92704000I-62500J0D01*
G01*
G37*
G36*
G01*
X171300500Y-93204000D02*
X170625500Y-93204000D01*
G75*
G02*
X170563000Y-93141500I0J62500D01*
G01*
X170563000Y-93016500D01*
G75*
G02*
X170625500Y-92954000I62500J0D01*
G01*
X171300500Y-92954000D01*
G75*
G02*
X171363000Y-93016500I0J-62500D01*
G01*
X171363000Y-93141500D01*
G75*
G02*
X171300500Y-93204000I-62500J0D01*
G01*
G37*
G36*
G01*
X171300500Y-93704000D02*
X170625500Y-93704000D01*
G75*
G02*
X170563000Y-93641500I0J62500D01*
G01*
X170563000Y-93516500D01*
G75*
G02*
X170625500Y-93454000I62500J0D01*
G01*
X171300500Y-93454000D01*
G75*
G02*
X171363000Y-93516500I0J-62500D01*
G01*
X171363000Y-93641500D01*
G75*
G02*
X171300500Y-93704000I-62500J0D01*
G01*
G37*
G36*
G01*
X171300500Y-94204000D02*
X170625500Y-94204000D01*
G75*
G02*
X170563000Y-94141500I0J62500D01*
G01*
X170563000Y-94016500D01*
G75*
G02*
X170625500Y-93954000I62500J0D01*
G01*
X171300500Y-93954000D01*
G75*
G02*
X171363000Y-94016500I0J-62500D01*
G01*
X171363000Y-94141500D01*
G75*
G02*
X171300500Y-94204000I-62500J0D01*
G01*
G37*
G36*
G01*
X171300500Y-94704000D02*
X170625500Y-94704000D01*
G75*
G02*
X170563000Y-94641500I0J62500D01*
G01*
X170563000Y-94516500D01*
G75*
G02*
X170625500Y-94454000I62500J0D01*
G01*
X171300500Y-94454000D01*
G75*
G02*
X171363000Y-94516500I0J-62500D01*
G01*
X171363000Y-94641500D01*
G75*
G02*
X171300500Y-94704000I-62500J0D01*
G01*
G37*
G36*
G01*
X171300500Y-95204000D02*
X170625500Y-95204000D01*
G75*
G02*
X170563000Y-95141500I0J62500D01*
G01*
X170563000Y-95016500D01*
G75*
G02*
X170625500Y-94954000I62500J0D01*
G01*
X171300500Y-94954000D01*
G75*
G02*
X171363000Y-95016500I0J-62500D01*
G01*
X171363000Y-95141500D01*
G75*
G02*
X171300500Y-95204000I-62500J0D01*
G01*
G37*
G36*
G01*
X170325500Y-96179000D02*
X170200500Y-96179000D01*
G75*
G02*
X170138000Y-96116500I0J62500D01*
G01*
X170138000Y-95441500D01*
G75*
G02*
X170200500Y-95379000I62500J0D01*
G01*
X170325500Y-95379000D01*
G75*
G02*
X170388000Y-95441500I0J-62500D01*
G01*
X170388000Y-96116500D01*
G75*
G02*
X170325500Y-96179000I-62500J0D01*
G01*
G37*
G36*
G01*
X169825500Y-96179000D02*
X169700500Y-96179000D01*
G75*
G02*
X169638000Y-96116500I0J62500D01*
G01*
X169638000Y-95441500D01*
G75*
G02*
X169700500Y-95379000I62500J0D01*
G01*
X169825500Y-95379000D01*
G75*
G02*
X169888000Y-95441500I0J-62500D01*
G01*
X169888000Y-96116500D01*
G75*
G02*
X169825500Y-96179000I-62500J0D01*
G01*
G37*
G36*
G01*
X169325500Y-96179000D02*
X169200500Y-96179000D01*
G75*
G02*
X169138000Y-96116500I0J62500D01*
G01*
X169138000Y-95441500D01*
G75*
G02*
X169200500Y-95379000I62500J0D01*
G01*
X169325500Y-95379000D01*
G75*
G02*
X169388000Y-95441500I0J-62500D01*
G01*
X169388000Y-96116500D01*
G75*
G02*
X169325500Y-96179000I-62500J0D01*
G01*
G37*
G36*
G01*
X168825500Y-96179000D02*
X168700500Y-96179000D01*
G75*
G02*
X168638000Y-96116500I0J62500D01*
G01*
X168638000Y-95441500D01*
G75*
G02*
X168700500Y-95379000I62500J0D01*
G01*
X168825500Y-95379000D01*
G75*
G02*
X168888000Y-95441500I0J-62500D01*
G01*
X168888000Y-96116500D01*
G75*
G02*
X168825500Y-96179000I-62500J0D01*
G01*
G37*
G36*
G01*
X168325500Y-96179000D02*
X168200500Y-96179000D01*
G75*
G02*
X168138000Y-96116500I0J62500D01*
G01*
X168138000Y-95441500D01*
G75*
G02*
X168200500Y-95379000I62500J0D01*
G01*
X168325500Y-95379000D01*
G75*
G02*
X168388000Y-95441500I0J-62500D01*
G01*
X168388000Y-96116500D01*
G75*
G02*
X168325500Y-96179000I-62500J0D01*
G01*
G37*
G36*
G01*
X167825500Y-96179000D02*
X167700500Y-96179000D01*
G75*
G02*
X167638000Y-96116500I0J62500D01*
G01*
X167638000Y-95441500D01*
G75*
G02*
X167700500Y-95379000I62500J0D01*
G01*
X167825500Y-95379000D01*
G75*
G02*
X167888000Y-95441500I0J-62500D01*
G01*
X167888000Y-96116500D01*
G75*
G02*
X167825500Y-96179000I-62500J0D01*
G01*
G37*
G36*
G01*
X167325500Y-96179000D02*
X167200500Y-96179000D01*
G75*
G02*
X167138000Y-96116500I0J62500D01*
G01*
X167138000Y-95441500D01*
G75*
G02*
X167200500Y-95379000I62500J0D01*
G01*
X167325500Y-95379000D01*
G75*
G02*
X167388000Y-95441500I0J-62500D01*
G01*
X167388000Y-96116500D01*
G75*
G02*
X167325500Y-96179000I-62500J0D01*
G01*
G37*
G36*
G01*
X166825500Y-96179000D02*
X166700500Y-96179000D01*
G75*
G02*
X166638000Y-96116500I0J62500D01*
G01*
X166638000Y-95441500D01*
G75*
G02*
X166700500Y-95379000I62500J0D01*
G01*
X166825500Y-95379000D01*
G75*
G02*
X166888000Y-95441500I0J-62500D01*
G01*
X166888000Y-96116500D01*
G75*
G02*
X166825500Y-96179000I-62500J0D01*
G01*
G37*
G36*
G01*
X166325500Y-96179000D02*
X166200500Y-96179000D01*
G75*
G02*
X166138000Y-96116500I0J62500D01*
G01*
X166138000Y-95441500D01*
G75*
G02*
X166200500Y-95379000I62500J0D01*
G01*
X166325500Y-95379000D01*
G75*
G02*
X166388000Y-95441500I0J-62500D01*
G01*
X166388000Y-96116500D01*
G75*
G02*
X166325500Y-96179000I-62500J0D01*
G01*
G37*
G36*
G01*
X165825500Y-96179000D02*
X165700500Y-96179000D01*
G75*
G02*
X165638000Y-96116500I0J62500D01*
G01*
X165638000Y-95441500D01*
G75*
G02*
X165700500Y-95379000I62500J0D01*
G01*
X165825500Y-95379000D01*
G75*
G02*
X165888000Y-95441500I0J-62500D01*
G01*
X165888000Y-96116500D01*
G75*
G02*
X165825500Y-96179000I-62500J0D01*
G01*
G37*
G36*
G01*
X165325500Y-96179000D02*
X165200500Y-96179000D01*
G75*
G02*
X165138000Y-96116500I0J62500D01*
G01*
X165138000Y-95441500D01*
G75*
G02*
X165200500Y-95379000I62500J0D01*
G01*
X165325500Y-95379000D01*
G75*
G02*
X165388000Y-95441500I0J-62500D01*
G01*
X165388000Y-96116500D01*
G75*
G02*
X165325500Y-96179000I-62500J0D01*
G01*
G37*
G36*
G01*
X164825500Y-96179000D02*
X164700500Y-96179000D01*
G75*
G02*
X164638000Y-96116500I0J62500D01*
G01*
X164638000Y-95441500D01*
G75*
G02*
X164700500Y-95379000I62500J0D01*
G01*
X164825500Y-95379000D01*
G75*
G02*
X164888000Y-95441500I0J-62500D01*
G01*
X164888000Y-96116500D01*
G75*
G02*
X164825500Y-96179000I-62500J0D01*
G01*
G37*
D11*
X118618000Y-84582000D03*
D12*
X121617999Y-84582000D03*
X124617998Y-84582000D03*
X127617997Y-84582000D03*
X130617996Y-84582000D03*
X133617995Y-84582000D03*
D13*
X116468002Y-80262001D03*
X135767994Y-80262001D03*
G36*
G01*
X165181500Y-100012000D02*
X165526500Y-100012000D01*
G75*
G02*
X165674000Y-100159500I0J-147500D01*
G01*
X165674000Y-100454500D01*
G75*
G02*
X165526500Y-100602000I-147500J0D01*
G01*
X165181500Y-100602000D01*
G75*
G02*
X165034000Y-100454500I0J147500D01*
G01*
X165034000Y-100159500D01*
G75*
G02*
X165181500Y-100012000I147500J0D01*
G01*
G37*
G36*
G01*
X165181500Y-99042000D02*
X165526500Y-99042000D01*
G75*
G02*
X165674000Y-99189500I0J-147500D01*
G01*
X165674000Y-99484500D01*
G75*
G02*
X165526500Y-99632000I-147500J0D01*
G01*
X165181500Y-99632000D01*
G75*
G02*
X165034000Y-99484500I0J147500D01*
G01*
X165034000Y-99189500D01*
G75*
G02*
X165181500Y-99042000I147500J0D01*
G01*
G37*
D14*
X162306000Y-103759000D03*
X162306000Y-100809000D03*
D15*
X163831000Y-102284000D03*
G36*
G01*
X166011000Y-101516000D02*
X166011000Y-101176000D01*
G75*
G02*
X166151000Y-101036000I140000J0D01*
G01*
X166431000Y-101036000D01*
G75*
G02*
X166571000Y-101176000I0J-140000D01*
G01*
X166571000Y-101516000D01*
G75*
G02*
X166431000Y-101656000I-140000J0D01*
G01*
X166151000Y-101656000D01*
G75*
G02*
X166011000Y-101516000I0J140000D01*
G01*
G37*
G36*
G01*
X165051000Y-101516000D02*
X165051000Y-101176000D01*
G75*
G02*
X165191000Y-101036000I140000J0D01*
G01*
X165471000Y-101036000D01*
G75*
G02*
X165611000Y-101176000I0J-140000D01*
G01*
X165611000Y-101516000D01*
G75*
G02*
X165471000Y-101656000I-140000J0D01*
G01*
X165191000Y-101656000D01*
G75*
G02*
X165051000Y-101516000I0J140000D01*
G01*
G37*
G36*
G01*
X166062000Y-98468000D02*
X166062000Y-98128000D01*
G75*
G02*
X166202000Y-97988000I140000J0D01*
G01*
X166482000Y-97988000D01*
G75*
G02*
X166622000Y-98128000I0J-140000D01*
G01*
X166622000Y-98468000D01*
G75*
G02*
X166482000Y-98608000I-140000J0D01*
G01*
X166202000Y-98608000D01*
G75*
G02*
X166062000Y-98468000I0J140000D01*
G01*
G37*
G36*
G01*
X165102000Y-98468000D02*
X165102000Y-98128000D01*
G75*
G02*
X165242000Y-97988000I140000J0D01*
G01*
X165522000Y-97988000D01*
G75*
G02*
X165662000Y-98128000I0J-140000D01*
G01*
X165662000Y-98468000D01*
G75*
G02*
X165522000Y-98608000I-140000J0D01*
G01*
X165242000Y-98608000D01*
G75*
G02*
X165102000Y-98468000I0J140000D01*
G01*
G37*
D16*
X139446000Y-85852000D03*
D17*
X150845000Y-99933000D03*
X145065000Y-99933000D03*
D18*
X153065000Y-103363000D03*
X142845000Y-103363000D03*
X153065000Y-99433000D03*
X142845000Y-99433000D03*
D19*
X148205000Y-98858000D03*
X147705000Y-98858000D03*
X148705000Y-98858000D03*
X147205000Y-98858000D03*
X149205000Y-98858000D03*
X146705000Y-98858000D03*
X149705000Y-98858000D03*
X146205000Y-98858000D03*
D20*
X151155000Y-98858000D03*
X150355000Y-98858000D03*
X145555000Y-98858000D03*
X144755000Y-98858000D03*
D21*
X252460000Y-97520000D03*
X39388428Y-97520000D03*
G36*
G01*
X155833428Y-101134000D02*
X155833428Y-100764000D01*
G75*
G02*
X155968428Y-100629000I135000J0D01*
G01*
X156238428Y-100629000D01*
G75*
G02*
X156373428Y-100764000I0J-135000D01*
G01*
X156373428Y-101134000D01*
G75*
G02*
X156238428Y-101269000I-135000J0D01*
G01*
X155968428Y-101269000D01*
G75*
G02*
X155833428Y-101134000I0J135000D01*
G01*
G37*
G36*
G01*
X154813428Y-101134000D02*
X154813428Y-100764000D01*
G75*
G02*
X154948428Y-100629000I135000J0D01*
G01*
X155218428Y-100629000D01*
G75*
G02*
X155353428Y-100764000I0J-135000D01*
G01*
X155353428Y-101134000D01*
G75*
G02*
X155218428Y-101269000I-135000J0D01*
G01*
X154948428Y-101269000D01*
G75*
G02*
X154813428Y-101134000I0J135000D01*
G01*
G37*
D22*
X129214928Y-94878400D03*
X129214928Y-99958400D03*
X129214928Y-97418400D03*
D23*
X135514928Y-97418400D03*
D22*
X129214928Y-96148400D03*
X129214928Y-98688400D03*
D24*
X105152428Y-89011000D03*
D25*
X95652428Y-89011000D03*
X95652428Y-90281000D03*
X95652428Y-91551000D03*
X95652428Y-92821000D03*
X95652428Y-94091000D03*
X95652428Y-95361000D03*
X95652428Y-87741000D03*
X95652428Y-86471000D03*
X95652428Y-83931000D03*
X95652428Y-85201000D03*
X95652428Y-82661000D03*
D26*
X150811428Y-81230000D03*
X150811428Y-81880000D03*
X150811428Y-82530000D03*
X150811428Y-83180000D03*
X150811428Y-83830000D03*
X150811428Y-84480000D03*
X150811428Y-85130000D03*
X150811428Y-85780000D03*
X150811428Y-86430000D03*
X150811428Y-87080000D03*
X150811428Y-87730000D03*
X150811428Y-88380000D03*
X150811428Y-89030000D03*
X150811428Y-89680000D03*
X143611428Y-89680000D03*
X143611428Y-89030000D03*
X143611428Y-88380000D03*
X143611428Y-87730000D03*
X143611428Y-87080000D03*
X143611428Y-86430000D03*
X143611428Y-85780000D03*
X143611428Y-85130000D03*
X143611428Y-84480000D03*
X143611428Y-83830000D03*
X143611428Y-83180000D03*
X143611428Y-82530000D03*
X143611428Y-81880000D03*
X143611428Y-81230000D03*
D16*
X166116000Y-86995000D03*
X180721000Y-81026000D03*
X180721000Y-83185000D03*
X127635000Y-87884000D03*
X124714000Y-87884000D03*
X116332000Y-99060000D03*
X82042000Y-83693000D03*
X99441000Y-99187000D03*
X123190000Y-99060000D03*
D27*
X68834000Y-84709000D03*
X68834000Y-87198200D03*
X74726800Y-84709000D03*
X74726800Y-87198200D03*
D28*
X69583300Y-98628200D03*
X73977500Y-98628200D03*
D29*
X241666000Y-91440000D03*
D30*
X230266000Y-91440000D03*
D31*
X238466000Y-98940000D03*
X235966000Y-98940000D03*
X233466000Y-98940000D03*
X238466000Y-84440000D03*
D32*
X233466000Y-84440000D03*
D33*
X189335000Y-94960000D03*
X180235000Y-94960000D03*
X180235000Y-90460000D03*
X189335000Y-90460000D03*
X189335000Y-101691000D03*
X180235000Y-101691000D03*
X180235000Y-97191000D03*
X189335000Y-97191000D03*
X212830000Y-87594000D03*
X203730000Y-87594000D03*
X203730000Y-83094000D03*
X212830000Y-83094000D03*
X212830000Y-99786000D03*
X203730000Y-99786000D03*
X203730000Y-95286000D03*
X212830000Y-95286000D03*
G36*
G01*
X129417428Y-102912000D02*
X129417428Y-102542000D01*
G75*
G02*
X129552428Y-102407000I135000J0D01*
G01*
X129822428Y-102407000D01*
G75*
G02*
X129957428Y-102542000I0J-135000D01*
G01*
X129957428Y-102912000D01*
G75*
G02*
X129822428Y-103047000I-135000J0D01*
G01*
X129552428Y-103047000D01*
G75*
G02*
X129417428Y-102912000I0J135000D01*
G01*
G37*
G36*
G01*
X128397428Y-102912000D02*
X128397428Y-102542000D01*
G75*
G02*
X128532428Y-102407000I135000J0D01*
G01*
X128802428Y-102407000D01*
G75*
G02*
X128937428Y-102542000I0J-135000D01*
G01*
X128937428Y-102912000D01*
G75*
G02*
X128802428Y-103047000I-135000J0D01*
G01*
X128532428Y-103047000D01*
G75*
G02*
X128397428Y-102912000I0J135000D01*
G01*
G37*
G36*
G01*
X129417428Y-101769000D02*
X129417428Y-101399000D01*
G75*
G02*
X129552428Y-101264000I135000J0D01*
G01*
X129822428Y-101264000D01*
G75*
G02*
X129957428Y-101399000I0J-135000D01*
G01*
X129957428Y-101769000D01*
G75*
G02*
X129822428Y-101904000I-135000J0D01*
G01*
X129552428Y-101904000D01*
G75*
G02*
X129417428Y-101769000I0J135000D01*
G01*
G37*
G36*
G01*
X128397428Y-101769000D02*
X128397428Y-101399000D01*
G75*
G02*
X128532428Y-101264000I135000J0D01*
G01*
X128802428Y-101264000D01*
G75*
G02*
X128937428Y-101399000I0J-135000D01*
G01*
X128937428Y-101769000D01*
G75*
G02*
X128802428Y-101904000I-135000J0D01*
G01*
X128532428Y-101904000D01*
G75*
G02*
X128397428Y-101769000I0J135000D01*
G01*
G37*
G36*
G01*
X46442428Y-96109000D02*
X46812428Y-96109000D01*
G75*
G02*
X46947428Y-96244000I0J-135000D01*
G01*
X46947428Y-96514000D01*
G75*
G02*
X46812428Y-96649000I-135000J0D01*
G01*
X46442428Y-96649000D01*
G75*
G02*
X46307428Y-96514000I0J135000D01*
G01*
X46307428Y-96244000D01*
G75*
G02*
X46442428Y-96109000I135000J0D01*
G01*
G37*
G36*
G01*
X46442428Y-95089000D02*
X46812428Y-95089000D01*
G75*
G02*
X46947428Y-95224000I0J-135000D01*
G01*
X46947428Y-95494000D01*
G75*
G02*
X46812428Y-95629000I-135000J0D01*
G01*
X46442428Y-95629000D01*
G75*
G02*
X46307428Y-95494000I0J135000D01*
G01*
X46307428Y-95224000D01*
G75*
G02*
X46442428Y-95089000I135000J0D01*
G01*
G37*
G36*
G01*
X68457428Y-82846000D02*
X68457428Y-82476000D01*
G75*
G02*
X68592428Y-82341000I135000J0D01*
G01*
X68862428Y-82341000D01*
G75*
G02*
X68997428Y-82476000I0J-135000D01*
G01*
X68997428Y-82846000D01*
G75*
G02*
X68862428Y-82981000I-135000J0D01*
G01*
X68592428Y-82981000D01*
G75*
G02*
X68457428Y-82846000I0J135000D01*
G01*
G37*
G36*
G01*
X67437428Y-82846000D02*
X67437428Y-82476000D01*
G75*
G02*
X67572428Y-82341000I135000J0D01*
G01*
X67842428Y-82341000D01*
G75*
G02*
X67977428Y-82476000I0J-135000D01*
G01*
X67977428Y-82846000D01*
G75*
G02*
X67842428Y-82981000I-135000J0D01*
G01*
X67572428Y-82981000D01*
G75*
G02*
X67437428Y-82846000I0J135000D01*
G01*
G37*
G36*
G01*
X58115428Y-80008000D02*
X57745428Y-80008000D01*
G75*
G02*
X57610428Y-79873000I0J135000D01*
G01*
X57610428Y-79603000D01*
G75*
G02*
X57745428Y-79468000I135000J0D01*
G01*
X58115428Y-79468000D01*
G75*
G02*
X58250428Y-79603000I0J-135000D01*
G01*
X58250428Y-79873000D01*
G75*
G02*
X58115428Y-80008000I-135000J0D01*
G01*
G37*
G36*
G01*
X58115428Y-81028000D02*
X57745428Y-81028000D01*
G75*
G02*
X57610428Y-80893000I0J135000D01*
G01*
X57610428Y-80623000D01*
G75*
G02*
X57745428Y-80488000I135000J0D01*
G01*
X58115428Y-80488000D01*
G75*
G02*
X58250428Y-80623000I0J-135000D01*
G01*
X58250428Y-80893000D01*
G75*
G02*
X58115428Y-81028000I-135000J0D01*
G01*
G37*
G36*
G01*
X84962428Y-88560998D02*
X84962428Y-89461002D01*
G75*
G02*
X84712430Y-89711000I-249998J0D01*
G01*
X84187426Y-89711000D01*
G75*
G02*
X83937428Y-89461002I0J249998D01*
G01*
X83937428Y-88560998D01*
G75*
G02*
X84187426Y-88311000I249998J0D01*
G01*
X84712430Y-88311000D01*
G75*
G02*
X84962428Y-88560998I0J-249998D01*
G01*
G37*
G36*
G01*
X86787428Y-88560998D02*
X86787428Y-89461002D01*
G75*
G02*
X86537430Y-89711000I-249998J0D01*
G01*
X86012426Y-89711000D01*
G75*
G02*
X85762428Y-89461002I0J249998D01*
G01*
X85762428Y-88560998D01*
G75*
G02*
X86012426Y-88311000I249998J0D01*
G01*
X86537430Y-88311000D01*
G75*
G02*
X86787428Y-88560998I0J-249998D01*
G01*
G37*
G36*
G01*
X93403000Y-85739000D02*
X93033000Y-85739000D01*
G75*
G02*
X92898000Y-85604000I0J135000D01*
G01*
X92898000Y-85334000D01*
G75*
G02*
X93033000Y-85199000I135000J0D01*
G01*
X93403000Y-85199000D01*
G75*
G02*
X93538000Y-85334000I0J-135000D01*
G01*
X93538000Y-85604000D01*
G75*
G02*
X93403000Y-85739000I-135000J0D01*
G01*
G37*
G36*
G01*
X93403000Y-86759000D02*
X93033000Y-86759000D01*
G75*
G02*
X92898000Y-86624000I0J135000D01*
G01*
X92898000Y-86354000D01*
G75*
G02*
X93033000Y-86219000I135000J0D01*
G01*
X93403000Y-86219000D01*
G75*
G02*
X93538000Y-86354000I0J-135000D01*
G01*
X93538000Y-86624000D01*
G75*
G02*
X93403000Y-86759000I-135000J0D01*
G01*
G37*
G36*
G01*
X88606430Y-89373000D02*
X87706426Y-89373000D01*
G75*
G02*
X87456428Y-89123002I0J249998D01*
G01*
X87456428Y-88597998D01*
G75*
G02*
X87706426Y-88348000I249998J0D01*
G01*
X88606430Y-88348000D01*
G75*
G02*
X88856428Y-88597998I0J-249998D01*
G01*
X88856428Y-89123002D01*
G75*
G02*
X88606430Y-89373000I-249998J0D01*
G01*
G37*
G36*
G01*
X88606430Y-91198000D02*
X87706426Y-91198000D01*
G75*
G02*
X87456428Y-90948002I0J249998D01*
G01*
X87456428Y-90422998D01*
G75*
G02*
X87706426Y-90173000I249998J0D01*
G01*
X88606430Y-90173000D01*
G75*
G02*
X88856428Y-90422998I0J-249998D01*
G01*
X88856428Y-90948002D01*
G75*
G02*
X88606430Y-91198000I-249998J0D01*
G01*
G37*
G36*
G01*
X92260000Y-85739000D02*
X91890000Y-85739000D01*
G75*
G02*
X91755000Y-85604000I0J135000D01*
G01*
X91755000Y-85334000D01*
G75*
G02*
X91890000Y-85199000I135000J0D01*
G01*
X92260000Y-85199000D01*
G75*
G02*
X92395000Y-85334000I0J-135000D01*
G01*
X92395000Y-85604000D01*
G75*
G02*
X92260000Y-85739000I-135000J0D01*
G01*
G37*
G36*
G01*
X92260000Y-86759000D02*
X91890000Y-86759000D01*
G75*
G02*
X91755000Y-86624000I0J135000D01*
G01*
X91755000Y-86354000D01*
G75*
G02*
X91890000Y-86219000I135000J0D01*
G01*
X92260000Y-86219000D01*
G75*
G02*
X92395000Y-86354000I0J-135000D01*
G01*
X92395000Y-86624000D01*
G75*
G02*
X92260000Y-86759000I-135000J0D01*
G01*
G37*
G36*
G01*
X94049000Y-98919000D02*
X94419000Y-98919000D01*
G75*
G02*
X94554000Y-99054000I0J-135000D01*
G01*
X94554000Y-99324000D01*
G75*
G02*
X94419000Y-99459000I-135000J0D01*
G01*
X94049000Y-99459000D01*
G75*
G02*
X93914000Y-99324000I0J135000D01*
G01*
X93914000Y-99054000D01*
G75*
G02*
X94049000Y-98919000I135000J0D01*
G01*
G37*
G36*
G01*
X94049000Y-97899000D02*
X94419000Y-97899000D01*
G75*
G02*
X94554000Y-98034000I0J-135000D01*
G01*
X94554000Y-98304000D01*
G75*
G02*
X94419000Y-98439000I-135000J0D01*
G01*
X94049000Y-98439000D01*
G75*
G02*
X93914000Y-98304000I0J135000D01*
G01*
X93914000Y-98034000D01*
G75*
G02*
X94049000Y-97899000I135000J0D01*
G01*
G37*
G36*
G01*
X139986428Y-101145000D02*
X139986428Y-101515000D01*
G75*
G02*
X139851428Y-101650000I-135000J0D01*
G01*
X139581428Y-101650000D01*
G75*
G02*
X139446428Y-101515000I0J135000D01*
G01*
X139446428Y-101145000D01*
G75*
G02*
X139581428Y-101010000I135000J0D01*
G01*
X139851428Y-101010000D01*
G75*
G02*
X139986428Y-101145000I0J-135000D01*
G01*
G37*
G36*
G01*
X141006428Y-101145000D02*
X141006428Y-101515000D01*
G75*
G02*
X140871428Y-101650000I-135000J0D01*
G01*
X140601428Y-101650000D01*
G75*
G02*
X140466428Y-101515000I0J135000D01*
G01*
X140466428Y-101145000D01*
G75*
G02*
X140601428Y-101010000I135000J0D01*
G01*
X140871428Y-101010000D01*
G75*
G02*
X141006428Y-101145000I0J-135000D01*
G01*
G37*
G36*
G01*
X153430000Y-82174500D02*
X153430000Y-82544500D01*
G75*
G02*
X153295000Y-82679500I-135000J0D01*
G01*
X153025000Y-82679500D01*
G75*
G02*
X152890000Y-82544500I0J135000D01*
G01*
X152890000Y-82174500D01*
G75*
G02*
X153025000Y-82039500I135000J0D01*
G01*
X153295000Y-82039500D01*
G75*
G02*
X153430000Y-82174500I0J-135000D01*
G01*
G37*
G36*
G01*
X154450000Y-82174500D02*
X154450000Y-82544500D01*
G75*
G02*
X154315000Y-82679500I-135000J0D01*
G01*
X154045000Y-82679500D01*
G75*
G02*
X153910000Y-82544500I0J135000D01*
G01*
X153910000Y-82174500D01*
G75*
G02*
X154045000Y-82039500I135000J0D01*
G01*
X154315000Y-82039500D01*
G75*
G02*
X154450000Y-82174500I0J-135000D01*
G01*
G37*
G36*
G01*
X153430000Y-81158500D02*
X153430000Y-81528500D01*
G75*
G02*
X153295000Y-81663500I-135000J0D01*
G01*
X153025000Y-81663500D01*
G75*
G02*
X152890000Y-81528500I0J135000D01*
G01*
X152890000Y-81158500D01*
G75*
G02*
X153025000Y-81023500I135000J0D01*
G01*
X153295000Y-81023500D01*
G75*
G02*
X153430000Y-81158500I0J-135000D01*
G01*
G37*
G36*
G01*
X154450000Y-81158500D02*
X154450000Y-81528500D01*
G75*
G02*
X154315000Y-81663500I-135000J0D01*
G01*
X154045000Y-81663500D01*
G75*
G02*
X153910000Y-81528500I0J135000D01*
G01*
X153910000Y-81158500D01*
G75*
G02*
X154045000Y-81023500I135000J0D01*
G01*
X154315000Y-81023500D01*
G75*
G02*
X154450000Y-81158500I0J-135000D01*
G01*
G37*
G36*
G01*
X146772428Y-92426000D02*
X147142428Y-92426000D01*
G75*
G02*
X147277428Y-92561000I0J-135000D01*
G01*
X147277428Y-92831000D01*
G75*
G02*
X147142428Y-92966000I-135000J0D01*
G01*
X146772428Y-92966000D01*
G75*
G02*
X146637428Y-92831000I0J135000D01*
G01*
X146637428Y-92561000D01*
G75*
G02*
X146772428Y-92426000I135000J0D01*
G01*
G37*
G36*
G01*
X146772428Y-91406000D02*
X147142428Y-91406000D01*
G75*
G02*
X147277428Y-91541000I0J-135000D01*
G01*
X147277428Y-91811000D01*
G75*
G02*
X147142428Y-91946000I-135000J0D01*
G01*
X146772428Y-91946000D01*
G75*
G02*
X146637428Y-91811000I0J135000D01*
G01*
X146637428Y-91541000D01*
G75*
G02*
X146772428Y-91406000I135000J0D01*
G01*
G37*
G36*
G01*
X147788428Y-92426000D02*
X148158428Y-92426000D01*
G75*
G02*
X148293428Y-92561000I0J-135000D01*
G01*
X148293428Y-92831000D01*
G75*
G02*
X148158428Y-92966000I-135000J0D01*
G01*
X147788428Y-92966000D01*
G75*
G02*
X147653428Y-92831000I0J135000D01*
G01*
X147653428Y-92561000D01*
G75*
G02*
X147788428Y-92426000I135000J0D01*
G01*
G37*
G36*
G01*
X147788428Y-91406000D02*
X148158428Y-91406000D01*
G75*
G02*
X148293428Y-91541000I0J-135000D01*
G01*
X148293428Y-91811000D01*
G75*
G02*
X148158428Y-91946000I-135000J0D01*
G01*
X147788428Y-91946000D01*
G75*
G02*
X147653428Y-91811000I0J135000D01*
G01*
X147653428Y-91541000D01*
G75*
G02*
X147788428Y-91406000I135000J0D01*
G01*
G37*
G36*
G01*
X155833428Y-102277000D02*
X155833428Y-101907000D01*
G75*
G02*
X155968428Y-101772000I135000J0D01*
G01*
X156238428Y-101772000D01*
G75*
G02*
X156373428Y-101907000I0J-135000D01*
G01*
X156373428Y-102277000D01*
G75*
G02*
X156238428Y-102412000I-135000J0D01*
G01*
X155968428Y-102412000D01*
G75*
G02*
X155833428Y-102277000I0J135000D01*
G01*
G37*
G36*
G01*
X154813428Y-102277000D02*
X154813428Y-101907000D01*
G75*
G02*
X154948428Y-101772000I135000J0D01*
G01*
X155218428Y-101772000D01*
G75*
G02*
X155353428Y-101907000I0J-135000D01*
G01*
X155353428Y-102277000D01*
G75*
G02*
X155218428Y-102412000I-135000J0D01*
G01*
X154948428Y-102412000D01*
G75*
G02*
X154813428Y-102277000I0J135000D01*
G01*
G37*
G36*
G01*
X238321000Y-101332000D02*
X238691000Y-101332000D01*
G75*
G02*
X238826000Y-101467000I0J-135000D01*
G01*
X238826000Y-101737000D01*
G75*
G02*
X238691000Y-101872000I-135000J0D01*
G01*
X238321000Y-101872000D01*
G75*
G02*
X238186000Y-101737000I0J135000D01*
G01*
X238186000Y-101467000D01*
G75*
G02*
X238321000Y-101332000I135000J0D01*
G01*
G37*
G36*
G01*
X238321000Y-100312000D02*
X238691000Y-100312000D01*
G75*
G02*
X238826000Y-100447000I0J-135000D01*
G01*
X238826000Y-100717000D01*
G75*
G02*
X238691000Y-100852000I-135000J0D01*
G01*
X238321000Y-100852000D01*
G75*
G02*
X238186000Y-100717000I0J135000D01*
G01*
X238186000Y-100447000D01*
G75*
G02*
X238321000Y-100312000I135000J0D01*
G01*
G37*
G36*
G01*
X239707000Y-100852000D02*
X239337000Y-100852000D01*
G75*
G02*
X239202000Y-100717000I0J135000D01*
G01*
X239202000Y-100447000D01*
G75*
G02*
X239337000Y-100312000I135000J0D01*
G01*
X239707000Y-100312000D01*
G75*
G02*
X239842000Y-100447000I0J-135000D01*
G01*
X239842000Y-100717000D01*
G75*
G02*
X239707000Y-100852000I-135000J0D01*
G01*
G37*
G36*
G01*
X239707000Y-101872000D02*
X239337000Y-101872000D01*
G75*
G02*
X239202000Y-101737000I0J135000D01*
G01*
X239202000Y-101467000D01*
G75*
G02*
X239337000Y-101332000I135000J0D01*
G01*
X239707000Y-101332000D01*
G75*
G02*
X239842000Y-101467000I0J-135000D01*
G01*
X239842000Y-101737000D01*
G75*
G02*
X239707000Y-101872000I-135000J0D01*
G01*
G37*
G36*
G01*
X237421000Y-81929000D02*
X237051000Y-81929000D01*
G75*
G02*
X236916000Y-81794000I0J135000D01*
G01*
X236916000Y-81524000D01*
G75*
G02*
X237051000Y-81389000I135000J0D01*
G01*
X237421000Y-81389000D01*
G75*
G02*
X237556000Y-81524000I0J-135000D01*
G01*
X237556000Y-81794000D01*
G75*
G02*
X237421000Y-81929000I-135000J0D01*
G01*
G37*
G36*
G01*
X237421000Y-82949000D02*
X237051000Y-82949000D01*
G75*
G02*
X236916000Y-82814000I0J135000D01*
G01*
X236916000Y-82544000D01*
G75*
G02*
X237051000Y-82409000I135000J0D01*
G01*
X237421000Y-82409000D01*
G75*
G02*
X237556000Y-82544000I0J-135000D01*
G01*
X237556000Y-82814000D01*
G75*
G02*
X237421000Y-82949000I-135000J0D01*
G01*
G37*
G36*
G01*
X233241000Y-101332000D02*
X233611000Y-101332000D01*
G75*
G02*
X233746000Y-101467000I0J-135000D01*
G01*
X233746000Y-101737000D01*
G75*
G02*
X233611000Y-101872000I-135000J0D01*
G01*
X233241000Y-101872000D01*
G75*
G02*
X233106000Y-101737000I0J135000D01*
G01*
X233106000Y-101467000D01*
G75*
G02*
X233241000Y-101332000I135000J0D01*
G01*
G37*
G36*
G01*
X233241000Y-100312000D02*
X233611000Y-100312000D01*
G75*
G02*
X233746000Y-100447000I0J-135000D01*
G01*
X233746000Y-100717000D01*
G75*
G02*
X233611000Y-100852000I-135000J0D01*
G01*
X233241000Y-100852000D01*
G75*
G02*
X233106000Y-100717000I0J135000D01*
G01*
X233106000Y-100447000D01*
G75*
G02*
X233241000Y-100312000I135000J0D01*
G01*
G37*
G36*
G01*
X234627000Y-100852000D02*
X234257000Y-100852000D01*
G75*
G02*
X234122000Y-100717000I0J135000D01*
G01*
X234122000Y-100447000D01*
G75*
G02*
X234257000Y-100312000I135000J0D01*
G01*
X234627000Y-100312000D01*
G75*
G02*
X234762000Y-100447000I0J-135000D01*
G01*
X234762000Y-100717000D01*
G75*
G02*
X234627000Y-100852000I-135000J0D01*
G01*
G37*
G36*
G01*
X234627000Y-101872000D02*
X234257000Y-101872000D01*
G75*
G02*
X234122000Y-101737000I0J135000D01*
G01*
X234122000Y-101467000D01*
G75*
G02*
X234257000Y-101332000I135000J0D01*
G01*
X234627000Y-101332000D01*
G75*
G02*
X234762000Y-101467000I0J-135000D01*
G01*
X234762000Y-101737000D01*
G75*
G02*
X234627000Y-101872000I-135000J0D01*
G01*
G37*
G36*
G01*
X168598000Y-99554000D02*
X168968000Y-99554000D01*
G75*
G02*
X169103000Y-99689000I0J-135000D01*
G01*
X169103000Y-99959000D01*
G75*
G02*
X168968000Y-100094000I-135000J0D01*
G01*
X168598000Y-100094000D01*
G75*
G02*
X168463000Y-99959000I0J135000D01*
G01*
X168463000Y-99689000D01*
G75*
G02*
X168598000Y-99554000I135000J0D01*
G01*
G37*
G36*
G01*
X168598000Y-98534000D02*
X168968000Y-98534000D01*
G75*
G02*
X169103000Y-98669000I0J-135000D01*
G01*
X169103000Y-98939000D01*
G75*
G02*
X168968000Y-99074000I-135000J0D01*
G01*
X168598000Y-99074000D01*
G75*
G02*
X168463000Y-98939000I0J135000D01*
G01*
X168463000Y-98669000D01*
G75*
G02*
X168598000Y-98534000I135000J0D01*
G01*
G37*
G36*
G01*
X215505000Y-82735000D02*
X215505000Y-82365000D01*
G75*
G02*
X215640000Y-82230000I135000J0D01*
G01*
X215910000Y-82230000D01*
G75*
G02*
X216045000Y-82365000I0J-135000D01*
G01*
X216045000Y-82735000D01*
G75*
G02*
X215910000Y-82870000I-135000J0D01*
G01*
X215640000Y-82870000D01*
G75*
G02*
X215505000Y-82735000I0J135000D01*
G01*
G37*
G36*
G01*
X214485000Y-82735000D02*
X214485000Y-82365000D01*
G75*
G02*
X214620000Y-82230000I135000J0D01*
G01*
X214890000Y-82230000D01*
G75*
G02*
X215025000Y-82365000I0J-135000D01*
G01*
X215025000Y-82735000D01*
G75*
G02*
X214890000Y-82870000I-135000J0D01*
G01*
X214620000Y-82870000D01*
G75*
G02*
X214485000Y-82735000I0J135000D01*
G01*
G37*
G36*
G01*
X215378000Y-94927000D02*
X215378000Y-94557000D01*
G75*
G02*
X215513000Y-94422000I135000J0D01*
G01*
X215783000Y-94422000D01*
G75*
G02*
X215918000Y-94557000I0J-135000D01*
G01*
X215918000Y-94927000D01*
G75*
G02*
X215783000Y-95062000I-135000J0D01*
G01*
X215513000Y-95062000D01*
G75*
G02*
X215378000Y-94927000I0J135000D01*
G01*
G37*
G36*
G01*
X214358000Y-94927000D02*
X214358000Y-94557000D01*
G75*
G02*
X214493000Y-94422000I135000J0D01*
G01*
X214763000Y-94422000D01*
G75*
G02*
X214898000Y-94557000I0J-135000D01*
G01*
X214898000Y-94927000D01*
G75*
G02*
X214763000Y-95062000I-135000J0D01*
G01*
X214493000Y-95062000D01*
G75*
G02*
X214358000Y-94927000I0J135000D01*
G01*
G37*
G36*
G01*
X178493000Y-95137000D02*
X178123000Y-95137000D01*
G75*
G02*
X177988000Y-95002000I0J135000D01*
G01*
X177988000Y-94732000D01*
G75*
G02*
X178123000Y-94597000I135000J0D01*
G01*
X178493000Y-94597000D01*
G75*
G02*
X178628000Y-94732000I0J-135000D01*
G01*
X178628000Y-95002000D01*
G75*
G02*
X178493000Y-95137000I-135000J0D01*
G01*
G37*
G36*
G01*
X178493000Y-96157000D02*
X178123000Y-96157000D01*
G75*
G02*
X177988000Y-96022000I0J135000D01*
G01*
X177988000Y-95752000D01*
G75*
G02*
X178123000Y-95617000I135000J0D01*
G01*
X178493000Y-95617000D01*
G75*
G02*
X178628000Y-95752000I0J-135000D01*
G01*
X178628000Y-96022000D01*
G75*
G02*
X178493000Y-96157000I-135000J0D01*
G01*
G37*
G36*
G01*
X178493000Y-101614000D02*
X178123000Y-101614000D01*
G75*
G02*
X177988000Y-101479000I0J135000D01*
G01*
X177988000Y-101209000D01*
G75*
G02*
X178123000Y-101074000I135000J0D01*
G01*
X178493000Y-101074000D01*
G75*
G02*
X178628000Y-101209000I0J-135000D01*
G01*
X178628000Y-101479000D01*
G75*
G02*
X178493000Y-101614000I-135000J0D01*
G01*
G37*
G36*
G01*
X178493000Y-102634000D02*
X178123000Y-102634000D01*
G75*
G02*
X177988000Y-102499000I0J135000D01*
G01*
X177988000Y-102229000D01*
G75*
G02*
X178123000Y-102094000I135000J0D01*
G01*
X178493000Y-102094000D01*
G75*
G02*
X178628000Y-102229000I0J-135000D01*
G01*
X178628000Y-102499000D01*
G75*
G02*
X178493000Y-102634000I-135000J0D01*
G01*
G37*
G36*
G01*
X168598000Y-102475000D02*
X168968000Y-102475000D01*
G75*
G02*
X169103000Y-102610000I0J-135000D01*
G01*
X169103000Y-102880000D01*
G75*
G02*
X168968000Y-103015000I-135000J0D01*
G01*
X168598000Y-103015000D01*
G75*
G02*
X168463000Y-102880000I0J135000D01*
G01*
X168463000Y-102610000D01*
G75*
G02*
X168598000Y-102475000I135000J0D01*
G01*
G37*
G36*
G01*
X168598000Y-101455000D02*
X168968000Y-101455000D01*
G75*
G02*
X169103000Y-101590000I0J-135000D01*
G01*
X169103000Y-101860000D01*
G75*
G02*
X168968000Y-101995000I-135000J0D01*
G01*
X168598000Y-101995000D01*
G75*
G02*
X168463000Y-101860000I0J135000D01*
G01*
X168463000Y-101590000D01*
G75*
G02*
X168598000Y-101455000I135000J0D01*
G01*
G37*
G36*
G01*
X162546000Y-90863000D02*
X162546000Y-90493000D01*
G75*
G02*
X162681000Y-90358000I135000J0D01*
G01*
X162951000Y-90358000D01*
G75*
G02*
X163086000Y-90493000I0J-135000D01*
G01*
X163086000Y-90863000D01*
G75*
G02*
X162951000Y-90998000I-135000J0D01*
G01*
X162681000Y-90998000D01*
G75*
G02*
X162546000Y-90863000I0J135000D01*
G01*
G37*
G36*
G01*
X161526000Y-90863000D02*
X161526000Y-90493000D01*
G75*
G02*
X161661000Y-90358000I135000J0D01*
G01*
X161931000Y-90358000D01*
G75*
G02*
X162066000Y-90493000I0J-135000D01*
G01*
X162066000Y-90863000D01*
G75*
G02*
X161931000Y-90998000I-135000J0D01*
G01*
X161661000Y-90998000D01*
G75*
G02*
X161526000Y-90863000I0J135000D01*
G01*
G37*
G36*
G01*
X162546000Y-92006000D02*
X162546000Y-91636000D01*
G75*
G02*
X162681000Y-91501000I135000J0D01*
G01*
X162951000Y-91501000D01*
G75*
G02*
X163086000Y-91636000I0J-135000D01*
G01*
X163086000Y-92006000D01*
G75*
G02*
X162951000Y-92141000I-135000J0D01*
G01*
X162681000Y-92141000D01*
G75*
G02*
X162546000Y-92006000I0J135000D01*
G01*
G37*
G36*
G01*
X161526000Y-92006000D02*
X161526000Y-91636000D01*
G75*
G02*
X161661000Y-91501000I135000J0D01*
G01*
X161931000Y-91501000D01*
G75*
G02*
X162066000Y-91636000I0J-135000D01*
G01*
X162066000Y-92006000D01*
G75*
G02*
X161931000Y-92141000I-135000J0D01*
G01*
X161661000Y-92141000D01*
G75*
G02*
X161526000Y-92006000I0J135000D01*
G01*
G37*
D34*
X127383428Y-103108000D03*
X125383428Y-103758000D03*
X125383428Y-102458000D03*
D35*
X62716428Y-90215000D03*
X62716428Y-89265000D03*
X62716428Y-88315000D03*
X65336428Y-88315000D03*
X65336428Y-89265000D03*
X65336428Y-90215000D03*
D34*
X173085000Y-102235000D03*
X171085000Y-102885000D03*
X171085000Y-101585000D03*
X173085000Y-99441000D03*
X171085000Y-100091000D03*
X171085000Y-98791000D03*
G36*
G01*
X132194428Y-103364250D02*
X132194428Y-102851750D01*
G75*
G02*
X132413178Y-102633000I218750J0D01*
G01*
X132850678Y-102633000D01*
G75*
G02*
X133069428Y-102851750I0J-218750D01*
G01*
X133069428Y-103364250D01*
G75*
G02*
X132850678Y-103583000I-218750J0D01*
G01*
X132413178Y-103583000D01*
G75*
G02*
X132194428Y-103364250I0J218750D01*
G01*
G37*
G36*
G01*
X130619428Y-103364250D02*
X130619428Y-102851750D01*
G75*
G02*
X130838178Y-102633000I218750J0D01*
G01*
X131275678Y-102633000D01*
G75*
G02*
X131494428Y-102851750I0J-218750D01*
G01*
X131494428Y-103364250D01*
G75*
G02*
X131275678Y-103583000I-218750J0D01*
G01*
X130838178Y-103583000D01*
G75*
G02*
X130619428Y-103364250I0J218750D01*
G01*
G37*
G36*
G01*
X60120428Y-79483750D02*
X60120428Y-79996250D01*
G75*
G02*
X59901678Y-80215000I-218750J0D01*
G01*
X59464178Y-80215000D01*
G75*
G02*
X59245428Y-79996250I0J218750D01*
G01*
X59245428Y-79483750D01*
G75*
G02*
X59464178Y-79265000I218750J0D01*
G01*
X59901678Y-79265000D01*
G75*
G02*
X60120428Y-79483750I0J-218750D01*
G01*
G37*
G36*
G01*
X61695428Y-79483750D02*
X61695428Y-79996250D01*
G75*
G02*
X61476678Y-80215000I-218750J0D01*
G01*
X61039178Y-80215000D01*
G75*
G02*
X60820428Y-79996250I0J218750D01*
G01*
X60820428Y-79483750D01*
G75*
G02*
X61039178Y-79265000I218750J0D01*
G01*
X61476678Y-79265000D01*
G75*
G02*
X61695428Y-79483750I0J-218750D01*
G01*
G37*
G36*
G01*
X95887250Y-98837000D02*
X95374750Y-98837000D01*
G75*
G02*
X95156000Y-98618250I0J218750D01*
G01*
X95156000Y-98180750D01*
G75*
G02*
X95374750Y-97962000I218750J0D01*
G01*
X95887250Y-97962000D01*
G75*
G02*
X96106000Y-98180750I0J-218750D01*
G01*
X96106000Y-98618250D01*
G75*
G02*
X95887250Y-98837000I-218750J0D01*
G01*
G37*
G36*
G01*
X95887250Y-100412000D02*
X95374750Y-100412000D01*
G75*
G02*
X95156000Y-100193250I0J218750D01*
G01*
X95156000Y-99755750D01*
G75*
G02*
X95374750Y-99537000I218750J0D01*
G01*
X95887250Y-99537000D01*
G75*
G02*
X96106000Y-99755750I0J-218750D01*
G01*
X96106000Y-100193250D01*
G75*
G02*
X95887250Y-100412000I-218750J0D01*
G01*
G37*
G36*
G01*
X156687000Y-82933250D02*
X156687000Y-82420750D01*
G75*
G02*
X156905750Y-82202000I218750J0D01*
G01*
X157343250Y-82202000D01*
G75*
G02*
X157562000Y-82420750I0J-218750D01*
G01*
X157562000Y-82933250D01*
G75*
G02*
X157343250Y-83152000I-218750J0D01*
G01*
X156905750Y-83152000D01*
G75*
G02*
X156687000Y-82933250I0J218750D01*
G01*
G37*
G36*
G01*
X155112000Y-82933250D02*
X155112000Y-82420750D01*
G75*
G02*
X155330750Y-82202000I218750J0D01*
G01*
X155768250Y-82202000D01*
G75*
G02*
X155987000Y-82420750I0J-218750D01*
G01*
X155987000Y-82933250D01*
G75*
G02*
X155768250Y-83152000I-218750J0D01*
G01*
X155330750Y-83152000D01*
G75*
G02*
X155112000Y-82933250I0J218750D01*
G01*
G37*
G36*
G01*
X156687000Y-81282250D02*
X156687000Y-80769750D01*
G75*
G02*
X156905750Y-80551000I218750J0D01*
G01*
X157343250Y-80551000D01*
G75*
G02*
X157562000Y-80769750I0J-218750D01*
G01*
X157562000Y-81282250D01*
G75*
G02*
X157343250Y-81501000I-218750J0D01*
G01*
X156905750Y-81501000D01*
G75*
G02*
X156687000Y-81282250I0J218750D01*
G01*
G37*
G36*
G01*
X155112000Y-81282250D02*
X155112000Y-80769750D01*
G75*
G02*
X155330750Y-80551000I218750J0D01*
G01*
X155768250Y-80551000D01*
G75*
G02*
X155987000Y-80769750I0J-218750D01*
G01*
X155987000Y-81282250D01*
G75*
G02*
X155768250Y-81501000I-218750J0D01*
G01*
X155330750Y-81501000D01*
G75*
G02*
X155112000Y-81282250I0J218750D01*
G01*
G37*
D36*
X54374428Y-89086000D03*
D37*
X54374428Y-95736000D03*
D38*
X48424428Y-94586000D03*
X48424428Y-99786000D03*
X60324428Y-99786000D03*
X60324428Y-94586000D03*
D39*
X54374428Y-100736000D03*
D40*
X174244000Y-80899000D03*
X171704000Y-80899000D03*
X169164000Y-80899000D03*
D41*
X166624000Y-80899000D03*
G36*
G01*
X63401428Y-94358000D02*
X64651428Y-94358000D01*
G75*
G02*
X64901428Y-94608000I0J-250000D01*
G01*
X64901428Y-95358000D01*
G75*
G02*
X64651428Y-95608000I-250000J0D01*
G01*
X63401428Y-95608000D01*
G75*
G02*
X63151428Y-95358000I0J250000D01*
G01*
X63151428Y-94608000D01*
G75*
G02*
X63401428Y-94358000I250000J0D01*
G01*
G37*
G36*
G01*
X63401428Y-91558000D02*
X64651428Y-91558000D01*
G75*
G02*
X64901428Y-91808000I0J-250000D01*
G01*
X64901428Y-92558000D01*
G75*
G02*
X64651428Y-92808000I-250000J0D01*
G01*
X63401428Y-92808000D01*
G75*
G02*
X63151428Y-92558000I0J250000D01*
G01*
X63151428Y-91808000D01*
G75*
G02*
X63401428Y-91558000I250000J0D01*
G01*
G37*
D42*
X49768428Y-89900000D03*
X51868428Y-89900000D03*
D43*
X146201500Y-97266000D03*
X147041500Y-97266000D03*
X148660128Y-97266000D03*
X147820128Y-97266000D03*
G36*
G01*
X126768428Y-100004000D02*
X127268428Y-100004000D01*
G75*
G02*
X127493428Y-100229000I0J-225000D01*
G01*
X127493428Y-100679000D01*
G75*
G02*
X127268428Y-100904000I-225000J0D01*
G01*
X126768428Y-100904000D01*
G75*
G02*
X126543428Y-100679000I0J225000D01*
G01*
X126543428Y-100229000D01*
G75*
G02*
X126768428Y-100004000I225000J0D01*
G01*
G37*
G36*
G01*
X126768428Y-98454000D02*
X127268428Y-98454000D01*
G75*
G02*
X127493428Y-98679000I0J-225000D01*
G01*
X127493428Y-99129000D01*
G75*
G02*
X127268428Y-99354000I-225000J0D01*
G01*
X126768428Y-99354000D01*
G75*
G02*
X126543428Y-99129000I0J225000D01*
G01*
X126543428Y-98679000D01*
G75*
G02*
X126768428Y-98454000I225000J0D01*
G01*
G37*
G36*
G01*
X125117428Y-100004000D02*
X125617428Y-100004000D01*
G75*
G02*
X125842428Y-100229000I0J-225000D01*
G01*
X125842428Y-100679000D01*
G75*
G02*
X125617428Y-100904000I-225000J0D01*
G01*
X125117428Y-100904000D01*
G75*
G02*
X124892428Y-100679000I0J225000D01*
G01*
X124892428Y-100229000D01*
G75*
G02*
X125117428Y-100004000I225000J0D01*
G01*
G37*
G36*
G01*
X125117428Y-98454000D02*
X125617428Y-98454000D01*
G75*
G02*
X125842428Y-98679000I0J-225000D01*
G01*
X125842428Y-99129000D01*
G75*
G02*
X125617428Y-99354000I-225000J0D01*
G01*
X125117428Y-99354000D01*
G75*
G02*
X124892428Y-99129000I0J225000D01*
G01*
X124892428Y-98679000D01*
G75*
G02*
X125117428Y-98454000I225000J0D01*
G01*
G37*
G36*
G01*
X127315428Y-94161000D02*
X126975428Y-94161000D01*
G75*
G02*
X126835428Y-94021000I0J140000D01*
G01*
X126835428Y-93741000D01*
G75*
G02*
X126975428Y-93601000I140000J0D01*
G01*
X127315428Y-93601000D01*
G75*
G02*
X127455428Y-93741000I0J-140000D01*
G01*
X127455428Y-94021000D01*
G75*
G02*
X127315428Y-94161000I-140000J0D01*
G01*
G37*
G36*
G01*
X127315428Y-95121000D02*
X126975428Y-95121000D01*
G75*
G02*
X126835428Y-94981000I0J140000D01*
G01*
X126835428Y-94701000D01*
G75*
G02*
X126975428Y-94561000I140000J0D01*
G01*
X127315428Y-94561000D01*
G75*
G02*
X127455428Y-94701000I0J-140000D01*
G01*
X127455428Y-94981000D01*
G75*
G02*
X127315428Y-95121000I-140000J0D01*
G01*
G37*
G36*
G01*
X125998428Y-93893000D02*
X125498428Y-93893000D01*
G75*
G02*
X125273428Y-93668000I0J225000D01*
G01*
X125273428Y-93218000D01*
G75*
G02*
X125498428Y-92993000I225000J0D01*
G01*
X125998428Y-92993000D01*
G75*
G02*
X126223428Y-93218000I0J-225000D01*
G01*
X126223428Y-93668000D01*
G75*
G02*
X125998428Y-93893000I-225000J0D01*
G01*
G37*
G36*
G01*
X125998428Y-95443000D02*
X125498428Y-95443000D01*
G75*
G02*
X125273428Y-95218000I0J225000D01*
G01*
X125273428Y-94768000D01*
G75*
G02*
X125498428Y-94543000I225000J0D01*
G01*
X125998428Y-94543000D01*
G75*
G02*
X126223428Y-94768000I0J-225000D01*
G01*
X126223428Y-95218000D01*
G75*
G02*
X125998428Y-95443000I-225000J0D01*
G01*
G37*
G36*
G01*
X45441428Y-96069000D02*
X45781428Y-96069000D01*
G75*
G02*
X45921428Y-96209000I0J-140000D01*
G01*
X45921428Y-96489000D01*
G75*
G02*
X45781428Y-96629000I-140000J0D01*
G01*
X45441428Y-96629000D01*
G75*
G02*
X45301428Y-96489000I0J140000D01*
G01*
X45301428Y-96209000D01*
G75*
G02*
X45441428Y-96069000I140000J0D01*
G01*
G37*
G36*
G01*
X45441428Y-95109000D02*
X45781428Y-95109000D01*
G75*
G02*
X45921428Y-95249000I0J-140000D01*
G01*
X45921428Y-95529000D01*
G75*
G02*
X45781428Y-95669000I-140000J0D01*
G01*
X45441428Y-95669000D01*
G75*
G02*
X45301428Y-95529000I0J140000D01*
G01*
X45301428Y-95249000D01*
G75*
G02*
X45441428Y-95109000I140000J0D01*
G01*
G37*
G36*
G01*
X50241428Y-81043000D02*
X50241428Y-81993000D01*
G75*
G02*
X49991428Y-82243000I-250000J0D01*
G01*
X49491428Y-82243000D01*
G75*
G02*
X49241428Y-81993000I0J250000D01*
G01*
X49241428Y-81043000D01*
G75*
G02*
X49491428Y-80793000I250000J0D01*
G01*
X49991428Y-80793000D01*
G75*
G02*
X50241428Y-81043000I0J-250000D01*
G01*
G37*
G36*
G01*
X52141428Y-81043000D02*
X52141428Y-81993000D01*
G75*
G02*
X51891428Y-82243000I-250000J0D01*
G01*
X51391428Y-82243000D01*
G75*
G02*
X51141428Y-81993000I0J250000D01*
G01*
X51141428Y-81043000D01*
G75*
G02*
X51391428Y-80793000I250000J0D01*
G01*
X51891428Y-80793000D01*
G75*
G02*
X52141428Y-81043000I0J-250000D01*
G01*
G37*
G36*
G01*
X50241428Y-83075000D02*
X50241428Y-84025000D01*
G75*
G02*
X49991428Y-84275000I-250000J0D01*
G01*
X49491428Y-84275000D01*
G75*
G02*
X49241428Y-84025000I0J250000D01*
G01*
X49241428Y-83075000D01*
G75*
G02*
X49491428Y-82825000I250000J0D01*
G01*
X49991428Y-82825000D01*
G75*
G02*
X50241428Y-83075000I0J-250000D01*
G01*
G37*
G36*
G01*
X52141428Y-83075000D02*
X52141428Y-84025000D01*
G75*
G02*
X51891428Y-84275000I-250000J0D01*
G01*
X51391428Y-84275000D01*
G75*
G02*
X51141428Y-84025000I0J250000D01*
G01*
X51141428Y-83075000D01*
G75*
G02*
X51391428Y-82825000I250000J0D01*
G01*
X51891428Y-82825000D01*
G75*
G02*
X52141428Y-83075000I0J-250000D01*
G01*
G37*
G36*
G01*
X50241428Y-85107000D02*
X50241428Y-86057000D01*
G75*
G02*
X49991428Y-86307000I-250000J0D01*
G01*
X49491428Y-86307000D01*
G75*
G02*
X49241428Y-86057000I0J250000D01*
G01*
X49241428Y-85107000D01*
G75*
G02*
X49491428Y-84857000I250000J0D01*
G01*
X49991428Y-84857000D01*
G75*
G02*
X50241428Y-85107000I0J-250000D01*
G01*
G37*
G36*
G01*
X52141428Y-85107000D02*
X52141428Y-86057000D01*
G75*
G02*
X51891428Y-86307000I-250000J0D01*
G01*
X51391428Y-86307000D01*
G75*
G02*
X51141428Y-86057000I0J250000D01*
G01*
X51141428Y-85107000D01*
G75*
G02*
X51391428Y-84857000I250000J0D01*
G01*
X51891428Y-84857000D01*
G75*
G02*
X52141428Y-85107000I0J-250000D01*
G01*
G37*
G36*
G01*
X50241428Y-87139000D02*
X50241428Y-88089000D01*
G75*
G02*
X49991428Y-88339000I-250000J0D01*
G01*
X49491428Y-88339000D01*
G75*
G02*
X49241428Y-88089000I0J250000D01*
G01*
X49241428Y-87139000D01*
G75*
G02*
X49491428Y-86889000I250000J0D01*
G01*
X49991428Y-86889000D01*
G75*
G02*
X50241428Y-87139000I0J-250000D01*
G01*
G37*
G36*
G01*
X52141428Y-87139000D02*
X52141428Y-88089000D01*
G75*
G02*
X51891428Y-88339000I-250000J0D01*
G01*
X51391428Y-88339000D01*
G75*
G02*
X51141428Y-88089000I0J250000D01*
G01*
X51141428Y-87139000D01*
G75*
G02*
X51391428Y-86889000I250000J0D01*
G01*
X51891428Y-86889000D01*
G75*
G02*
X52141428Y-87139000I0J-250000D01*
G01*
G37*
G36*
G01*
X90609000Y-89949000D02*
X90609000Y-90899000D01*
G75*
G02*
X90359000Y-91149000I-250000J0D01*
G01*
X89859000Y-91149000D01*
G75*
G02*
X89609000Y-90899000I0J250000D01*
G01*
X89609000Y-89949000D01*
G75*
G02*
X89859000Y-89699000I250000J0D01*
G01*
X90359000Y-89699000D01*
G75*
G02*
X90609000Y-89949000I0J-250000D01*
G01*
G37*
G36*
G01*
X92509000Y-89949000D02*
X92509000Y-90899000D01*
G75*
G02*
X92259000Y-91149000I-250000J0D01*
G01*
X91759000Y-91149000D01*
G75*
G02*
X91509000Y-90899000I0J250000D01*
G01*
X91509000Y-89949000D01*
G75*
G02*
X91759000Y-89699000I250000J0D01*
G01*
X92259000Y-89699000D01*
G75*
G02*
X92509000Y-89949000I0J-250000D01*
G01*
G37*
D44*
X89299428Y-96625000D03*
X89299428Y-102225000D03*
X81425428Y-96625000D03*
X81425428Y-102225000D03*
G36*
G01*
X90711429Y-80999000D02*
X89411427Y-80999000D01*
G75*
G02*
X89161428Y-80749001I0J249999D01*
G01*
X89161428Y-80098999D01*
G75*
G02*
X89411427Y-79849000I249999J0D01*
G01*
X90711429Y-79849000D01*
G75*
G02*
X90961428Y-80098999I0J-249999D01*
G01*
X90961428Y-80749001D01*
G75*
G02*
X90711429Y-80999000I-249999J0D01*
G01*
G37*
G36*
G01*
X90711429Y-83949000D02*
X89411427Y-83949000D01*
G75*
G02*
X89161428Y-83699001I0J249999D01*
G01*
X89161428Y-83048999D01*
G75*
G02*
X89411427Y-82799000I249999J0D01*
G01*
X90711429Y-82799000D01*
G75*
G02*
X90961428Y-83048999I0J-249999D01*
G01*
X90961428Y-83699001D01*
G75*
G02*
X90711429Y-83949000I-249999J0D01*
G01*
G37*
G36*
G01*
X93124429Y-80999000D02*
X91824427Y-80999000D01*
G75*
G02*
X91574428Y-80749001I0J249999D01*
G01*
X91574428Y-80098999D01*
G75*
G02*
X91824427Y-79849000I249999J0D01*
G01*
X93124429Y-79849000D01*
G75*
G02*
X93374428Y-80098999I0J-249999D01*
G01*
X93374428Y-80749001D01*
G75*
G02*
X93124429Y-80999000I-249999J0D01*
G01*
G37*
G36*
G01*
X93124429Y-83949000D02*
X91824427Y-83949000D01*
G75*
G02*
X91574428Y-83699001I0J249999D01*
G01*
X91574428Y-83048999D01*
G75*
G02*
X91824427Y-82799000I249999J0D01*
G01*
X93124429Y-82799000D01*
G75*
G02*
X93374428Y-83048999I0J-249999D01*
G01*
X93374428Y-83699001D01*
G75*
G02*
X93124429Y-83949000I-249999J0D01*
G01*
G37*
G36*
G01*
X85885429Y-80999000D02*
X84585427Y-80999000D01*
G75*
G02*
X84335428Y-80749001I0J249999D01*
G01*
X84335428Y-80098999D01*
G75*
G02*
X84585427Y-79849000I249999J0D01*
G01*
X85885429Y-79849000D01*
G75*
G02*
X86135428Y-80098999I0J-249999D01*
G01*
X86135428Y-80749001D01*
G75*
G02*
X85885429Y-80999000I-249999J0D01*
G01*
G37*
G36*
G01*
X85885429Y-83949000D02*
X84585427Y-83949000D01*
G75*
G02*
X84335428Y-83699001I0J249999D01*
G01*
X84335428Y-83048999D01*
G75*
G02*
X84585427Y-82799000I249999J0D01*
G01*
X85885429Y-82799000D01*
G75*
G02*
X86135428Y-83048999I0J-249999D01*
G01*
X86135428Y-83699001D01*
G75*
G02*
X85885429Y-83949000I-249999J0D01*
G01*
G37*
G36*
G01*
X88298429Y-80999000D02*
X86998427Y-80999000D01*
G75*
G02*
X86748428Y-80749001I0J249999D01*
G01*
X86748428Y-80098999D01*
G75*
G02*
X86998427Y-79849000I249999J0D01*
G01*
X88298429Y-79849000D01*
G75*
G02*
X88548428Y-80098999I0J-249999D01*
G01*
X88548428Y-80749001D01*
G75*
G02*
X88298429Y-80999000I-249999J0D01*
G01*
G37*
G36*
G01*
X88298429Y-83949000D02*
X86998427Y-83949000D01*
G75*
G02*
X86748428Y-83699001I0J249999D01*
G01*
X86748428Y-83048999D01*
G75*
G02*
X86998427Y-82799000I249999J0D01*
G01*
X88298429Y-82799000D01*
G75*
G02*
X88548428Y-83048999I0J-249999D01*
G01*
X88548428Y-83699001D01*
G75*
G02*
X88298429Y-83949000I-249999J0D01*
G01*
G37*
G36*
G01*
X140026428Y-102176000D02*
X140026428Y-102516000D01*
G75*
G02*
X139886428Y-102656000I-140000J0D01*
G01*
X139606428Y-102656000D01*
G75*
G02*
X139466428Y-102516000I0J140000D01*
G01*
X139466428Y-102176000D01*
G75*
G02*
X139606428Y-102036000I140000J0D01*
G01*
X139886428Y-102036000D01*
G75*
G02*
X140026428Y-102176000I0J-140000D01*
G01*
G37*
G36*
G01*
X140986428Y-102176000D02*
X140986428Y-102516000D01*
G75*
G02*
X140846428Y-102656000I-140000J0D01*
G01*
X140566428Y-102656000D01*
G75*
G02*
X140426428Y-102516000I0J140000D01*
G01*
X140426428Y-102176000D01*
G75*
G02*
X140566428Y-102036000I140000J0D01*
G01*
X140846428Y-102036000D01*
G75*
G02*
X140986428Y-102176000I0J-140000D01*
G01*
G37*
G36*
G01*
X141424000Y-83355000D02*
X141424000Y-83015000D01*
G75*
G02*
X141564000Y-82875000I140000J0D01*
G01*
X141844000Y-82875000D01*
G75*
G02*
X141984000Y-83015000I0J-140000D01*
G01*
X141984000Y-83355000D01*
G75*
G02*
X141844000Y-83495000I-140000J0D01*
G01*
X141564000Y-83495000D01*
G75*
G02*
X141424000Y-83355000I0J140000D01*
G01*
G37*
G36*
G01*
X140464000Y-83355000D02*
X140464000Y-83015000D01*
G75*
G02*
X140604000Y-82875000I140000J0D01*
G01*
X140884000Y-82875000D01*
G75*
G02*
X141024000Y-83015000I0J-140000D01*
G01*
X141024000Y-83355000D01*
G75*
G02*
X140884000Y-83495000I-140000J0D01*
G01*
X140604000Y-83495000D01*
G75*
G02*
X140464000Y-83355000I0J140000D01*
G01*
G37*
G36*
G01*
X143078428Y-96410000D02*
X143078428Y-97360000D01*
G75*
G02*
X142828428Y-97610000I-250000J0D01*
G01*
X142328428Y-97610000D01*
G75*
G02*
X142078428Y-97360000I0J250000D01*
G01*
X142078428Y-96410000D01*
G75*
G02*
X142328428Y-96160000I250000J0D01*
G01*
X142828428Y-96160000D01*
G75*
G02*
X143078428Y-96410000I0J-250000D01*
G01*
G37*
G36*
G01*
X144978428Y-96410000D02*
X144978428Y-97360000D01*
G75*
G02*
X144728428Y-97610000I-250000J0D01*
G01*
X144228428Y-97610000D01*
G75*
G02*
X143978428Y-97360000I0J250000D01*
G01*
X143978428Y-96410000D01*
G75*
G02*
X144228428Y-96160000I250000J0D01*
G01*
X144728428Y-96160000D01*
G75*
G02*
X144978428Y-96410000I0J-250000D01*
G01*
G37*
G36*
G01*
X151979428Y-95328000D02*
X151979428Y-94378000D01*
G75*
G02*
X152229428Y-94128000I250000J0D01*
G01*
X152729428Y-94128000D01*
G75*
G02*
X152979428Y-94378000I0J-250000D01*
G01*
X152979428Y-95328000D01*
G75*
G02*
X152729428Y-95578000I-250000J0D01*
G01*
X152229428Y-95578000D01*
G75*
G02*
X151979428Y-95328000I0J250000D01*
G01*
G37*
G36*
G01*
X150079428Y-95328000D02*
X150079428Y-94378000D01*
G75*
G02*
X150329428Y-94128000I250000J0D01*
G01*
X150829428Y-94128000D01*
G75*
G02*
X151079428Y-94378000I0J-250000D01*
G01*
X151079428Y-95328000D01*
G75*
G02*
X150829428Y-95578000I-250000J0D01*
G01*
X150329428Y-95578000D01*
G75*
G02*
X150079428Y-95328000I0J250000D01*
G01*
G37*
G36*
G01*
X151979428Y-97360000D02*
X151979428Y-96410000D01*
G75*
G02*
X152229428Y-96160000I250000J0D01*
G01*
X152729428Y-96160000D01*
G75*
G02*
X152979428Y-96410000I0J-250000D01*
G01*
X152979428Y-97360000D01*
G75*
G02*
X152729428Y-97610000I-250000J0D01*
G01*
X152229428Y-97610000D01*
G75*
G02*
X151979428Y-97360000I0J250000D01*
G01*
G37*
G36*
G01*
X150079428Y-97360000D02*
X150079428Y-96410000D01*
G75*
G02*
X150329428Y-96160000I250000J0D01*
G01*
X150829428Y-96160000D01*
G75*
G02*
X151079428Y-96410000I0J-250000D01*
G01*
X151079428Y-97360000D01*
G75*
G02*
X150829428Y-97610000I-250000J0D01*
G01*
X150329428Y-97610000D01*
G75*
G02*
X150079428Y-97360000I0J250000D01*
G01*
G37*
G36*
G01*
X152420500Y-87258500D02*
X152760500Y-87258500D01*
G75*
G02*
X152900500Y-87398500I0J-140000D01*
G01*
X152900500Y-87678500D01*
G75*
G02*
X152760500Y-87818500I-140000J0D01*
G01*
X152420500Y-87818500D01*
G75*
G02*
X152280500Y-87678500I0J140000D01*
G01*
X152280500Y-87398500D01*
G75*
G02*
X152420500Y-87258500I140000J0D01*
G01*
G37*
G36*
G01*
X152420500Y-86298500D02*
X152760500Y-86298500D01*
G75*
G02*
X152900500Y-86438500I0J-140000D01*
G01*
X152900500Y-86718500D01*
G75*
G02*
X152760500Y-86858500I-140000J0D01*
G01*
X152420500Y-86858500D01*
G75*
G02*
X152280500Y-86718500I0J140000D01*
G01*
X152280500Y-86438500D01*
G75*
G02*
X152420500Y-86298500I140000J0D01*
G01*
G37*
G36*
G01*
X153674000Y-87955000D02*
X154174000Y-87955000D01*
G75*
G02*
X154399000Y-88180000I0J-225000D01*
G01*
X154399000Y-88630000D01*
G75*
G02*
X154174000Y-88855000I-225000J0D01*
G01*
X153674000Y-88855000D01*
G75*
G02*
X153449000Y-88630000I0J225000D01*
G01*
X153449000Y-88180000D01*
G75*
G02*
X153674000Y-87955000I225000J0D01*
G01*
G37*
G36*
G01*
X153674000Y-86405000D02*
X154174000Y-86405000D01*
G75*
G02*
X154399000Y-86630000I0J-225000D01*
G01*
X154399000Y-87080000D01*
G75*
G02*
X154174000Y-87305000I-225000J0D01*
G01*
X153674000Y-87305000D01*
G75*
G02*
X153449000Y-87080000I0J225000D01*
G01*
X153449000Y-86630000D01*
G75*
G02*
X153674000Y-86405000I225000J0D01*
G01*
G37*
G36*
G01*
X240368000Y-101292000D02*
X240708000Y-101292000D01*
G75*
G02*
X240848000Y-101432000I0J-140000D01*
G01*
X240848000Y-101712000D01*
G75*
G02*
X240708000Y-101852000I-140000J0D01*
G01*
X240368000Y-101852000D01*
G75*
G02*
X240228000Y-101712000I0J140000D01*
G01*
X240228000Y-101432000D01*
G75*
G02*
X240368000Y-101292000I140000J0D01*
G01*
G37*
G36*
G01*
X240368000Y-100332000D02*
X240708000Y-100332000D01*
G75*
G02*
X240848000Y-100472000I0J-140000D01*
G01*
X240848000Y-100752000D01*
G75*
G02*
X240708000Y-100892000I-140000J0D01*
G01*
X240368000Y-100892000D01*
G75*
G02*
X240228000Y-100752000I0J140000D01*
G01*
X240228000Y-100472000D01*
G75*
G02*
X240368000Y-100332000I140000J0D01*
G01*
G37*
G36*
G01*
X235288000Y-101292000D02*
X235628000Y-101292000D01*
G75*
G02*
X235768000Y-101432000I0J-140000D01*
G01*
X235768000Y-101712000D01*
G75*
G02*
X235628000Y-101852000I-140000J0D01*
G01*
X235288000Y-101852000D01*
G75*
G02*
X235148000Y-101712000I0J140000D01*
G01*
X235148000Y-101432000D01*
G75*
G02*
X235288000Y-101292000I140000J0D01*
G01*
G37*
G36*
G01*
X235288000Y-100332000D02*
X235628000Y-100332000D01*
G75*
G02*
X235768000Y-100472000I0J-140000D01*
G01*
X235768000Y-100752000D01*
G75*
G02*
X235628000Y-100892000I-140000J0D01*
G01*
X235288000Y-100892000D01*
G75*
G02*
X235148000Y-100752000I0J140000D01*
G01*
X235148000Y-100472000D01*
G75*
G02*
X235288000Y-100332000I140000J0D01*
G01*
G37*
G36*
G01*
X177122000Y-102054000D02*
X177462000Y-102054000D01*
G75*
G02*
X177602000Y-102194000I0J-140000D01*
G01*
X177602000Y-102474000D01*
G75*
G02*
X177462000Y-102614000I-140000J0D01*
G01*
X177122000Y-102614000D01*
G75*
G02*
X176982000Y-102474000I0J140000D01*
G01*
X176982000Y-102194000D01*
G75*
G02*
X177122000Y-102054000I140000J0D01*
G01*
G37*
G36*
G01*
X177122000Y-101094000D02*
X177462000Y-101094000D01*
G75*
G02*
X177602000Y-101234000I0J-140000D01*
G01*
X177602000Y-101514000D01*
G75*
G02*
X177462000Y-101654000I-140000J0D01*
G01*
X177122000Y-101654000D01*
G75*
G02*
X176982000Y-101514000I0J140000D01*
G01*
X176982000Y-101234000D01*
G75*
G02*
X177122000Y-101094000I140000J0D01*
G01*
G37*
G36*
G01*
X177122000Y-95577000D02*
X177462000Y-95577000D01*
G75*
G02*
X177602000Y-95717000I0J-140000D01*
G01*
X177602000Y-95997000D01*
G75*
G02*
X177462000Y-96137000I-140000J0D01*
G01*
X177122000Y-96137000D01*
G75*
G02*
X176982000Y-95997000I0J140000D01*
G01*
X176982000Y-95717000D01*
G75*
G02*
X177122000Y-95577000I140000J0D01*
G01*
G37*
G36*
G01*
X177122000Y-94617000D02*
X177462000Y-94617000D01*
G75*
G02*
X177602000Y-94757000I0J-140000D01*
G01*
X177602000Y-95037000D01*
G75*
G02*
X177462000Y-95177000I-140000J0D01*
G01*
X177122000Y-95177000D01*
G75*
G02*
X176982000Y-95037000I0J140000D01*
G01*
X176982000Y-94757000D01*
G75*
G02*
X177122000Y-94617000I140000J0D01*
G01*
G37*
G36*
G01*
X116270572Y-89370000D02*
X116610572Y-89370000D01*
G75*
G02*
X116750572Y-89510000I0J-140000D01*
G01*
X116750572Y-89790000D01*
G75*
G02*
X116610572Y-89930000I-140000J0D01*
G01*
X116270572Y-89930000D01*
G75*
G02*
X116130572Y-89790000I0J140000D01*
G01*
X116130572Y-89510000D01*
G75*
G02*
X116270572Y-89370000I140000J0D01*
G01*
G37*
G36*
G01*
X116270572Y-88410000D02*
X116610572Y-88410000D01*
G75*
G02*
X116750572Y-88550000I0J-140000D01*
G01*
X116750572Y-88830000D01*
G75*
G02*
X116610572Y-88970000I-140000J0D01*
G01*
X116270572Y-88970000D01*
G75*
G02*
X116130572Y-88830000I0J140000D01*
G01*
X116130572Y-88550000D01*
G75*
G02*
X116270572Y-88410000I140000J0D01*
G01*
G37*
G36*
G01*
X122032572Y-90003000D02*
X122532572Y-90003000D01*
G75*
G02*
X122757572Y-90228000I0J-225000D01*
G01*
X122757572Y-90678000D01*
G75*
G02*
X122532572Y-90903000I-225000J0D01*
G01*
X122032572Y-90903000D01*
G75*
G02*
X121807572Y-90678000I0J225000D01*
G01*
X121807572Y-90228000D01*
G75*
G02*
X122032572Y-90003000I225000J0D01*
G01*
G37*
G36*
G01*
X122032572Y-88453000D02*
X122532572Y-88453000D01*
G75*
G02*
X122757572Y-88678000I0J-225000D01*
G01*
X122757572Y-89128000D01*
G75*
G02*
X122532572Y-89353000I-225000J0D01*
G01*
X122032572Y-89353000D01*
G75*
G02*
X121807572Y-89128000I0J225000D01*
G01*
X121807572Y-88678000D01*
G75*
G02*
X122032572Y-88453000I225000J0D01*
G01*
G37*
G36*
G01*
X120508572Y-90003000D02*
X121008572Y-90003000D01*
G75*
G02*
X121233572Y-90228000I0J-225000D01*
G01*
X121233572Y-90678000D01*
G75*
G02*
X121008572Y-90903000I-225000J0D01*
G01*
X120508572Y-90903000D01*
G75*
G02*
X120283572Y-90678000I0J225000D01*
G01*
X120283572Y-90228000D01*
G75*
G02*
X120508572Y-90003000I225000J0D01*
G01*
G37*
G36*
G01*
X120508572Y-88453000D02*
X121008572Y-88453000D01*
G75*
G02*
X121233572Y-88678000I0J-225000D01*
G01*
X121233572Y-89128000D01*
G75*
G02*
X121008572Y-89353000I-225000J0D01*
G01*
X120508572Y-89353000D01*
G75*
G02*
X120283572Y-89128000I0J225000D01*
G01*
X120283572Y-88678000D01*
G75*
G02*
X120508572Y-88453000I225000J0D01*
G01*
G37*
G36*
G01*
X118984572Y-90003000D02*
X119484572Y-90003000D01*
G75*
G02*
X119709572Y-90228000I0J-225000D01*
G01*
X119709572Y-90678000D01*
G75*
G02*
X119484572Y-90903000I-225000J0D01*
G01*
X118984572Y-90903000D01*
G75*
G02*
X118759572Y-90678000I0J225000D01*
G01*
X118759572Y-90228000D01*
G75*
G02*
X118984572Y-90003000I225000J0D01*
G01*
G37*
G36*
G01*
X118984572Y-88453000D02*
X119484572Y-88453000D01*
G75*
G02*
X119709572Y-88678000I0J-225000D01*
G01*
X119709572Y-89128000D01*
G75*
G02*
X119484572Y-89353000I-225000J0D01*
G01*
X118984572Y-89353000D01*
G75*
G02*
X118759572Y-89128000I0J225000D01*
G01*
X118759572Y-88678000D01*
G75*
G02*
X118984572Y-88453000I225000J0D01*
G01*
G37*
G36*
G01*
X117460572Y-90003000D02*
X117960572Y-90003000D01*
G75*
G02*
X118185572Y-90228000I0J-225000D01*
G01*
X118185572Y-90678000D01*
G75*
G02*
X117960572Y-90903000I-225000J0D01*
G01*
X117460572Y-90903000D01*
G75*
G02*
X117235572Y-90678000I0J225000D01*
G01*
X117235572Y-90228000D01*
G75*
G02*
X117460572Y-90003000I225000J0D01*
G01*
G37*
G36*
G01*
X117460572Y-88453000D02*
X117960572Y-88453000D01*
G75*
G02*
X118185572Y-88678000I0J-225000D01*
G01*
X118185572Y-89128000D01*
G75*
G02*
X117960572Y-89353000I-225000J0D01*
G01*
X117460572Y-89353000D01*
G75*
G02*
X117235572Y-89128000I0J225000D01*
G01*
X117235572Y-88678000D01*
G75*
G02*
X117460572Y-88453000I225000J0D01*
G01*
G37*
G36*
G01*
X215465000Y-83736000D02*
X215465000Y-83396000D01*
G75*
G02*
X215605000Y-83256000I140000J0D01*
G01*
X215885000Y-83256000D01*
G75*
G02*
X216025000Y-83396000I0J-140000D01*
G01*
X216025000Y-83736000D01*
G75*
G02*
X215885000Y-83876000I-140000J0D01*
G01*
X215605000Y-83876000D01*
G75*
G02*
X215465000Y-83736000I0J140000D01*
G01*
G37*
G36*
G01*
X214505000Y-83736000D02*
X214505000Y-83396000D01*
G75*
G02*
X214645000Y-83256000I140000J0D01*
G01*
X214925000Y-83256000D01*
G75*
G02*
X215065000Y-83396000I0J-140000D01*
G01*
X215065000Y-83736000D01*
G75*
G02*
X214925000Y-83876000I-140000J0D01*
G01*
X214645000Y-83876000D01*
G75*
G02*
X214505000Y-83736000I0J140000D01*
G01*
G37*
G36*
G01*
X215338000Y-95928000D02*
X215338000Y-95588000D01*
G75*
G02*
X215478000Y-95448000I140000J0D01*
G01*
X215758000Y-95448000D01*
G75*
G02*
X215898000Y-95588000I0J-140000D01*
G01*
X215898000Y-95928000D01*
G75*
G02*
X215758000Y-96068000I-140000J0D01*
G01*
X215478000Y-96068000D01*
G75*
G02*
X215338000Y-95928000I0J140000D01*
G01*
G37*
G36*
G01*
X214378000Y-95928000D02*
X214378000Y-95588000D01*
G75*
G02*
X214518000Y-95448000I140000J0D01*
G01*
X214798000Y-95448000D01*
G75*
G02*
X214938000Y-95588000I0J-140000D01*
G01*
X214938000Y-95928000D01*
G75*
G02*
X214798000Y-96068000I-140000J0D01*
G01*
X214518000Y-96068000D01*
G75*
G02*
X214378000Y-95928000I0J140000D01*
G01*
G37*
G36*
G01*
X162517000Y-94053000D02*
X162857000Y-94053000D01*
G75*
G02*
X162997000Y-94193000I0J-140000D01*
G01*
X162997000Y-94473000D01*
G75*
G02*
X162857000Y-94613000I-140000J0D01*
G01*
X162517000Y-94613000D01*
G75*
G02*
X162377000Y-94473000I0J140000D01*
G01*
X162377000Y-94193000D01*
G75*
G02*
X162517000Y-94053000I140000J0D01*
G01*
G37*
G36*
G01*
X162517000Y-93093000D02*
X162857000Y-93093000D01*
G75*
G02*
X162997000Y-93233000I0J-140000D01*
G01*
X162997000Y-93513000D01*
G75*
G02*
X162857000Y-93653000I-140000J0D01*
G01*
X162517000Y-93653000D01*
G75*
G02*
X162377000Y-93513000I0J140000D01*
G01*
X162377000Y-93233000D01*
G75*
G02*
X162517000Y-93093000I140000J0D01*
G01*
G37*
G36*
G01*
X172677000Y-92910000D02*
X173017000Y-92910000D01*
G75*
G02*
X173157000Y-93050000I0J-140000D01*
G01*
X173157000Y-93330000D01*
G75*
G02*
X173017000Y-93470000I-140000J0D01*
G01*
X172677000Y-93470000D01*
G75*
G02*
X172537000Y-93330000I0J140000D01*
G01*
X172537000Y-93050000D01*
G75*
G02*
X172677000Y-92910000I140000J0D01*
G01*
G37*
G36*
G01*
X172677000Y-91950000D02*
X173017000Y-91950000D01*
G75*
G02*
X173157000Y-92090000I0J-140000D01*
G01*
X173157000Y-92370000D01*
G75*
G02*
X173017000Y-92510000I-140000J0D01*
G01*
X172677000Y-92510000D01*
G75*
G02*
X172537000Y-92370000I0J140000D01*
G01*
X172537000Y-92090000D01*
G75*
G02*
X172677000Y-91950000I140000J0D01*
G01*
G37*
G36*
G01*
X162804500Y-97175500D02*
X162804500Y-97515500D01*
G75*
G02*
X162664500Y-97655500I-140000J0D01*
G01*
X162384500Y-97655500D01*
G75*
G02*
X162244500Y-97515500I0J140000D01*
G01*
X162244500Y-97175500D01*
G75*
G02*
X162384500Y-97035500I140000J0D01*
G01*
X162664500Y-97035500D01*
G75*
G02*
X162804500Y-97175500I0J-140000D01*
G01*
G37*
G36*
G01*
X163764500Y-97175500D02*
X163764500Y-97515500D01*
G75*
G02*
X163624500Y-97655500I-140000J0D01*
G01*
X163344500Y-97655500D01*
G75*
G02*
X163204500Y-97515500I0J140000D01*
G01*
X163204500Y-97175500D01*
G75*
G02*
X163344500Y-97035500I140000J0D01*
G01*
X163624500Y-97035500D01*
G75*
G02*
X163764500Y-97175500I0J-140000D01*
G01*
G37*
G36*
G01*
X173867000Y-93543000D02*
X174367000Y-93543000D01*
G75*
G02*
X174592000Y-93768000I0J-225000D01*
G01*
X174592000Y-94218000D01*
G75*
G02*
X174367000Y-94443000I-225000J0D01*
G01*
X173867000Y-94443000D01*
G75*
G02*
X173642000Y-94218000I0J225000D01*
G01*
X173642000Y-93768000D01*
G75*
G02*
X173867000Y-93543000I225000J0D01*
G01*
G37*
G36*
G01*
X173867000Y-91993000D02*
X174367000Y-91993000D01*
G75*
G02*
X174592000Y-92218000I0J-225000D01*
G01*
X174592000Y-92668000D01*
G75*
G02*
X174367000Y-92893000I-225000J0D01*
G01*
X173867000Y-92893000D01*
G75*
G02*
X173642000Y-92668000I0J225000D01*
G01*
X173642000Y-92218000D01*
G75*
G02*
X173867000Y-91993000I225000J0D01*
G01*
G37*
G36*
G01*
X161040000Y-94813000D02*
X161540000Y-94813000D01*
G75*
G02*
X161765000Y-95038000I0J-225000D01*
G01*
X161765000Y-95488000D01*
G75*
G02*
X161540000Y-95713000I-225000J0D01*
G01*
X161040000Y-95713000D01*
G75*
G02*
X160815000Y-95488000I0J225000D01*
G01*
X160815000Y-95038000D01*
G75*
G02*
X161040000Y-94813000I225000J0D01*
G01*
G37*
G36*
G01*
X161040000Y-93263000D02*
X161540000Y-93263000D01*
G75*
G02*
X161765000Y-93488000I0J-225000D01*
G01*
X161765000Y-93938000D01*
G75*
G02*
X161540000Y-94163000I-225000J0D01*
G01*
X161040000Y-94163000D01*
G75*
G02*
X160815000Y-93938000I0J225000D01*
G01*
X160815000Y-93488000D01*
G75*
G02*
X161040000Y-93263000I225000J0D01*
G01*
G37*
G36*
G01*
X162108000Y-98429000D02*
X162108000Y-98929000D01*
G75*
G02*
X161883000Y-99154000I-225000J0D01*
G01*
X161433000Y-99154000D01*
G75*
G02*
X161208000Y-98929000I0J225000D01*
G01*
X161208000Y-98429000D01*
G75*
G02*
X161433000Y-98204000I225000J0D01*
G01*
X161883000Y-98204000D01*
G75*
G02*
X162108000Y-98429000I0J-225000D01*
G01*
G37*
G36*
G01*
X163658000Y-98429000D02*
X163658000Y-98929000D01*
G75*
G02*
X163433000Y-99154000I-225000J0D01*
G01*
X162983000Y-99154000D01*
G75*
G02*
X162758000Y-98929000I0J225000D01*
G01*
X162758000Y-98429000D01*
G75*
G02*
X162983000Y-98204000I225000J0D01*
G01*
X163433000Y-98204000D01*
G75*
G02*
X163658000Y-98429000I0J-225000D01*
G01*
G37*
M02*
