M48
; DRILL file {KiCad (5.1.10)-1} date 01/09/22 00:26:44
; FORMAT={-:-/ absolute / metric / decimal}
; #@! TF.CreationDate,2022-01-09T00:26:44-08:00
; #@! TF.GenerationSoftware,Kicad,Pcbnew,(5.1.10)-1
; #@! TF.FileFunction,Plated,1,4,PTH
FMAT,2
METRIC
T1C0.200
T2C0.800
T3C1.000
T4C1.020
T5C1.092
T6C1.100
T7C2.000
T8C2.410
%
G90
G05
T1
X45.593Y-96.901
X46.609Y-96.901
X52.832Y-81.026
X52.832Y-82.042
X52.832Y-83.058
X52.832Y-84.074
X52.832Y-85.09
X52.832Y-86.36
X60.071Y-89.154
X60.071Y-90.17
X61.341Y-89.154
X61.341Y-90.17
X61.976Y-79.756
X62.611Y-96.393
X62.611Y-97.663
X62.611Y-98.933
X62.611Y-100.203
X62.611Y-101.473
X63.881Y-96.393
X63.881Y-97.663
X63.881Y-98.933
X63.881Y-100.203
X63.881Y-101.473
X65.151Y-96.393
X65.151Y-97.663
X65.151Y-98.933
X65.151Y-100.203
X65.151Y-101.473
X66.421Y-95.123
X66.421Y-96.393
X66.421Y-97.663
X66.421Y-98.933
X66.421Y-100.203
X66.421Y-101.473
X67.691Y-95.123
X67.691Y-96.393
X67.691Y-97.663
X67.691Y-98.933
X67.691Y-100.203
X67.691Y-101.473
X80.264Y-100.965
X80.264Y-102.235
X80.264Y-103.505
X81.153Y-93.091
X82.423Y-85.217
X82.423Y-86.487
X82.423Y-93.091
X82.55Y-100.965
X82.55Y-102.235
X82.55Y-103.505
X83.693Y-85.217
X83.693Y-86.487
X83.693Y-93.091
X83.693Y-94.361
X83.693Y-95.631
X83.693Y-96.901
X83.693Y-98.171
X83.947Y-80.391
X84.455Y-79.502
X84.963Y-85.217
X84.963Y-86.487
X84.963Y-93.091
X84.963Y-94.361
X84.963Y-95.631
X84.963Y-96.901
X84.963Y-98.171
X85.725Y-79.502
X86.233Y-85.217
X86.233Y-86.487
X86.233Y-93.091
X86.233Y-94.361
X86.233Y-95.631
X86.233Y-96.901
X86.233Y-98.171
X86.995Y-79.502
X87.503Y-85.217
X87.503Y-86.487
X87.503Y-93.091
X87.503Y-94.361
X87.503Y-95.631
X87.503Y-96.901
X87.503Y-98.171
X88.138Y-100.838
X88.138Y-102.108
X88.138Y-103.378
X88.265Y-79.502
X88.773Y-93.091
X89.535Y-79.502
X90.043Y-93.091
X90.424Y-100.838
X90.424Y-102.108
X90.424Y-103.378
X90.805Y-79.502
X91.313Y-93.091
X92.075Y-79.502
X92.583Y-93.091
X93.345Y-79.502
X93.726Y-80.391
X94.107Y-85.217
X94.107Y-87.757
X94.107Y-89.027
X95.631Y-100.711
X98.425Y-99.187
X99.314Y-85.217
X99.314Y-86.487
X99.314Y-87.757
X99.314Y-89.027
X99.314Y-90.297
X99.314Y-91.567
X99.314Y-92.837
X100.584Y-85.217
X100.584Y-86.487
X100.584Y-87.757
X100.584Y-89.027
X100.584Y-90.297
X100.584Y-91.567
X100.584Y-92.837
X101.854Y-85.217
X101.854Y-86.487
X101.854Y-87.757
X101.854Y-89.027
X101.854Y-90.297
X101.854Y-91.567
X101.854Y-92.837
X103.124Y-85.217
X103.124Y-86.487
X103.124Y-87.757
X103.124Y-89.027
X103.124Y-90.297
X103.124Y-91.567
X103.124Y-92.837
X104.394Y-85.217
X104.394Y-86.487
X104.394Y-87.757
X104.394Y-89.027
X104.394Y-90.297
X104.394Y-91.567
X104.394Y-92.837
X105.664Y-85.217
X105.664Y-86.487
X105.664Y-87.757
X105.664Y-89.027
X105.664Y-90.297
X105.664Y-91.567
X105.664Y-92.837
X106.934Y-85.217
X106.934Y-86.487
X106.934Y-87.757
X106.934Y-89.027
X106.934Y-90.297
X106.934Y-91.567
X106.934Y-92.837
X108.204Y-85.217
X108.204Y-86.487
X108.204Y-87.757
X108.204Y-89.027
X108.204Y-90.297
X108.204Y-91.567
X108.204Y-92.837
X109.474Y-85.217
X109.474Y-86.487
X109.474Y-87.757
X109.474Y-89.027
X109.474Y-90.297
X109.474Y-91.567
X109.474Y-92.837
X110.744Y-85.217
X110.744Y-86.487
X110.744Y-87.757
X110.744Y-89.027
X110.744Y-90.297
X110.744Y-91.567
X110.744Y-92.837
X116.459Y-90.17
X116.84Y-86.106
X116.84Y-87.376
X117.602Y-91.186
X118.11Y-86.106
X118.11Y-87.376
X119.126Y-91.186
X119.38Y-86.106
X119.38Y-87.376
X120.65Y-86.106
X120.65Y-87.376
X120.65Y-91.186
X121.92Y-86.106
X121.92Y-87.376
X122.174Y-91.186
X122.936Y-97.917
X123.063Y-90.424
X124.206Y-97.917
X124.714Y-90.424
X125.095Y-96.139
X125.349Y-101.219
X125.476Y-97.917
X125.984Y-103.759
X126.365Y-96.139
X126.746Y-97.917
X127.0Y-101.219
X127.635Y-96.139
X127.762Y-91.821
X127.762Y-97.409
X134.112Y-96.139
X134.112Y-97.409
X134.112Y-98.679
X135.509Y-95.377
X135.509Y-99.441
X136.906Y-96.139
X136.906Y-97.409
X136.906Y-98.679
X139.192Y-101.346
X139.192Y-102.362
X140.716Y-83.058
X141.859Y-96.012
X141.859Y-97.663
X142.113Y-87.57
X144.272Y-98.044
X144.478Y-95.885
X144.526Y-92.329
X144.78Y-85.09
X145.161Y-87.265
X145.161Y-90.297
X145.796Y-95.183
X145.923Y-96.901
X146.05Y-102.87
X146.274Y-100.981
X146.274Y-101.584
X146.558Y-95.183
X148.631Y-100.325
X149.057Y-99.899
X149.098Y-97.282
X149.352Y-87.265
X149.606Y-82.804
X149.606Y-85.852
X149.86Y-92.329
X150.579Y-94.301
X150.622Y-101.219
X150.749Y-90.424
X151.765Y-97.917
X152.019Y-87.757
X153.162Y-87.884
X153.289Y-93.98
X153.289Y-95.25
X153.289Y-96.393
X153.289Y-97.536
X154.432Y-101.092
X154.559Y-101.981
X155.448Y-92.202
X156.21Y-89.916
X156.21Y-93.98
X156.718Y-100.965
X156.718Y-102.108
X157.861Y-81.026
X157.861Y-82.677
X159.639Y-83.312
X160.147Y-87.57
X160.401Y-94.301
X160.909Y-98.679
X161.29Y-96.012
X161.925Y-97.282
X162.687Y-94.869
X162.814Y-101.727
X162.814Y-102.87
X163.195Y-87.57
X163.195Y-99.441
X164.211Y-103.505
X164.338Y-101.092
X164.592Y-97.409
X164.592Y-98.552
X164.592Y-99.695
X165.113Y-89.929
X165.113Y-91.129
X165.113Y-92.329
X165.113Y-93.529
X165.113Y-94.729
X165.227Y-102.997
X165.862Y-97.409
X165.989Y-102.235
X166.243Y-99.314
X166.243Y-100.203
X166.313Y-89.929
X166.313Y-91.129
X166.313Y-92.329
X166.313Y-93.529
X166.313Y-94.729
X166.37Y-96.647
X166.878Y-98.298
X166.878Y-101.346
X167.513Y-89.929
X167.513Y-91.129
X167.513Y-92.329
X167.513Y-93.529
X167.513Y-94.729
X167.767Y-96.393
X167.894Y-98.044
X167.894Y-99.187
X168.021Y-102.743
X168.083Y-100.035
X168.713Y-89.929
X168.713Y-91.129
X168.713Y-92.329
X168.713Y-93.529
X168.713Y-94.729
X169.799Y-88.265
X169.913Y-89.929
X169.913Y-91.129
X169.913Y-92.329
X169.913Y-93.529
X169.913Y-94.729
X169.926Y-96.774
X169.926Y-98.933
X171.45Y-95.758
X171.577Y-93.091
X171.831Y-91.44
X171.958Y-96.393
X172.847Y-90.932
X172.847Y-93.726
X172.974Y-98.933
X173.482Y-95.25
X173.569Y-96.988
X173.609Y-96.139
X174.879Y-92.392
X174.879Y-93.853
X177.292Y-96.393
X177.292Y-102.87
X178.308Y-96.393
X178.308Y-102.997
X178.816Y-88.519
X180.848Y-89.027
X181.61Y-90.424
X181.61Y-97.155
X187.96Y-90.424
X187.96Y-97.155
X194.056Y-96.901
X194.056Y-98.933
X194.183Y-93.726
X199.644Y-97.155
X201.041Y-97.917
X202.311Y-87.63
X202.311Y-99.822
X214.122Y-87.63
X214.122Y-99.822
X216.281Y-82.55
X216.281Y-83.566
X218.313Y-93.726
X218.313Y-97.155
X226.187Y-96.012
X226.822Y-93.726
X228.092Y-97.028
X234.442Y-102.235
X235.458Y-102.235
X237.236Y-81.026
X237.363Y-101.6
X238.379Y-94.234
X239.522Y-102.235
X240.538Y-102.235
T3
X166.624Y-80.899
X169.164Y-80.899
X171.704Y-80.899
X174.244Y-80.899
T4
X118.618Y-84.582
X121.618Y-84.582
X124.618Y-84.582
X127.618Y-84.582
X130.618Y-84.582
X133.618Y-84.582
T5
X68.834Y-84.709
X68.834Y-87.198
X74.727Y-84.709
X74.727Y-87.198
T6
X233.466Y-84.44
X233.466Y-98.94
X235.966Y-98.94
X238.466Y-84.44
X238.466Y-98.94
T7
X54.374Y-89.086
T8
X116.468Y-80.262
X135.768Y-80.262
T2
X53.724Y-95.736G85X55.024Y-95.736
G05
T3
X48.424Y-95.086G85X48.424Y-94.086
G05
X48.424Y-100.286G85X48.424Y-99.286
G05
X60.324Y-95.086G85X60.324Y-94.086
G05
X60.324Y-100.286G85X60.324Y-99.286
G05
T7
X230.266Y-91.04G85X230.266Y-91.84
G05
X241.666Y-91.04G85X241.666Y-91.84
G05
T0
M30
